AnekOdia-ExpandedExtraBold.ufo
<glyph name="hyphen" format="2">
  <advance width="902"/>
  <unicode hex="002D"/>
  <outline>
    <contour>
      <point x="94" y="367" type="line"/>
      <point x="808" y="367" type="line"/>
      <point x="808" y="669" type="line"/>
      <point x="94" y="669" type="line"/>
    </contour>
  </outline>
</glyph>
<glyph name="at" format="2">
  <advance width="2083"/>
  <unicode hex="0040"/>
  <outline>
    <contour>
      <point x="871" y="57" type="curve" smooth="yes"/>
      <point x="1050" y="57"/>
      <point x="1127" y="149"/>
      <point x="1163" y="276" type="curve"/>
      <point x="1266" y="276" type="line"/>
      <point x="1187" y="437" type="line"/>
      <point x="1155" y="371"/>
      <point x="1097" y="342"/>
      <point x="1033" y="342" type="curve" smooth="yes"/>
      <point x="971" y="342"/>
      <point x="933" y="378"/>
      <point x="933" y="448" type="curve" smooth="yes"/>
      <point x="933" y="452"/>
      <point x="933" y="456"/>
      <point x="933" y="459" type="curve" smooth="yes"/>
      <point x="933" y="550"/>
      <point x="972" y="622"/>
      <point x="1064" y="622" type="curve" smooth="yes"/>
      <point x="1158" y="622"/>
      <point x="1186" y="573"/>
      <point x="1184" y="506" type="curve" smooth="yes"/>
      <point x="1184" y="498"/>
      <point x="1184" y="490"/>
      <point x="1183" y="481" type="curve"/>
      <point x="1295" y="679" type="line"/>
      <point x="1193" y="679" type="line"/>
      <point x="1176" y="814"/>
      <point x="1117" y="897"/>
      <point x="947" y="897" type="curve" smooth="yes"/>
      <point x="695" y="897"/>
      <point x="573" y="677"/>
      <point x="573" y="402" type="curve" smooth="yes"/>
      <point x="573" y="398"/>
      <point x="573" y="395"/>
      <point x="573" y="391" type="curve" smooth="yes"/>
      <point x="573" y="171"/>
      <point x="692" y="57"/>
    </contour>
    <contour>
      <point x="1154" y="66" type="line"/>
      <point x="1496" y="149" type="line"/>
      <point x="1558" y="871" type="line"/>
      <point x="1219" y="871" type="line"/>
      <point x="1218" y="856" type="line"/>
      <point x="1200" y="651" type="line"/>
      <point x="1196" y="609" type="line"/>
      <point x="1171" y="366" type="line"/>
      <point x="1177" y="315" type="line"/>
    </contour>
    <contour>
      <point x="1418" y="328" type="curve"/>
      <point x="1154" y="66" type="line"/>
      <point x="1214" y="60"/>
      <point x="1258" y="62"/>
      <point x="1305" y="62" type="curve" smooth="yes"/>
      <point x="1778" y="62"/>
      <point x="2021" y="225"/>
      <point x="2021" y="627" type="curve" smooth="yes"/>
      <point x="2021" y="636"/>
      <point x="2021" y="645"/>
      <point x="2021" y="654" type="curve" smooth="yes"/>
      <point x="2021" y="1100"/>
      <point x="1695" y="1360"/>
      <point x="1118" y="1360" type="curve" smooth="yes"/>
      <point x="483" y="1360"/>
      <point x="72" y="1016"/>
      <point x="72" y="408" type="curve" smooth="yes"/>
      <point x="72" y="400"/>
      <point x="72" y="393"/>
      <point x="72" y="385" type="curve" smooth="yes"/>
      <point x="72" y="-130"/>
      <point x="416" y="-379"/>
      <point x="1015" y="-379" type="curve" smooth="yes"/>
      <point x="1327" y="-379"/>
      <point x="1518" y="-335"/>
      <point x="1739" y="-268" type="curve"/>
      <point x="1809" y="1" type="line"/>
      <point x="1573" y="-82"/>
      <point x="1373" y="-133"/>
      <point x="1032" y="-133" type="curve" smooth="yes"/>
      <point x="623" y="-133"/>
      <point x="382" y="28"/>
      <point x="382" y="393" type="curve" smooth="yes"/>
      <point x="382" y="398"/>
      <point x="382" y="404"/>
      <point x="382" y="409" type="curve" smooth="yes"/>
      <point x="382" y="852"/>
      <point x="645" y="1115"/>
      <point x="1101" y="1115" type="curve" smooth="yes"/>
      <point x="1515" y="1115"/>
      <point x="1711" y="955"/>
      <point x="1711" y="653" type="curve" smooth="yes"/>
      <point x="1711" y="644"/>
      <point x="1711" y="635"/>
      <point x="1711" y="627" type="curve" smooth="yes"/>
      <point x="1711" y="426"/>
      <point x="1624" y="322"/>
      <point x="1499" y="322" type="curve" smooth="yes"/>
      <point x="1458" y="322"/>
      <point x="1441" y="323"/>
    </contour>
  </outline>
</glyph>
<glyph name="asciicircum" format="2">
  <advance width="1188"/>
  <unicode hex="005E"/>
  <outline>
    <contour>
      <point x="341" y="1278" type="line"/>
      <point x="24" y="596" type="line"/>
      <point x="373" y="596" type="line"/>
      <point x="585" y="1076" type="line"/>
      <point x="605" y="1076" type="line"/>
      <point x="815" y="596" type="line"/>
      <point x="1164" y="596" type="line"/>
      <point x="847" y="1278" type="line"/>
    </contour>
  </outline>
</glyph>
<glyph name="c" format="2">
  <advance width="1212"/>
  <unicode hex="0063"/>
  <anchor x="646" y="0" name="bottom"/>
  <anchor x="646" y="963" name="top"/>
  <outline>
    <contour>
      <point x="701" y="-39" type="curve"/>
      <point x="861" y="-39"/>
      <point x="1010" y="-5"/>
      <point x="1111" y="46" type="curve"/>
      <point x="1146" y="354" type="line"/>
      <point x="1028" y="308"/>
      <point x="918" y="279"/>
      <point x="777" y="279" type="curve" smooth="yes"/>
      <point x="567" y="279"/>
      <point x="470" y="354"/>
      <point x="470" y="484" type="curve" smooth="yes"/>
      <point x="470" y="498" type="line" smooth="yes"/>
      <point x="470" y="623"/>
      <point x="556" y="694"/>
      <point x="765" y="694" type="curve" smooth="yes"/>
      <point x="912" y="694"/>
      <point x="1034" y="659"/>
      <point x="1136" y="614" type="curve"/>
      <point x="1098" y="924" type="line"/>
      <point x="1001" y="972"/>
      <point x="855" y="1007"/>
      <point x="697" y="1007" type="curve" smooth="yes"/>
      <point x="272" y="1007"/>
      <point x="68" y="816"/>
      <point x="68" y="497" type="curve" smooth="yes"/>
      <point x="68" y="484" type="line" smooth="yes"/>
      <point x="68" y="152"/>
      <point x="272" y="-39"/>
    </contour>
  </outline>
</glyph>
<glyph name="Eth" format="2">
  <advance width="1654"/>
  <unicode hex="00D0"/>
  <anchor x="802" y="0" name="bottom"/>
  <anchor x="827" y="639" name="center"/>
  <anchor x="802" y="1278" name="top"/>
  <outline>
    <contour>
      <point x="1" y="547" type="line"/>
      <point x="862" y="546" type="line"/>
      <point x="862" y="736" type="line"/>
      <point x="1" y="738" type="line"/>
    </contour>
    <component base="D"/>
  </outline>
</glyph>
<glyph name="oe" format="2">
  <advance width="2225"/>
  <unicode hex="0153"/>
  <anchor x="1113" y="0" name="bottom"/>
  <anchor x="1113" y="963" name="top"/>
  <outline>
    <contour>
      <point x="651" y="-39" type="curve" smooth="yes"/>
      <point x="872" y="-39"/>
      <point x="1014" y="38"/>
      <point x="1113" y="159" type="curve"/>
      <point x="1125" y="159" type="line"/>
      <point x="1229" y="24"/>
      <point x="1396" y="-39"/>
      <point x="1654" y="-39" type="curve" smooth="yes"/>
      <point x="1835" y="-39"/>
      <point x="1989" y="-7"/>
      <point x="2101" y="48" type="curve"/>
      <point x="2138" y="317" type="line"/>
      <point x="1994" y="271"/>
      <point x="1845" y="247"/>
      <point x="1695" y="247" type="curve" smooth="yes"/>
      <point x="1424" y="247"/>
      <point x="1321" y="324"/>
      <point x="1310" y="425" type="curve" smooth="yes"/>
      <point x="1304" y="481" type="line"/>
      <point x="1307" y="507" type="line"/>
      <point x="1307" y="548" type="line" smooth="yes"/>
      <point x="1307" y="657"/>
      <point x="1393" y="737"/>
      <point x="1554" y="737" type="curve" smooth="yes"/>
      <point x="1718" y="737"/>
      <point x="1794" y="668"/>
      <point x="1794" y="550" type="curve" smooth="yes"/>
      <point x="1794" y="507"/>
      <point x="1789" y="433"/>
      <point x="1780" y="377" type="curve"/>
      <point x="2143" y="377" type="line"/>
      <point x="2150" y="413"/>
      <point x="2156" y="472"/>
      <point x="2156" y="522" type="curve"/>
      <point x="2156" y="536" type="line"/>
      <point x="2156" y="822"/>
      <point x="1959" y="1007"/>
      <point x="1598" y="1007" type="curve" smooth="yes"/>
      <point x="1363" y="1007"/>
      <point x="1217" y="940"/>
      <point x="1125" y="817" type="curve"/>
      <point x="1112" y="817" type="line"/>
      <point x="1016" y="936"/>
      <point x="881" y="1007"/>
      <point x="644" y="1007" type="curve" smooth="yes"/>
      <point x="281" y="1007"/>
      <point x="68" y="821"/>
      <point x="68" y="495" type="curve"/>
      <point x="68" y="472" type="line"/>
      <point x="68" y="145"/>
      <point x="281" y="-39"/>
    </contour>
    <contour>
      <point x="1098" y="377" type="line"/>
      <point x="2067" y="377" type="line"/>
      <point x="2067" y="591" type="line"/>
      <point x="1098" y="591" type="line"/>
    </contour>
    <contour>
      <point x="706" y="265" type="curve" smooth="yes"/>
      <point x="554" y="265"/>
      <point x="462" y="338"/>
      <point x="462" y="472" type="curve" smooth="yes"/>
      <point x="462" y="495" type="line" smooth="yes"/>
      <point x="462" y="628"/>
      <point x="554" y="703"/>
      <point x="706" y="703" type="curve" smooth="yes"/>
      <point x="861" y="703"/>
      <point x="953" y="627"/>
      <point x="953" y="493" type="curve" smooth="yes"/>
      <point x="953" y="474" type="line" smooth="yes"/>
      <point x="953" y="339"/>
      <point x="861" y="265"/>
    </contour>
  </outline>
</glyph>
<glyph name="Candrabindu.or" format="2">
  <unicode hex="0B01"/>
  <anchor x="-461" y="1400" name="_top2"/>
  <outline>
    <contour>
      <point x="-459" y="1699" type="curve" smooth="yes"/>
      <point x="-569" y="1699"/>
      <point x="-614" y="1761"/>
      <point x="-614" y="1846" type="curve" smooth="yes"/>
      <point x="-614" y="1853" type="line" smooth="yes"/>
      <point x="-614" y="1939"/>
      <point x="-569" y="2001"/>
      <point x="-459" y="2001" type="curve" smooth="yes"/>
      <point x="-349" y="2001"/>
      <point x="-304" y="1939"/>
      <point x="-304" y="1853" type="curve" smooth="yes"/>
      <point x="-304" y="1846" type="line" smooth="yes"/>
      <point x="-304" y="1761"/>
      <point x="-349" y="1699"/>
    </contour>
    <contour>
      <point x="-230" y="1820" type="line"/>
      <point x="45" y="1820" type="line"/>
      <point x="48" y="1789"/>
      <point x="48" y="1775"/>
      <point x="48" y="1763" type="curve" smooth="yes"/>
      <point x="48" y="1528"/>
      <point x="-114" y="1400"/>
      <point x="-461" y="1400" type="curve" smooth="yes"/>
      <point x="-801" y="1400"/>
      <point x="-972" y="1528"/>
      <point x="-972" y="1763" type="curve" smooth="yes"/>
      <point x="-972" y="1772"/>
      <point x="-972" y="1788"/>
      <point x="-968" y="1820" type="curve"/>
      <point x="-692" y="1820" type="line"/>
      <point x="-692" y="1797" type="line" smooth="yes"/>
      <point x="-692" y="1692"/>
      <point x="-615" y="1633"/>
      <point x="-462" y="1633" type="curve" smooth="yes"/>
      <point x="-300" y="1633"/>
      <point x="-230" y="1696"/>
      <point x="-230" y="1797" type="curve" smooth="yes"/>
    </contour>
  </outline>
</glyph>
<glyph name="Anusvara.or" format="2">
  <advance width="882"/>
  <unicode hex="0B02"/>
  <outline>
    <contour>
      <point x="441" y="642" type="curve" smooth="yes"/>
      <point x="725" y="642"/>
      <point x="875" y="760"/>
      <point x="875" y="976" type="curve" smooth="yes"/>
      <point x="875" y="987" type="line" smooth="yes"/>
      <point x="875" y="1204"/>
      <point x="725" y="1323"/>
      <point x="441" y="1323" type="curve" smooth="yes"/>
      <point x="158" y="1323"/>
      <point x="7" y="1204"/>
      <point x="7" y="987" type="curve" smooth="yes"/>
      <point x="7" y="976" type="line" smooth="yes"/>
      <point x="7" y="760"/>
      <point x="158" y="642"/>
    </contour>
    <contour>
      <point x="441" y="885" type="curve" smooth="yes"/>
      <point x="349" y="885"/>
      <point x="301" y="918"/>
      <point x="301" y="979" type="curve" smooth="yes"/>
      <point x="301" y="986" type="line" smooth="yes"/>
      <point x="301" y="1049"/>
      <point x="349" y="1080"/>
      <point x="441" y="1080" type="curve" smooth="yes"/>
      <point x="534" y="1080"/>
      <point x="581" y="1049"/>
      <point x="581" y="986" type="curve" smooth="yes"/>
      <point x="581" y="979" type="line" smooth="yes"/>
      <point x="581" y="918"/>
      <point x="534" y="885"/>
    </contour>
  </outline>
</glyph>
<glyph name="Visarga.or" format="2">
  <advance width="1163"/>
  <unicode hex="0B03"/>
  <outline>
    <contour>
      <point x="576" y="-21" type="curve" smooth="yes"/>
      <point x="921" y="-21"/>
      <point x="1103" y="99"/>
      <point x="1103" y="326" type="curve" smooth="yes"/>
      <point x="1103" y="341" type="line" smooth="yes"/>
      <point x="1103" y="510"/>
      <point x="999" y="588"/>
      <point x="841" y="665" type="curve"/>
      <point x="582" y="794" type="line"/>
      <point x="482" y="823"/>
      <point x="423" y="883"/>
      <point x="423" y="960" type="curve" smooth="yes"/>
      <point x="423" y="969" type="line" smooth="yes"/>
      <point x="423" y="1039"/>
      <point x="483" y="1081"/>
      <point x="578" y="1081" type="curve" smooth="yes"/>
      <point x="681" y="1081"/>
      <point x="737" y="1033"/>
      <point x="737" y="957" type="curve" smooth="yes"/>
      <point x="737" y="948" type="line" smooth="yes"/>
      <point x="737" y="886"/>
      <point x="677" y="824"/>
      <point x="581" y="794" type="curve"/>
      <point x="326" y="660" type="line"/>
      <point x="165" y="607"/>
      <point x="60" y="490"/>
      <point x="60" y="341" type="curve" smooth="yes"/>
      <point x="60" y="326" type="line" smooth="yes"/>
      <point x="60" y="100"/>
      <point x="242" y="-21"/>
    </contour>
    <contour>
      <point x="584" y="252" type="curve" smooth="yes"/>
      <point x="481" y="252"/>
      <point x="419" y="299"/>
      <point x="419" y="376" type="curve" smooth="yes"/>
      <point x="419" y="385" type="line" smooth="yes"/>
      <point x="419" y="438"/>
      <point x="481" y="496"/>
      <point x="579" y="522" type="curve"/>
      <point x="841" y="665" type="line"/>
      <point x="971" y="728"/>
      <point x="1098" y="816"/>
      <point x="1098" y="984" type="curve" smooth="yes"/>
      <point x="1098" y="999" type="line" smooth="yes"/>
      <point x="1098" y="1229"/>
      <point x="919" y="1354"/>
      <point x="589" y="1354" type="curve" smooth="yes"/>
      <point x="252" y="1354"/>
      <point x="69" y="1229"/>
      <point x="69" y="999" type="curve" smooth="yes"/>
      <point x="69" y="984" type="line" smooth="yes"/>
      <point x="69" y="828"/>
      <point x="160" y="714"/>
      <point x="326" y="660" type="curve"/>
      <point x="579" y="522" type="line"/>
      <point x="677" y="493"/>
      <point x="747" y="441"/>
      <point x="747" y="376" type="curve" smooth="yes"/>
      <point x="747" y="367" type="line" smooth="yes"/>
      <point x="747" y="289"/>
      <point x="691" y="252"/>
    </contour>
  </outline>
</glyph>
<glyph name="VowelA.or" format="2">
  <advance width="2043"/>
  <unicode hex="0B05"/>
  <anchor x="1719" y="1400" name="top2"/>
  <outline>
    <contour>
      <point x="1560" y="0" type="line"/>
      <point x="1923" y="0" type="line"/>
      <point x="1923" y="1328" type="line"/>
      <point x="1560" y="1328" type="line"/>
      <point x="1560" y="374" type="line"/>
      <point x="1567" y="374" type="line"/>
    </contour>
    <contour>
      <point x="805" y="-34" type="curve" smooth="yes"/>
      <point x="1245" y="-34"/>
      <point x="1464" y="75"/>
      <point x="1553" y="278" type="curve"/>
      <point x="1599" y="278" type="line"/>
      <point x="1569" y="523" type="line"/>
      <point x="1444" y="373"/>
      <point x="1187" y="294"/>
      <point x="859" y="294" type="curve" smooth="yes"/>
      <point x="578" y="294"/>
      <point x="472" y="323"/>
      <point x="472" y="400" type="curve" smooth="yes"/>
      <point x="472" y="406" type="line" smooth="yes"/>
      <point x="472" y="461"/>
      <point x="514" y="480"/>
      <point x="615" y="493" type="curve" smooth="yes"/>
      <point x="927" y="532" type="line" smooth="yes"/>
      <point x="1271" y="575"/>
      <point x="1399" y="728"/>
      <point x="1399" y="972" type="curve" smooth="yes"/>
      <point x="1399" y="991" type="line" smooth="yes"/>
      <point x="1399" y="1231"/>
      <point x="1283" y="1353"/>
      <point x="1053" y="1353" type="curve" smooth="yes"/>
      <point x="882" y="1353"/>
      <point x="774" y="1284"/>
      <point x="740" y="1175" type="curve"/>
      <point x="733" y="1175" type="line"/>
      <point x="699" y="1284"/>
      <point x="603" y="1353"/>
      <point x="443" y="1353" type="curve" smooth="yes"/>
      <point x="212" y="1353"/>
      <point x="87" y="1246"/>
      <point x="87" y="1034" type="curve" smooth="yes"/>
      <point x="87" y="1025" type="line" smooth="yes"/>
      <point x="87" y="963"/>
      <point x="101" y="893"/>
      <point x="126" y="847" type="curve"/>
      <point x="455" y="829" type="line"/>
      <point x="434" y="881"/>
      <point x="421" y="933"/>
      <point x="421" y="983" type="curve" smooth="yes"/>
      <point x="421" y="991" type="line" smooth="yes"/>
      <point x="421" y="1053"/>
      <point x="446" y="1089"/>
      <point x="505" y="1089" type="curve" smooth="yes"/>
      <point x="562" y="1089"/>
      <point x="591" y="1055"/>
      <point x="591" y="991" type="curve" smooth="yes"/>
      <point x="591" y="890" type="line"/>
      <point x="882" y="890" type="line"/>
      <point x="882" y="991" type="line" smooth="yes"/>
      <point x="882" y="1055"/>
      <point x="911" y="1089"/>
      <point x="968" y="1089" type="curve" smooth="yes"/>
      <point x="1027" y="1089"/>
      <point x="1052" y="1052"/>
      <point x="1052" y="991" type="curve" smooth="yes"/>
      <point x="1052" y="981" type="line" smooth="yes"/>
      <point x="1052" y="883"/>
      <point x="1017" y="826"/>
      <point x="852" y="805" type="curve" smooth="yes"/>
      <point x="528" y="764" type="line" smooth="yes"/>
      <point x="208" y="723"/>
      <point x="70" y="620"/>
      <point x="70" y="401" type="curve" smooth="yes"/>
      <point x="70" y="383" type="line" smooth="yes"/>
      <point x="70" y="102"/>
      <point x="307" y="-34"/>
    </contour>
  </outline>
</glyph>
<glyph name="VowelI.or" format="2">
  <advance width="2287"/>
  <unicode hex="0B07"/>
  <anchor x="1699" y="1453" name="top2"/>
  <outline>
    <contour>
      <point x="2325" y="-263" type="line"/>
      <point x="2325" y="85" type="line"/>
      <point x="1956" y="182" type="line"/>
      <point x="2041" y="107" type="line"/>
      <point x="2141" y="199"/>
      <point x="2203" y="335"/>
      <point x="2203" y="520" type="curve" smooth="yes"/>
      <point x="2203" y="543" type="line" smooth="yes"/>
      <point x="2203" y="1072"/>
      <point x="1802" y="1376"/>
      <point x="1067" y="1376" type="curve" smooth="yes"/>
      <point x="414" y="1376"/>
      <point x="60" y="1154"/>
      <point x="60" y="749" type="curve" smooth="yes"/>
      <point x="60" y="726" type="line" smooth="yes"/>
      <point x="60" y="499"/>
      <point x="184" y="360"/>
      <point x="359" y="306" type="curve"/>
      <point x="529" y="602" type="line"/>
      <point x="474" y="625"/>
      <point x="448" y="661"/>
      <point x="448" y="728" type="curve" smooth="yes"/>
      <point x="448" y="740" type="line" smooth="yes"/>
      <point x="448" y="937"/>
      <point x="645" y="1052"/>
      <point x="1065" y="1052" type="curve" smooth="yes"/>
      <point x="1568" y="1052"/>
      <point x="1825" y="865"/>
      <point x="1825" y="475" type="curve" smooth="yes"/>
      <point x="1825" y="450" type="line" smooth="yes"/>
      <point x="1825" y="281"/>
      <point x="1766" y="132"/>
      <point x="1689" y="23" type="curve"/>
    </contour>
    <contour>
      <point x="736" y="233" type="curve" smooth="yes"/>
      <point x="681" y="233"/>
      <point x="649" y="274"/>
      <point x="649" y="351" type="curve" smooth="yes"/>
      <point x="649" y="361" type="line" smooth="yes"/>
      <point x="649" y="440"/>
      <point x="681" y="479"/>
      <point x="736" y="479" type="curve" smooth="yes"/>
      <point x="791" y="479"/>
      <point x="823" y="440"/>
      <point x="823" y="361" type="curve" smooth="yes"/>
      <point x="823" y="351" type="line" smooth="yes"/>
      <point x="823" y="274"/>
      <point x="791" y="233"/>
    </contour>
    <contour>
      <point x="688" y="-34" type="curve" smooth="yes"/>
      <point x="847" y="-34"/>
      <point x="941" y="36"/>
      <point x="981" y="132" type="curve"/>
      <point x="988" y="132" type="line"/>
      <point x="1031" y="36"/>
      <point x="1132" y="-34"/>
      <point x="1289" y="-34" type="curve" smooth="yes"/>
      <point x="1535" y="-34"/>
      <point x="1666" y="103"/>
      <point x="1666" y="345" type="curve" smooth="yes"/>
      <point x="1666" y="361" type="line" smooth="yes"/>
      <point x="1666" y="609"/>
      <point x="1534" y="746"/>
      <point x="1294" y="746" type="curve" smooth="yes"/>
      <point x="1133" y="746"/>
      <point x="1029" y="676"/>
      <point x="988" y="575" type="curve"/>
      <point x="981" y="575" type="line"/>
      <point x="943" y="682"/>
      <point x="854" y="746"/>
      <point x="713" y="746" type="curve" smooth="yes"/>
      <point x="562" y="746"/>
      <point x="460" y="675"/>
      <point x="423" y="559" type="curve"/>
      <point x="357" y="514" type="line"/>
      <point x="339" y="481"/>
      <point x="303" y="417"/>
      <point x="303" y="361" type="curve" smooth="yes"/>
      <point x="303" y="340" type="line" smooth="yes"/>
      <point x="303" y="102"/>
      <point x="436" y="-34"/>
    </contour>
    <contour>
      <point x="1232" y="233" type="curve" smooth="yes"/>
      <point x="1177" y="233"/>
      <point x="1145" y="274"/>
      <point x="1145" y="351" type="curve" smooth="yes"/>
      <point x="1145" y="361" type="line" smooth="yes"/>
      <point x="1145" y="440"/>
      <point x="1177" y="479"/>
      <point x="1232" y="479" type="curve" smooth="yes"/>
      <point x="1287" y="479"/>
      <point x="1319" y="440"/>
      <point x="1319" y="361" type="curve" smooth="yes"/>
      <point x="1319" y="351" type="line" smooth="yes"/>
      <point x="1319" y="274"/>
      <point x="1287" y="233"/>
    </contour>
  </outline>
</glyph>
<glyph name="VowelIi.or" format="2">
  <advance width="2272"/>
  <unicode hex="0B08"/>
  <anchor x="1771" y="1400" name="top2"/>
  <outline>
    <contour>
      <point x="2310" y="-263" type="line"/>
      <point x="2310" y="85" type="line"/>
      <point x="1941" y="182" type="line"/>
      <point x="2026" y="107" type="line"/>
      <point x="2126" y="200"/>
      <point x="2188" y="338"/>
      <point x="2188" y="525" type="curve" smooth="yes"/>
      <point x="2188" y="548" type="line" smooth="yes"/>
      <point x="2188" y="1056"/>
      <point x="1824" y="1376"/>
      <point x="1164" y="1376" type="curve" smooth="yes"/>
      <point x="717" y="1376"/>
      <point x="432" y="1205"/>
      <point x="399" y="977" type="curve"/>
      <point x="399" y="947"/>
      <point x="399" y="917"/>
      <point x="399" y="886" type="curve"/>
      <point x="768" y="856" type="line"/>
      <point x="768" y="879"/>
      <point x="768" y="901"/>
      <point x="768" y="924" type="curve"/>
      <point x="808" y="1015"/>
      <point x="920" y="1061"/>
      <point x="1134" y="1061" type="curve" smooth="yes"/>
      <point x="1582" y="1061"/>
      <point x="1810" y="854"/>
      <point x="1810" y="481" type="curve" smooth="yes"/>
      <point x="1810" y="456" type="line" smooth="yes"/>
      <point x="1810" y="285"/>
      <point x="1751" y="133"/>
      <point x="1674" y="23" type="curve"/>
    </contour>
    <contour>
      <point x="721" y="223" type="curve" smooth="yes"/>
      <point x="666" y="223"/>
      <point x="634" y="262"/>
      <point x="634" y="333" type="curve" smooth="yes"/>
      <point x="634" y="344" type="line" smooth="yes"/>
      <point x="634" y="417"/>
      <point x="666" y="454"/>
      <point x="721" y="454" type="curve" smooth="yes"/>
      <point x="776" y="454"/>
      <point x="808" y="417"/>
      <point x="808" y="344" type="curve" smooth="yes"/>
      <point x="808" y="333" type="line" smooth="yes"/>
      <point x="808" y="262"/>
      <point x="776" y="223"/>
    </contour>
    <contour>
      <point x="673" y="-36" type="curve" smooth="yes"/>
      <point x="836" y="-36"/>
      <point x="926" y="34"/>
      <point x="967" y="130" type="curve"/>
      <point x="974" y="130" type="line"/>
      <point x="1016" y="34"/>
      <point x="1116" y="-36"/>
      <point x="1275" y="-36" type="curve" smooth="yes"/>
      <point x="1521" y="-36"/>
      <point x="1652" y="96"/>
      <point x="1652" y="328" type="curve" smooth="yes"/>
      <point x="1652" y="344" type="line" smooth="yes"/>
      <point x="1652" y="579"/>
      <point x="1520" y="710"/>
      <point x="1280" y="710" type="curve" smooth="yes"/>
      <point x="1116" y="710"/>
      <point x="1014" y="641"/>
      <point x="974" y="539" type="curve"/>
      <point x="967" y="539" type="line"/>
      <point x="929" y="646"/>
      <point x="840" y="710"/>
      <point x="698" y="710" type="curve" smooth="yes"/>
      <point x="546" y="710"/>
      <point x="450" y="644"/>
      <point x="401" y="534" type="curve"/>
      <point x="342" y="497" type="line"/>
      <point x="325" y="463"/>
      <point x="289" y="399"/>
      <point x="289" y="344" type="curve" smooth="yes"/>
      <point x="289" y="322" type="line" smooth="yes"/>
      <point x="289" y="94"/>
      <point x="422" y="-36"/>
    </contour>
    <contour>
      <point x="351" y="285" type="curve"/>
      <point x="504" y="543" type="line"/>
      <point x="437" y="558"/>
      <point x="396" y="589"/>
      <point x="396" y="646" type="curve" smooth="yes"/>
      <point x="396" y="651" type="line" smooth="yes"/>
      <point x="396" y="753"/>
      <point x="474" y="794"/>
      <point x="656" y="794" type="curve" smooth="yes"/>
      <point x="670" y="794" type="line" smooth="yes"/>
      <point x="817" y="794"/>
      <point x="924" y="755"/>
      <point x="1000" y="716" type="curve"/>
      <point x="975" y="967" type="line"/>
      <point x="927" y="987"/>
      <point x="878" y="999"/>
      <point x="779" y="1016" type="curve"/>
      <point x="586" y="1056" type="line"/>
      <point x="248" y="1056"/>
      <point x="40" y="920"/>
      <point x="40" y="645" type="curve" smooth="yes"/>
      <point x="40" y="635" type="line" smooth="yes"/>
      <point x="40" y="435"/>
      <point x="193" y="316"/>
    </contour>
    <contour>
      <point x="1218" y="223" type="curve" smooth="yes"/>
      <point x="1163" y="223"/>
      <point x="1131" y="262"/>
      <point x="1131" y="333" type="curve" smooth="yes"/>
      <point x="1131" y="344" type="line" smooth="yes"/>
      <point x="1131" y="417"/>
      <point x="1163" y="454"/>
      <point x="1218" y="454" type="curve" smooth="yes"/>
      <point x="1273" y="454"/>
      <point x="1305" y="417"/>
      <point x="1305" y="344" type="curve" smooth="yes"/>
      <point x="1305" y="333" type="line" smooth="yes"/>
      <point x="1305" y="262"/>
      <point x="1273" y="223"/>
    </contour>
  </outline>
</glyph>
<glyph name="VowelU.or" format="2">
  <advance width="2223"/>
  <unicode hex="0B09"/>
  <anchor x="1701" y="1400" name="top2"/>
  <outline>
    <contour>
      <point x="2256" y="-258" type="line"/>
      <point x="2256" y="88" type="line"/>
      <point x="1898" y="182" type="line"/>
      <point x="1965" y="107" type="line"/>
      <point x="2073" y="205"/>
      <point x="2139" y="354"/>
      <point x="2139" y="539" type="curve" smooth="yes"/>
      <point x="2139" y="562" type="line" smooth="yes"/>
      <point x="2139" y="1072"/>
      <point x="1752" y="1376"/>
      <point x="1034" y="1376" type="curve" smooth="yes"/>
      <point x="398" y="1376"/>
      <point x="60" y="1163"/>
      <point x="60" y="766" type="curve" smooth="yes"/>
      <point x="60" y="739" type="line" smooth="yes"/>
      <point x="60" y="495"/>
      <point x="193" y="325"/>
      <point x="467" y="260" type="curve"/>
      <point x="563" y="562" type="line"/>
      <point x="489" y="592"/>
      <point x="448" y="652"/>
      <point x="448" y="743" type="curve" smooth="yes"/>
      <point x="448" y="759" type="line" smooth="yes"/>
      <point x="448" y="944"/>
      <point x="632" y="1052"/>
      <point x="1030" y="1052" type="curve" smooth="yes"/>
      <point x="1525" y="1052"/>
      <point x="1761" y="867"/>
      <point x="1761" y="497" type="curve" smooth="yes"/>
      <point x="1761" y="472" type="line" smooth="yes"/>
      <point x="1761" y="297"/>
      <point x="1697" y="139"/>
      <point x="1606" y="23" type="curve"/>
    </contour>
    <contour>
      <point x="952" y="-34" type="curve" smooth="yes"/>
      <point x="1319" y="-34"/>
      <point x="1529" y="77"/>
      <point x="1529" y="265" type="curve" smooth="yes"/>
      <point x="1529" y="274" type="line" smooth="yes"/>
      <point x="1529" y="388"/>
      <point x="1472" y="445"/>
      <point x="1337" y="452" type="curve"/>
      <point x="1337" y="482" type="line"/>
      <point x="1153" y="420" type="line"/>
      <point x="1180" y="408"/>
      <point x="1191" y="383"/>
      <point x="1191" y="354" type="curve" smooth="yes"/>
      <point x="1191" y="349" type="line" smooth="yes"/>
      <point x="1191" y="274"/>
      <point x="1114" y="233"/>
      <point x="971" y="233" type="curve" smooth="yes"/>
      <point x="820" y="233"/>
      <point x="747" y="281"/>
      <point x="747" y="370" type="curve" smooth="yes"/>
      <point x="747" y="381" type="line" smooth="yes"/>
      <point x="747" y="445"/>
      <point x="786" y="484"/>
      <point x="866" y="502" type="curve"/>
      <point x="866" y="780" type="line"/>
      <point x="699" y="762"/>
      <point x="521" y="684"/>
      <point x="457" y="532" type="curve"/>
      <point x="426" y="511" type="line"/>
      <point x="407" y="475"/>
      <point x="391" y="434"/>
      <point x="391" y="388" type="curve" smooth="yes"/>
      <point x="391" y="370" type="line" smooth="yes"/>
      <point x="391" y="109"/>
      <point x="586" y="-34"/>
    </contour>
    <contour>
      <point x="956" y="338" type="line"/>
      <point x="1223" y="425" type="line"/>
      <point x="1306" y="452" type="line"/>
      <point x="1519" y="522" type="line"/>
      <point x="1519" y="796" type="line"/>
      <point x="956" y="618" type="line"/>
    </contour>
  </outline>
</glyph>
<glyph name="VowelUu.or" format="2">
  <advance width="2233"/>
  <unicode hex="0B0A"/>
  <anchor x="1740" y="1400" name="top2"/>
  <outline>
    <contour>
      <point x="2243" y="-262" type="line"/>
      <point x="2243" y="74" type="line"/>
      <point x="1908" y="136" type="line"/>
      <point x="1865" y="95" type="line"/>
      <point x="1922" y="101" type="line" smooth="yes"/>
      <point x="2100" y="117"/>
      <point x="2193" y="191"/>
      <point x="2193" y="337" type="curve" smooth="yes"/>
      <point x="2193" y="347" type="line" smooth="yes"/>
      <point x="2193" y="491"/>
      <point x="2099" y="566"/>
      <point x="1981" y="589" type="curve"/>
      <point x="2006" y="537" type="line"/>
      <point x="2097" y="587"/>
      <point x="2121" y="682"/>
      <point x="2121" y="781" type="curve" smooth="yes"/>
      <point x="2121" y="801" type="line" smooth="yes"/>
      <point x="2121" y="1150"/>
      <point x="1712" y="1376"/>
      <point x="1057" y="1376" type="curve" smooth="yes"/>
      <point x="413" y="1376"/>
      <point x="60" y="1175"/>
      <point x="60" y="781" type="curve" smooth="yes"/>
      <point x="60" y="755" type="line" smooth="yes"/>
      <point x="60" y="518"/>
      <point x="200" y="351"/>
      <point x="480" y="297" type="curve"/>
      <point x="563" y="602" type="line"/>
      <point x="489" y="627"/>
      <point x="448" y="687"/>
      <point x="448" y="764" type="curve" smooth="yes"/>
      <point x="448" y="780" type="line" smooth="yes"/>
      <point x="448" y="959"/>
      <point x="640" y="1052"/>
      <point x="1051" y="1052" type="curve" smooth="yes"/>
      <point x="1504" y="1052"/>
      <point x="1744" y="942"/>
      <point x="1744" y="735" type="curve" smooth="yes"/>
      <point x="1744" y="723" type="line" smooth="yes"/>
      <point x="1744" y="651"/>
      <point x="1717" y="609"/>
      <point x="1652" y="603" type="curve" smooth="yes"/>
      <point x="1632" y="601" type="line"/>
      <point x="1632" y="380" type="line"/>
      <point x="1728" y="378" type="line" smooth="yes"/>
      <point x="1825" y="376"/>
      <point x="1858" y="344"/>
      <point x="1858" y="292" type="curve" smooth="yes"/>
      <point x="1858" y="289" type="line" smooth="yes"/>
      <point x="1858" y="235"/>
      <point x="1822" y="204"/>
      <point x="1728" y="201" type="curve" smooth="yes"/>
      <point x="1626" y="198" type="line"/>
      <point x="1626" y="-15" type="line"/>
    </contour>
    <contour>
      <point x="912" y="-34" type="curve" smooth="yes"/>
      <point x="1279" y="-34"/>
      <point x="1489" y="77"/>
      <point x="1489" y="265" type="curve" smooth="yes"/>
      <point x="1489" y="274" type="line" smooth="yes"/>
      <point x="1489" y="388"/>
      <point x="1432" y="445"/>
      <point x="1297" y="452" type="curve"/>
      <point x="1297" y="482" type="line"/>
      <point x="1113" y="420" type="line"/>
      <point x="1140" y="408"/>
      <point x="1151" y="383"/>
      <point x="1151" y="354" type="curve" smooth="yes"/>
      <point x="1151" y="349" type="line" smooth="yes"/>
      <point x="1151" y="274"/>
      <point x="1074" y="233"/>
      <point x="931" y="233" type="curve" smooth="yes"/>
      <point x="780" y="233"/>
      <point x="707" y="281"/>
      <point x="707" y="370" type="curve" smooth="yes"/>
      <point x="707" y="381" type="line" smooth="yes"/>
      <point x="707" y="445"/>
      <point x="746" y="484"/>
      <point x="826" y="502" type="curve"/>
      <point x="826" y="780" type="line"/>
      <point x="659" y="762"/>
      <point x="481" y="684"/>
      <point x="417" y="532" type="curve"/>
      <point x="386" y="511" type="line"/>
      <point x="367" y="475"/>
      <point x="351" y="434"/>
      <point x="351" y="388" type="curve" smooth="yes"/>
      <point x="351" y="370" type="line" smooth="yes"/>
      <point x="351" y="109"/>
      <point x="546" y="-34"/>
    </contour>
    <contour>
      <point x="916" y="338" type="line"/>
      <point x="1183" y="425" type="line"/>
      <point x="1266" y="452" type="line"/>
      <point x="1479" y="522" type="line"/>
      <point x="1479" y="796" type="line"/>
      <point x="916" y="618" type="line"/>
    </contour>
  </outline>
</glyph>
<glyph name="VowelVocalicR.or" format="2">
  <advance width="2186"/>
  <unicode hex="0B0B"/>
  <anchor x="1036" y="1876" name="top1"/>
  <anchor x="1705" y="1400" name="top2"/>
  <outline>
    <contour>
      <point x="2196" y="-262" type="line"/>
      <point x="2196" y="74" type="line"/>
      <point x="1861" y="136" type="line"/>
      <point x="1818" y="95" type="line"/>
      <point x="1875" y="101" type="line"/>
      <point x="2053" y="117"/>
      <point x="2146" y="191"/>
      <point x="2146" y="337" type="curve" smooth="yes"/>
      <point x="2146" y="347" type="line" smooth="yes"/>
      <point x="2146" y="491"/>
      <point x="2052" y="566"/>
      <point x="1934" y="589" type="curve"/>
      <point x="1959" y="537" type="line"/>
      <point x="2050" y="587"/>
      <point x="2074" y="682"/>
      <point x="2074" y="781" type="curve" smooth="yes"/>
      <point x="2074" y="801" type="line" smooth="yes"/>
      <point x="2074" y="1150"/>
      <point x="1675" y="1376"/>
      <point x="1036" y="1376" type="curve" smooth="yes"/>
      <point x="406" y="1376"/>
      <point x="60" y="1175"/>
      <point x="60" y="781" type="curve" smooth="yes"/>
      <point x="60" y="755" type="line" smooth="yes"/>
      <point x="60" y="518"/>
      <point x="200" y="351"/>
      <point x="480" y="297" type="curve"/>
      <point x="563" y="602" type="line"/>
      <point x="489" y="627"/>
      <point x="448" y="687"/>
      <point x="448" y="764" type="curve" smooth="yes"/>
      <point x="448" y="780" type="line" smooth="yes"/>
      <point x="448" y="959"/>
      <point x="633" y="1052"/>
      <point x="1030" y="1052" type="curve" smooth="yes"/>
      <point x="1468" y="1052"/>
      <point x="1697" y="942"/>
      <point x="1697" y="735" type="curve" smooth="yes"/>
      <point x="1697" y="723" type="line" smooth="yes"/>
      <point x="1697" y="651"/>
      <point x="1670" y="609"/>
      <point x="1605" y="603" type="curve" smooth="yes"/>
      <point x="1585" y="601" type="line"/>
      <point x="1585" y="380" type="line"/>
      <point x="1681" y="378" type="line" smooth="yes"/>
      <point x="1778" y="376"/>
      <point x="1811" y="344"/>
      <point x="1811" y="292" type="curve" smooth="yes"/>
      <point x="1811" y="289" type="line" smooth="yes"/>
      <point x="1811" y="235"/>
      <point x="1775" y="204"/>
      <point x="1681" y="201" type="curve" smooth="yes"/>
      <point x="1579" y="198" type="line"/>
      <point x="1579" y="-15" type="line"/>
    </contour>
    <contour>
      <point x="917" y="-34" type="curve" smooth="yes"/>
      <point x="1267" y="-34"/>
      <point x="1453" y="101"/>
      <point x="1453" y="347" type="curve" smooth="yes"/>
      <point x="1453" y="361" type="line" smooth="yes"/>
      <point x="1453" y="609"/>
      <point x="1269" y="744"/>
      <point x="922" y="744" type="curve" smooth="yes"/>
      <point x="664" y="744"/>
      <point x="502" y="662"/>
      <point x="438" y="511" type="curve"/>
      <point x="413" y="489" type="line"/>
      <point x="395" y="454"/>
      <point x="381" y="411"/>
      <point x="381" y="365" type="curve" smooth="yes"/>
      <point x="381" y="347" type="line" smooth="yes"/>
      <point x="381" y="101"/>
      <point x="568" y="-34"/>
    </contour>
    <contour>
      <point x="917" y="233" type="curve" smooth="yes"/>
      <point x="798" y="233"/>
      <point x="737" y="273"/>
      <point x="737" y="351" type="curve" smooth="yes"/>
      <point x="737" y="360" type="line" smooth="yes"/>
      <point x="737" y="438"/>
      <point x="798" y="477"/>
      <point x="917" y="477" type="curve" smooth="yes"/>
      <point x="1036" y="477"/>
      <point x="1097" y="438"/>
      <point x="1097" y="360" type="curve" smooth="yes"/>
      <point x="1097" y="351" type="line" smooth="yes"/>
      <point x="1097" y="273"/>
      <point x="1036" y="233"/>
    </contour>
  </outline>
</glyph>
<glyph name="VowelVocalicL.or" format="2">
  <advance width="1785"/>
  <unicode hex="0B0C"/>
  <anchor x="1390" y="1400" name="top2"/>
  <outline>
    <contour>
      <point x="917" y="-34" type="curve" smooth="yes"/>
      <point x="1469" y="-34"/>
      <point x="1735" y="118"/>
      <point x="1735" y="375" type="curve" smooth="yes"/>
      <point x="1735" y="384" type="line" smooth="yes"/>
      <point x="1735" y="594"/>
      <point x="1592" y="712"/>
      <point x="1260" y="712" type="curve" smooth="yes"/>
      <point x="965" y="712"/>
      <point x="764" y="615"/>
      <point x="764" y="435" type="curve" smooth="yes"/>
      <point x="764" y="427" type="line" smooth="yes"/>
      <point x="764" y="326"/>
      <point x="833" y="249"/>
      <point x="962" y="214" type="curve"/>
      <point x="1209" y="256" type="line"/>
      <point x="1145" y="272"/>
      <point x="1093" y="311"/>
      <point x="1093" y="368" type="curve" smooth="yes"/>
      <point x="1093" y="374" type="line" smooth="yes"/>
      <point x="1093" y="437"/>
      <point x="1145" y="472"/>
      <point x="1243" y="472" type="curve" smooth="yes"/>
      <point x="1343" y="472"/>
      <point x="1390" y="440"/>
      <point x="1390" y="379" type="curve" smooth="yes"/>
      <point x="1390" y="374" type="line" smooth="yes"/>
      <point x="1390" y="305"/>
      <point x="1290" y="258"/>
      <point x="1147" y="260" type="curve"/>
      <point x="1026" y="249" type="line"/>
      <point x="993" y="249"/>
      <point x="952" y="250"/>
      <point x="927" y="250" type="curve"/>
      <point x="567" y="257"/>
      <point x="442" y="314"/>
      <point x="442" y="431" type="curve" smooth="yes"/>
      <point x="442" y="436" type="line" smooth="yes"/>
      <point x="442" y="509"/>
      <point x="508" y="538"/>
      <point x="643" y="573" type="curve" smooth="yes"/>
      <point x="983" y="662" type="line" smooth="yes"/>
      <point x="1308" y="747"/>
      <point x="1416" y="833"/>
      <point x="1416" y="1024" type="curve" smooth="yes"/>
      <point x="1416" y="1040" type="line" smooth="yes"/>
      <point x="1416" y="1253"/>
      <point x="1241" y="1380"/>
      <point x="897" y="1380" type="curve" smooth="yes"/>
      <point x="574" y="1380"/>
      <point x="382" y="1276"/>
      <point x="382" y="1073" type="curve" smooth="yes"/>
      <point x="382" y="1064" type="line" smooth="yes"/>
      <point x="382" y="1021"/>
      <point x="398" y="973"/>
      <point x="422" y="943" type="curve"/>
      <point x="749" y="926" type="line"/>
      <point x="727" y="952"/>
      <point x="715" y="976"/>
      <point x="715" y="1007" type="curve" smooth="yes"/>
      <point x="715" y="1011" type="line" smooth="yes"/>
      <point x="715" y="1077"/>
      <point x="774" y="1114"/>
      <point x="884" y="1114" type="curve" smooth="yes"/>
      <point x="1002" y="1114"/>
      <point x="1053" y="1082"/>
      <point x="1053" y="1022" type="curve" smooth="yes"/>
      <point x="1053" y="1018" type="line" smooth="yes"/>
      <point x="1053" y="971"/>
      <point x="1019" y="941"/>
      <point x="903" y="915" type="curve" smooth="yes"/>
      <point x="572" y="840" type="line" smooth="yes"/>
      <point x="243" y="765"/>
      <point x="60" y="662"/>
      <point x="60" y="429" type="curve" smooth="yes"/>
      <point x="60" y="411" type="line" smooth="yes"/>
      <point x="60" y="109"/>
      <point x="366" y="-34"/>
    </contour>
  </outline>
</glyph>
<glyph name="VowelE.or" format="2">
  <advance width="1786"/>
  <unicode hex="0B0F"/>
  <anchor x="1462" y="1400" name="top2"/>
  <outline>
    <contour>
      <point x="1099" y="0" type="line"/>
      <point x="1666" y="0" type="line"/>
      <point x="1666" y="1328" type="line"/>
      <point x="1135" y="1328" type="line"/>
      <point x="598" y="816" type="line"/>
      <point x="1061" y="816" type="line"/>
      <point x="1305" y="1078" type="line"/>
      <point x="1321" y="1078" type="line"/>
      <point x="1314" y="953"/>
      <point x="1312" y="870"/>
      <point x="1312" y="738" type="curve" smooth="yes"/>
      <point x="1312" y="270" type="line"/>
      <point x="1290" y="270" type="line"/>
      <point x="15" y="1168" type="line"/>
      <point x="15" y="754" type="line"/>
    </contour>
  </outline>
</glyph>
<glyph name="VowelAi.or" format="2">
  <advance width="2391"/>
  <unicode hex="0B10"/>
  <anchor x="2401" y="1590" name="top2"/>
  <outline>
    <contour>
      <point x="1908" y="0" type="line"/>
      <point x="2271" y="0" type="line"/>
      <point x="2271" y="1313" type="line" smooth="yes"/>
      <point x="2271" y="1648"/>
      <point x="2116" y="1772"/>
      <point x="1753" y="1779" type="curve" smooth="yes"/>
      <point x="1175" y="1791" type="line" smooth="yes"/>
      <point x="1051" y="1794"/>
      <point x="993" y="1833"/>
      <point x="988" y="1924" type="curve" smooth="yes"/>
      <point x="986" y="1964" type="line"/>
      <point x="645" y="1964" type="line"/>
      <point x="645" y="1914" type="line" smooth="yes"/>
      <point x="645" y="1639"/>
      <point x="792" y="1514"/>
      <point x="1140" y="1507" type="curve" smooth="yes"/>
      <point x="1715" y="1496" type="line" smooth="yes"/>
      <point x="1869" y="1493"/>
      <point x="1908" y="1428"/>
      <point x="1908" y="1291" type="curve" smooth="yes"/>
    </contour>
    <contour>
      <point x="1616" y="571" type="line"/>
      <point x="1965" y="571" type="line"/>
      <point x="1965" y="849" type="line"/>
      <point x="1616" y="849" type="line"/>
    </contour>
    <component base="VowelE.or"/>
  </outline>
</glyph>
<glyph name="VowelO.or" format="2">
  <advance width="1851"/>
  <unicode hex="0B13"/>
  <anchor x="1600" y="1400" name="top2"/>
  <outline>
    <contour>
      <point x="1021" y="-28" type="curve" smooth="yes"/>
      <point x="1518" y="-28"/>
      <point x="1796" y="130"/>
      <point x="1796" y="414" type="curve" smooth="yes"/>
      <point x="1796" y="427" type="line" smooth="yes"/>
      <point x="1796" y="572"/>
      <point x="1710" y="677"/>
      <point x="1553" y="716" type="curve"/>
      <point x="1301" y="564" type="line"/>
      <point x="1362" y="554"/>
      <point x="1404" y="519"/>
      <point x="1404" y="464" type="curve" smooth="yes"/>
      <point x="1404" y="459" type="line" smooth="yes"/>
      <point x="1404" y="362"/>
      <point x="1282" y="299"/>
      <point x="1023" y="299" type="curve" smooth="yes"/>
      <point x="637" y="299"/>
      <point x="453" y="481"/>
      <point x="453" y="785" type="curve" smooth="yes"/>
      <point x="453" y="805" type="line" smooth="yes"/>
      <point x="453" y="985"/>
      <point x="518" y="1154"/>
      <point x="614" y="1328" type="curve"/>
      <point x="242" y="1328" type="line"/>
      <point x="142" y="1162"/>
      <point x="80" y="966"/>
      <point x="80" y="773" type="curve" smooth="yes"/>
      <point x="80" y="751" type="line" smooth="yes"/>
      <point x="80" y="240"/>
      <point x="407" y="-28"/>
    </contour>
    <contour>
      <point x="1002" y="520" type="line"/>
      <point x="1110" y="520" type="line" smooth="yes"/>
      <point x="1231" y="520"/>
      <point x="1352" y="540"/>
      <point x="1429" y="565" type="curve"/>
      <point x="1568" y="661" type="line"/>
      <point x="1689" y="731"/>
      <point x="1751" y="826"/>
      <point x="1751" y="957" type="curve" smooth="yes"/>
      <point x="1751" y="971" type="line" smooth="yes"/>
      <point x="1751" y="1237"/>
      <point x="1564" y="1380"/>
      <point x="1204" y="1380" type="curve" smooth="yes"/>
      <point x="864" y="1380"/>
      <point x="677" y="1253"/>
      <point x="677" y="1031" type="curve" smooth="yes"/>
      <point x="677" y="1024" type="line" smooth="yes"/>
      <point x="677" y="977"/>
      <point x="689" y="926"/>
      <point x="705" y="895" type="curve"/>
      <point x="1038" y="881" type="line"/>
      <point x="1026" y="907"/>
      <point x="1015" y="935"/>
      <point x="1015" y="968" type="curve" smooth="yes"/>
      <point x="1015" y="975" type="line" smooth="yes"/>
      <point x="1015" y="1061"/>
      <point x="1079" y="1109"/>
      <point x="1201" y="1109" type="curve" smooth="yes"/>
      <point x="1324" y="1109"/>
      <point x="1388" y="1057"/>
      <point x="1388" y="960" type="curve" smooth="yes"/>
      <point x="1388" y="950" type="line" smooth="yes"/>
      <point x="1388" y="849"/>
      <point x="1300" y="791"/>
      <point x="1113" y="790" type="curve" smooth="yes"/>
      <point x="1002" y="789" type="line"/>
    </contour>
  </outline>
</glyph>
<glyph name="VowelAu.or" format="2">
  <advance width="2445"/>
  <unicode hex="0B14"/>
  <anchor x="2455" y="1590" name="top2"/>
  <outline>
    <contour>
      <point x="1962" y="0" type="line"/>
      <point x="2325" y="0" type="line"/>
      <point x="2325" y="1313" type="line" smooth="yes"/>
      <point x="2325" y="1648"/>
      <point x="2170" y="1771"/>
      <point x="1807" y="1779" type="curve" smooth="yes"/>
      <point x="1229" y="1791" type="line" smooth="yes"/>
      <point x="1105" y="1794"/>
      <point x="1047" y="1833"/>
      <point x="1042" y="1924" type="curve" smooth="yes"/>
      <point x="1040" y="1964" type="line"/>
      <point x="699" y="1964" type="line"/>
      <point x="699" y="1914" type="line" smooth="yes"/>
      <point x="699" y="1639"/>
      <point x="846" y="1514"/>
      <point x="1194" y="1507" type="curve" smooth="yes"/>
      <point x="1769" y="1496" type="line" smooth="yes"/>
      <point x="1923" y="1493"/>
      <point x="1962" y="1428"/>
      <point x="1962" y="1291" type="curve" smooth="yes"/>
    </contour>
    <contour>
      <point x="1655" y="346" type="line"/>
      <point x="2004" y="346" type="line"/>
      <point x="2004" y="624" type="line"/>
      <point x="1655" y="624" type="line"/>
    </contour>
    <component base="VowelO.or"/>
  </outline>
</glyph>
<glyph name="Kha.or" format="2">
  <advance width="2161"/>
  <unicode hex="0B16"/>
  <anchor x="2041" y="106" name="bottom"/>
  <anchor x="1062" y="106" name="nukta"/>
  <anchor x="1062" y="1876" name="top1"/>
  <anchor x="1837" y="1400" name="top2"/>
  <outline>
    <contour>
      <point x="484" y="295" type="curve"/>
      <point x="569" y="602" type="line"/>
      <point x="492" y="630"/>
      <point x="448" y="689"/>
      <point x="448" y="783" type="curve" smooth="yes"/>
      <point x="448" y="799" type="line" smooth="yes"/>
      <point x="448" y="966"/>
      <point x="593" y="1060"/>
      <point x="892" y="1060" type="curve" smooth="yes"/>
      <point x="974" y="1060"/>
      <point x="1053" y="1049"/>
      <point x="1114" y="1033" type="curve"/>
      <point x="1073" y="1303" type="line"/>
      <point x="1046" y="1273"/>
      <point x="1016" y="1210"/>
      <point x="1016" y="1132" type="curve" smooth="yes"/>
      <point x="1016" y="1120" type="line" smooth="yes"/>
      <point x="1016" y="901"/>
      <point x="1156" y="774"/>
      <point x="1394" y="774" type="curve" smooth="yes"/>
      <point x="1555" y="774"/>
      <point x="1633" y="825"/>
      <point x="1670" y="870" type="curve"/>
      <point x="1726" y="870" type="line"/>
      <point x="1687" y="1115" type="line"/>
      <point x="1665" y="1079"/>
      <point x="1608" y="1048"/>
      <point x="1529" y="1048" type="curve" smooth="yes"/>
      <point x="1420" y="1048"/>
      <point x="1362" y="1097"/>
      <point x="1362" y="1198" type="curve" smooth="yes"/>
      <point x="1362" y="1204" type="line" smooth="yes"/>
      <point x="1362" y="1235"/>
      <point x="1371" y="1271"/>
      <point x="1383" y="1308" type="curve"/>
      <point x="1266" y="1342"/>
      <point x="1090" y="1376"/>
      <point x="869" y="1376" type="curve" smooth="yes"/>
      <point x="362" y="1376"/>
      <point x="60" y="1175"/>
      <point x="60" y="803" type="curve" smooth="yes"/>
      <point x="60" y="776" type="line" smooth="yes"/>
      <point x="60" y="532"/>
      <point x="199" y="361"/>
    </contour>
    <contour>
      <point x="977" y="-34" type="curve" smooth="yes"/>
      <point x="1328" y="-34"/>
      <point x="1513" y="101"/>
      <point x="1513" y="345" type="curve" smooth="yes"/>
      <point x="1513" y="360" type="line" smooth="yes"/>
      <point x="1513" y="607"/>
      <point x="1329" y="740"/>
      <point x="982" y="740" type="curve" smooth="yes"/>
      <point x="724" y="740"/>
      <point x="562" y="659"/>
      <point x="498" y="509" type="curve"/>
      <point x="473" y="488" type="line"/>
      <point x="455" y="452"/>
      <point x="441" y="409"/>
      <point x="441" y="363" type="curve"/>
      <point x="441" y="345" type="line"/>
      <point x="441" y="101"/>
      <point x="628" y="-34"/>
    </contour>
    <contour>
      <point x="977" y="233" type="curve" smooth="yes"/>
      <point x="858" y="233"/>
      <point x="797" y="272"/>
      <point x="797" y="349" type="curve" smooth="yes"/>
      <point x="797" y="358" type="line" smooth="yes"/>
      <point x="797" y="436"/>
      <point x="858" y="473"/>
      <point x="977" y="473" type="curve" smooth="yes"/>
      <point x="1096" y="473"/>
      <point x="1157" y="436"/>
      <point x="1157" y="358" type="curve" smooth="yes"/>
      <point x="1157" y="349" type="line" smooth="yes"/>
      <point x="1157" y="272"/>
      <point x="1096" y="233"/>
    </contour>
    <contour>
      <point x="1678" y="0" type="line"/>
      <point x="2041" y="0" type="line"/>
      <point x="2041" y="1328" type="line"/>
      <point x="1682" y="1328" type="line"/>
      <point x="1682" y="1111" type="line"/>
      <point x="1682" y="1048" type="line"/>
      <point x="1678" y="674" type="line"/>
    </contour>
  </outline>
</glyph>
<glyph name="Gha.or" format="2">
  <advance width="2102"/>
  <unicode hex="0B18"/>
  <anchor x="1982" y="106" name="bottom"/>
  <anchor x="1098" y="106" name="nukta"/>
  <anchor x="2493" y="36" name="rasmall"/>
  <anchor x="998" y="1876" name="top1"/>
  <anchor x="1778" y="1400" name="top2"/>
  <outline>
    <contour>
      <point x="418" y="376" type="curve"/>
      <point x="530" y="675" type="line"/>
      <point x="477" y="695"/>
      <point x="448" y="736"/>
      <point x="448" y="796" type="curve" smooth="yes"/>
      <point x="448" y="808" type="line" smooth="yes"/>
      <point x="448" y="956"/>
      <point x="593" y="1052"/>
      <point x="976" y="1052" type="curve" smooth="yes"/>
      <point x="1356" y="1052"/>
      <point x="1622" y="906"/>
      <point x="1622" y="628" type="curve"/>
      <point x="1640" y="979" type="line"/>
      <point x="1575" y="1239"/>
      <point x="1336" y="1376"/>
      <point x="902" y="1376" type="curve" smooth="yes"/>
      <point x="348" y="1376"/>
      <point x="60" y="1177"/>
      <point x="60" y="821" type="curve" smooth="yes"/>
      <point x="60" y="794" type="line" smooth="yes"/>
      <point x="60" y="566"/>
      <point x="183" y="431"/>
    </contour>
    <contour>
      <point x="742" y="-23" type="curve" smooth="yes"/>
      <point x="991" y="-23"/>
      <point x="1095" y="53"/>
      <point x="1131" y="167" type="curve"/>
      <point x="1140" y="167" type="line"/>
      <point x="1169" y="53"/>
      <point x="1243" y="-23"/>
      <point x="1395" y="-23" type="curve" smooth="yes"/>
      <point x="1544" y="-23"/>
      <point x="1605" y="44"/>
      <point x="1627" y="167" type="curve"/>
      <point x="1674" y="167" type="line"/>
      <point x="1629" y="368" type="line"/>
      <point x="1610" y="301"/>
      <point x="1558" y="262"/>
      <point x="1475" y="262" type="curve" smooth="yes"/>
      <point x="1366" y="262"/>
      <point x="1320" y="314"/>
      <point x="1318" y="415" type="curve" smooth="yes"/>
      <point x="1316" y="530" type="line"/>
      <point x="983" y="530" type="line"/>
      <point x="981" y="401" type="line" smooth="yes"/>
      <point x="980" y="311"/>
      <point x="922" y="262"/>
      <point x="804" y="262" type="curve" smooth="yes"/>
      <point x="705" y="262"/>
      <point x="651" y="301"/>
      <point x="651" y="380" type="curve" smooth="yes"/>
      <point x="651" y="390" type="line" smooth="yes"/>
      <point x="651" y="447"/>
      <point x="687" y="488"/>
      <point x="789" y="508" type="curve"/>
      <point x="789" y="784" type="line"/>
      <point x="598" y="764"/>
      <point x="425" y="684"/>
      <point x="361" y="533" type="curve"/>
      <point x="331" y="511" type="line"/>
      <point x="311" y="474"/>
      <point x="295" y="429"/>
      <point x="295" y="380" type="curve" smooth="yes"/>
      <point x="295" y="362" type="line" smooth="yes"/>
      <point x="295" y="114"/>
      <point x="461" y="-23"/>
    </contour>
    <contour>
      <point x="1634" y="0" type="line"/>
      <point x="1982" y="0" type="line"/>
      <point x="1982" y="1328" type="line"/>
      <point x="1622" y="1328" type="line"/>
      <point x="1633" y="1043" type="line"/>
      <point x="1617" y="1043" type="line"/>
      <point x="1622" y="760" type="line"/>
      <point x="1622" y="260" type="line"/>
      <point x="1640" y="260" type="line"/>
    </contour>
  </outline>
</glyph>
<glyph name="Nga.or" format="2">
  <advance width="2487"/>
  <unicode hex="0B19"/>
  <anchor x="1290" y="106" name="bottom"/>
  <anchor x="1053" y="106" name="nukta"/>
  <anchor x="1037" y="1876" name="top1"/>
  <anchor x="1745" y="1400" name="top2"/>
  <outline>
    <contour>
      <point x="468" y="260" type="curve"/>
      <point x="564" y="562" type="line"/>
      <point x="489" y="589"/>
      <point x="448" y="646"/>
      <point x="448" y="733" type="curve" smooth="yes"/>
      <point x="448" y="749" type="line" smooth="yes"/>
      <point x="448" y="939"/>
      <point x="644" y="1052"/>
      <point x="1044" y="1052" type="curve" smooth="yes"/>
      <point x="1324" y="1052"/>
      <point x="1530" y="992"/>
      <point x="1665" y="892" type="curve"/>
      <point x="1843" y="1157" type="line"/>
      <point x="1710" y="1251"/>
      <point x="1437" y="1376"/>
      <point x="1038" y="1376" type="curve" smooth="yes"/>
      <point x="417" y="1376"/>
      <point x="60" y="1160"/>
      <point x="60" y="758" type="curve" smooth="yes"/>
      <point x="60" y="732" type="line" smooth="yes"/>
      <point x="60" y="492"/>
      <point x="194" y="328"/>
    </contour>
    <contour>
      <point x="1016" y="-34" type="curve" smooth="yes"/>
      <point x="1383" y="-34"/>
      <point x="1593" y="76"/>
      <point x="1593" y="265" type="curve" smooth="yes"/>
      <point x="1593" y="274" type="line" smooth="yes"/>
      <point x="1593" y="388"/>
      <point x="1535" y="445"/>
      <point x="1400" y="452" type="curve"/>
      <point x="1400" y="482" type="line"/>
      <point x="1217" y="420" type="line"/>
      <point x="1244" y="408"/>
      <point x="1254" y="382"/>
      <point x="1254" y="354" type="curve" smooth="yes"/>
      <point x="1254" y="349" type="line" smooth="yes"/>
      <point x="1254" y="274"/>
      <point x="1177" y="233"/>
      <point x="1035" y="233" type="curve" smooth="yes"/>
      <point x="884" y="233"/>
      <point x="811" y="281"/>
      <point x="811" y="370" type="curve" smooth="yes"/>
      <point x="811" y="381" type="line" smooth="yes"/>
      <point x="811" y="445"/>
      <point x="850" y="484"/>
      <point x="930" y="502" type="curve"/>
      <point x="930" y="780" type="line"/>
      <point x="763" y="762"/>
      <point x="585" y="683"/>
      <point x="521" y="532" type="curve"/>
      <point x="491" y="511" type="line"/>
      <point x="471" y="475"/>
      <point x="455" y="434"/>
      <point x="455" y="388" type="curve" smooth="yes"/>
      <point x="455" y="370" type="line" smooth="yes"/>
      <point x="455" y="108"/>
      <point x="651" y="-34"/>
    </contour>
    <contour>
      <point x="1019" y="338" type="line"/>
      <point x="1286" y="425" type="line"/>
      <point x="1370" y="452" type="line"/>
      <point x="1569" y="518" type="line"/>
      <point x="1569" y="792" type="line"/>
      <point x="1019" y="614" type="line"/>
    </contour>
    <contour>
      <point x="2039" y="601" type="curve" smooth="yes"/>
      <point x="2333" y="601"/>
      <point x="2473" y="721"/>
      <point x="2473" y="924" type="curve"/>
      <point x="2473" y="935" type="line"/>
      <point x="2473" y="1139"/>
      <point x="2328" y="1259"/>
      <point x="2050" y="1259" type="curve" smooth="yes"/>
      <point x="1913" y="1259"/>
      <point x="1806" y="1227"/>
      <point x="1743" y="1162" type="curve"/>
      <point x="1614" y="1009" type="line"/>
      <point x="1609" y="988"/>
      <point x="1607" y="963"/>
      <point x="1607" y="938" type="curve"/>
      <point x="1607" y="924" type="line"/>
      <point x="1607" y="725"/>
      <point x="1759" y="601"/>
    </contour>
    <contour>
      <point x="2039" y="829" type="curve" smooth="yes"/>
      <point x="1948" y="829"/>
      <point x="1904" y="867"/>
      <point x="1904" y="926" type="curve" smooth="yes"/>
      <point x="1904" y="933" type="line" smooth="yes"/>
      <point x="1904" y="992"/>
      <point x="1948" y="1031"/>
      <point x="2039" y="1031" type="curve" smooth="yes"/>
      <point x="2127" y="1031"/>
      <point x="2172" y="993"/>
      <point x="2172" y="934" type="curve" smooth="yes"/>
      <point x="2172" y="927" type="line" smooth="yes"/>
      <point x="2172" y="868"/>
      <point x="2127" y="829"/>
    </contour>
  </outline>
</glyph>
<glyph name="Ca.or" format="2">
  <advance width="2091"/>
  <unicode hex="0B1A"/>
  <anchor x="1267" y="106" name="bottom"/>
  <anchor x="1032" y="106" name="nukta"/>
  <anchor x="1032" y="1876" name="top1"/>
  <anchor x="1630" y="1400" name="top2"/>
  <outline>
    <contour>
      <point x="524" y="255" type="curve"/>
      <point x="602" y="557" type="line"/>
      <point x="499" y="584"/>
      <point x="448" y="646"/>
      <point x="448" y="753" type="curve" smooth="yes"/>
      <point x="448" y="769" type="line" smooth="yes"/>
      <point x="448" y="947"/>
      <point x="629" y="1052"/>
      <point x="1012" y="1052" type="curve" smooth="yes"/>
      <point x="1437" y="1052"/>
      <point x="1656" y="909"/>
      <point x="1656" y="620" type="curve" smooth="yes"/>
      <point x="1656" y="596" type="line" smooth="yes"/>
      <point x="1656" y="543"/>
      <point x="1645" y="465"/>
      <point x="1624" y="399" type="curve"/>
      <point x="1993" y="434" type="line"/>
      <point x="2021" y="495"/>
      <point x="2034" y="575"/>
      <point x="2034" y="646" type="curve" smooth="yes"/>
      <point x="2034" y="669" type="line" smooth="yes"/>
      <point x="2034" y="1118"/>
      <point x="1660" y="1376"/>
      <point x="1012" y="1376" type="curve" smooth="yes"/>
      <point x="393" y="1376"/>
      <point x="60" y="1162"/>
      <point x="60" y="767" type="curve" smooth="yes"/>
      <point x="60" y="740" type="line" smooth="yes"/>
      <point x="60" y="482"/>
      <point x="209" y="310"/>
    </contour>
    <contour>
      <point x="1012" y="-34" type="curve" smooth="yes"/>
      <point x="1363" y="-34"/>
      <point x="1548" y="101"/>
      <point x="1548" y="347" type="curve" smooth="yes"/>
      <point x="1548" y="361" type="line" smooth="yes"/>
      <point x="1548" y="608"/>
      <point x="1364" y="744"/>
      <point x="1017" y="744" type="curve" smooth="yes"/>
      <point x="759" y="744"/>
      <point x="597" y="662"/>
      <point x="533" y="511" type="curve"/>
      <point x="508" y="490" type="line"/>
      <point x="490" y="454"/>
      <point x="476" y="411"/>
      <point x="476" y="365" type="curve" smooth="yes"/>
      <point x="476" y="347" type="line" smooth="yes"/>
      <point x="476" y="101"/>
      <point x="663" y="-34"/>
    </contour>
    <contour>
      <point x="1012" y="233" type="curve" smooth="yes"/>
      <point x="893" y="233"/>
      <point x="832" y="274"/>
      <point x="832" y="351" type="curve" smooth="yes"/>
      <point x="832" y="360" type="line" smooth="yes"/>
      <point x="832" y="438"/>
      <point x="893" y="477"/>
      <point x="1012" y="477" type="curve" smooth="yes"/>
      <point x="1131" y="477"/>
      <point x="1192" y="438"/>
      <point x="1192" y="360" type="curve" smooth="yes"/>
      <point x="1192" y="351" type="line" smooth="yes"/>
      <point x="1192" y="274"/>
      <point x="1131" y="233"/>
    </contour>
  </outline>
</glyph>
<glyph name="Cha.or" format="2">
  <advance width="2091"/>
  <unicode hex="0B1B"/>
  <anchor x="1516" y="-237" name="bottom"/>
  <anchor x="1032" y="-174" name="nukta"/>
  <anchor x="1032" y="1876" name="top1"/>
  <anchor x="1630" y="1400" name="top2"/>
  <outline>
    <contour>
      <point x="524" y="255" type="curve"/>
      <point x="602" y="557" type="line"/>
      <point x="499" y="584"/>
      <point x="448" y="646"/>
      <point x="448" y="753" type="curve" smooth="yes"/>
      <point x="448" y="769" type="line" smooth="yes"/>
      <point x="448" y="947"/>
      <point x="629" y="1052"/>
      <point x="1012" y="1052" type="curve" smooth="yes"/>
      <point x="1437" y="1052"/>
      <point x="1656" y="909"/>
      <point x="1656" y="620" type="curve" smooth="yes"/>
      <point x="1656" y="596" type="line" smooth="yes"/>
      <point x="1656" y="543"/>
      <point x="1645" y="465"/>
      <point x="1624" y="399" type="curve"/>
      <point x="1993" y="434" type="line"/>
      <point x="2021" y="495"/>
      <point x="2034" y="575"/>
      <point x="2034" y="646" type="curve" smooth="yes"/>
      <point x="2034" y="669" type="line" smooth="yes"/>
      <point x="2034" y="1118"/>
      <point x="1660" y="1376"/>
      <point x="1012" y="1376" type="curve" smooth="yes"/>
      <point x="393" y="1376"/>
      <point x="60" y="1162"/>
      <point x="60" y="767" type="curve" smooth="yes"/>
      <point x="60" y="740" type="line" smooth="yes"/>
      <point x="60" y="482"/>
      <point x="209" y="310"/>
    </contour>
    <contour>
      <point x="602" y="-386" type="curve" smooth="yes"/>
      <point x="790" y="-386"/>
      <point x="954" y="-326"/>
      <point x="1056" y="-191" type="curve"/>
      <point x="1154" y="-85" type="line"/>
      <point x="1210" y="-21"/>
      <point x="1276" y="4"/>
      <point x="1361" y="4" type="curve" smooth="yes"/>
      <point x="1437" y="4"/>
      <point x="1473" y="-17"/>
      <point x="1473" y="-65" type="curve"/>
      <point x="1473" y="-66" type="line"/>
      <point x="1473" y="-116"/>
      <point x="1436" y="-136"/>
      <point x="1358" y="-136" type="curve" smooth="yes"/>
      <point x="1259" y="-136"/>
      <point x="1202" y="-101"/>
      <point x="1133" y="-34" type="curve"/>
      <point x="988" y="98" type="line"/>
      <point x="882" y="165"/>
      <point x="760" y="207"/>
      <point x="598" y="207" type="curve" smooth="yes"/>
      <point x="364" y="207"/>
      <point x="220" y="105"/>
      <point x="220" y="-79" type="curve" smooth="yes"/>
      <point x="220" y="-87" type="line" smooth="yes"/>
      <point x="220" y="-279"/>
      <point x="350" y="-386"/>
    </contour>
    <contour>
      <point x="1423" y="-386" type="curve" smooth="yes"/>
      <point x="1675" y="-386"/>
      <point x="1805" y="-279"/>
      <point x="1805" y="-87" type="curve" smooth="yes"/>
      <point x="1805" y="-78" type="line" smooth="yes"/>
      <point x="1805" y="105"/>
      <point x="1661" y="207"/>
      <point x="1426" y="207" type="curve" smooth="yes"/>
      <point x="1265" y="207"/>
      <point x="1143" y="165"/>
      <point x="1037" y="98" type="curve"/>
      <point x="892" y="-34" type="line"/>
      <point x="823" y="-101"/>
      <point x="766" y="-136"/>
      <point x="667" y="-136" type="curve" smooth="yes"/>
      <point x="589" y="-136"/>
      <point x="552" y="-116"/>
      <point x="552" y="-67" type="curve"/>
      <point x="552" y="-66" type="line"/>
      <point x="552" y="-17"/>
      <point x="588" y="4"/>
      <point x="664" y="4" type="curve" smooth="yes"/>
      <point x="749" y="4"/>
      <point x="815" y="-21"/>
      <point x="871" y="-85" type="curve"/>
      <point x="969" y="-191" type="line"/>
      <point x="1071" y="-327"/>
      <point x="1236" y="-386"/>
    </contour>
    <contour>
      <point x="1012" y="45" type="curve"/>
      <point x="1400" y="75"/>
      <point x="1548" y="164"/>
      <point x="1548" y="381" type="curve" smooth="yes"/>
      <point x="1548" y="393" type="line" smooth="yes"/>
      <point x="1548" y="628"/>
      <point x="1355" y="754"/>
      <point x="1018" y="754" type="curve" smooth="yes"/>
      <point x="761" y="754"/>
      <point x="596" y="663"/>
      <point x="533" y="518" type="curve"/>
      <point x="508" y="500" type="line"/>
      <point x="490" y="470"/>
      <point x="476" y="431"/>
      <point x="476" y="390" type="curve" smooth="yes"/>
      <point x="476" y="379" type="line" smooth="yes"/>
      <point x="476" y="164"/>
      <point x="633" y="76"/>
    </contour>
    <contour>
      <point x="1012" y="243" type="curve" smooth="yes"/>
      <point x="893" y="243"/>
      <point x="832" y="284"/>
      <point x="832" y="361" type="curve" smooth="yes"/>
      <point x="832" y="370" type="line" smooth="yes"/>
      <point x="832" y="446"/>
      <point x="893" y="487"/>
      <point x="1012" y="487" type="curve" smooth="yes"/>
      <point x="1131" y="487"/>
      <point x="1192" y="448"/>
      <point x="1192" y="370" type="curve" smooth="yes"/>
      <point x="1192" y="361" type="line" smooth="yes"/>
      <point x="1192" y="284"/>
      <point x="1131" y="243"/>
    </contour>
  </outline>
</glyph>
<glyph name="Jha.or" format="2">
  <advance width="2070"/>
  <unicode hex="0B1D"/>
  <anchor x="1267" y="106" name="bottom"/>
  <anchor x="1042" y="106" name="nukta"/>
  <anchor x="1042" y="1876" name="top1"/>
  <anchor x="1535" y="1400" name="top2"/>
  <outline>
    <contour>
      <point x="491" y="281" type="curve"/>
      <point x="589" y="584" type="line"/>
      <point x="496" y="615"/>
      <point x="449" y="679"/>
      <point x="449" y="781" type="curve" smooth="yes"/>
      <point x="449" y="797" type="line" smooth="yes"/>
      <point x="449" y="963"/>
      <point x="600" y="1057"/>
      <point x="899" y="1057" type="curve" smooth="yes"/>
      <point x="982" y="1057"/>
      <point x="1057" y="1048"/>
      <point x="1124" y="1034" type="curve"/>
      <point x="1062" y="1303" type="line"/>
      <point x="1035" y="1276"/>
      <point x="1005" y="1217"/>
      <point x="1005" y="1148" type="curve" smooth="yes"/>
      <point x="1005" y="1136" type="line" smooth="yes"/>
      <point x="1005" y="897"/>
      <point x="1192" y="771"/>
      <point x="1518" y="771" type="curve" smooth="yes"/>
      <point x="1847" y="771"/>
      <point x="2020" y="903"/>
      <point x="2020" y="1134" type="curve" smooth="yes"/>
      <point x="2020" y="1148" type="line" smooth="yes"/>
      <point x="2020" y="1212"/>
      <point x="2000" y="1277"/>
      <point x="1979" y="1323" type="curve"/>
      <point x="1650" y="1323" type="line"/>
      <point x="1664" y="1275"/>
      <point x="1673" y="1235"/>
      <point x="1673" y="1194" type="curve" smooth="yes"/>
      <point x="1673" y="1184" type="line" smooth="yes"/>
      <point x="1673" y="1086"/>
      <point x="1621" y="1038"/>
      <point x="1520" y="1038" type="curve" smooth="yes"/>
      <point x="1410" y="1038"/>
      <point x="1358" y="1086"/>
      <point x="1358" y="1184" type="curve" smooth="yes"/>
      <point x="1358" y="1194" type="line" smooth="yes"/>
      <point x="1358" y="1235"/>
      <point x="1367" y="1272"/>
      <point x="1381" y="1315" type="curve"/>
      <point x="1257" y="1347"/>
      <point x="1092" y="1376"/>
      <point x="876" y="1376" type="curve" smooth="yes"/>
      <point x="373" y="1376"/>
      <point x="60" y="1166"/>
      <point x="60" y="808" type="curve" smooth="yes"/>
      <point x="60" y="781" type="line" smooth="yes"/>
      <point x="60" y="520"/>
      <point x="201" y="344"/>
    </contour>
    <contour>
      <point x="1909" y="-148" type="line"/>
      <point x="1909" y="182" type="line"/>
      <point x="1480" y="317" type="line"/>
      <point x="1244" y="84" type="line"/>
    </contour>
    <contour>
      <point x="1002" y="-34" type="curve" smooth="yes"/>
      <point x="1201" y="-34"/>
      <point x="1342" y="11"/>
      <point x="1427" y="96" type="curve"/>
      <point x="1509" y="235" type="line"/>
      <point x="1532" y="272"/>
      <point x="1545" y="313"/>
      <point x="1545" y="368" type="curve"/>
      <point x="1545" y="372" type="line"/>
      <point x="1545" y="607"/>
      <point x="1363" y="740"/>
      <point x="1018" y="740" type="curve" smooth="yes"/>
      <point x="759" y="740"/>
      <point x="597" y="661"/>
      <point x="533" y="511" type="curve"/>
      <point x="508" y="489" type="line"/>
      <point x="490" y="453"/>
      <point x="476" y="411"/>
      <point x="476" y="365" type="curve" smooth="yes"/>
      <point x="476" y="347" type="line" smooth="yes"/>
      <point x="476" y="105"/>
      <point x="660" y="-34"/>
    </contour>
    <contour>
      <point x="1012" y="233" type="curve" smooth="yes"/>
      <point x="892" y="233"/>
      <point x="832" y="272"/>
      <point x="832" y="349" type="curve" smooth="yes"/>
      <point x="832" y="358" type="line" smooth="yes"/>
      <point x="832" y="436"/>
      <point x="892" y="473"/>
      <point x="1012" y="473" type="curve" smooth="yes"/>
      <point x="1131" y="473"/>
      <point x="1192" y="436"/>
      <point x="1192" y="358" type="curve" smooth="yes"/>
      <point x="1192" y="349" type="line" smooth="yes"/>
      <point x="1192" y="272"/>
      <point x="1131" y="233"/>
    </contour>
  </outline>
</glyph>
<glyph name="Nya.or" format="2">
  <advance width="2069"/>
  <unicode hex="0B1E"/>
  <anchor x="1348" y="106" name="bottom"/>
  <anchor x="1040" y="106" name="nukta"/>
  <anchor x="1040" y="1876" name="top1"/>
  <anchor x="1765" y="1400" name="top2"/>
  <outline>
    <contour>
      <point x="684" y="358" type="curve"/>
      <point x="995" y="340" type="line"/>
      <point x="974" y="375"/>
      <point x="961" y="407"/>
      <point x="961" y="446" type="curve" smooth="yes"/>
      <point x="961" y="451" type="line" smooth="yes"/>
      <point x="961" y="518"/>
      <point x="992" y="555"/>
      <point x="1061" y="555" type="curve" smooth="yes"/>
      <point x="1130" y="555"/>
      <point x="1162" y="519"/>
      <point x="1163" y="444" type="curve" smooth="yes"/>
      <point x="1164" y="374" type="line"/>
      <point x="1449" y="374" type="line"/>
      <point x="1449" y="444" type="line" smooth="yes"/>
      <point x="1449" y="519"/>
      <point x="1481" y="555"/>
      <point x="1545" y="555" type="curve" smooth="yes"/>
      <point x="1616" y="555"/>
      <point x="1647" y="516"/>
      <point x="1647" y="453" type="curve" smooth="yes"/>
      <point x="1647" y="442" type="line" smooth="yes"/>
      <point x="1647" y="319"/>
      <point x="1524" y="255"/>
      <point x="1093" y="255" type="curve" smooth="yes"/>
      <point x="648" y="255"/>
      <point x="443" y="335"/>
      <point x="443" y="497" type="curve" smooth="yes"/>
      <point x="443" y="502" type="line" smooth="yes"/>
      <point x="443" y="555"/>
      <point x="461" y="602"/>
      <point x="509" y="635" type="curve"/>
      <point x="248" y="851" type="line"/>
      <point x="168" y="789"/>
      <point x="82" y="666"/>
      <point x="82" y="501" type="curve" smooth="yes"/>
      <point x="82" y="487" type="line" smooth="yes"/>
      <point x="82" y="139"/>
      <point x="405" y="-28"/>
      <point x="1072" y="-28" type="curve" smooth="yes"/>
      <point x="1678" y="-28"/>
      <point x="1994" y="123"/>
      <point x="1994" y="439" type="curve" smooth="yes"/>
      <point x="1994" y="456" type="line" smooth="yes"/>
      <point x="1994" y="662"/>
      <point x="1856" y="773"/>
      <point x="1603" y="773" type="curve" smooth="yes"/>
      <point x="1464" y="773"/>
      <point x="1347" y="742"/>
      <point x="1303" y="675" type="curve"/>
      <point x="1300" y="675" type="line"/>
      <point x="1252" y="741"/>
      <point x="1157" y="767"/>
      <point x="993" y="767" type="curve" smooth="yes"/>
      <point x="743" y="767"/>
      <point x="639" y="631"/>
      <point x="639" y="516" type="curve" smooth="yes"/>
      <point x="639" y="507" type="line" smooth="yes"/>
      <point x="639" y="455"/>
      <point x="657" y="399"/>
    </contour>
    <contour>
      <point x="671" y="892" type="curve"/>
      <point x="995" y="874" type="line"/>
      <point x="974" y="911"/>
      <point x="961" y="945"/>
      <point x="961" y="982" type="curve" smooth="yes"/>
      <point x="961" y="987" type="line" smooth="yes"/>
      <point x="961" y="1053"/>
      <point x="994" y="1089"/>
      <point x="1061" y="1089" type="curve" smooth="yes"/>
      <point x="1130" y="1089"/>
      <point x="1162" y="1053"/>
      <point x="1163" y="978" type="curve" smooth="yes"/>
      <point x="1164" y="908" type="line"/>
      <point x="1449" y="908" type="line"/>
      <point x="1449" y="978" type="line" smooth="yes"/>
      <point x="1449" y="1053"/>
      <point x="1481" y="1089"/>
      <point x="1545" y="1089" type="curve" smooth="yes"/>
      <point x="1616" y="1089"/>
      <point x="1647" y="1050"/>
      <point x="1647" y="983" type="curve" smooth="yes"/>
      <point x="1647" y="974" type="line" smooth="yes"/>
      <point x="1647" y="856"/>
      <point x="1531" y="785"/>
      <point x="1141" y="785" type="curve" smooth="yes"/>
      <point x="639" y="785"/>
      <point x="452" y="887"/>
      <point x="452" y="1114" type="curve" smooth="yes"/>
      <point x="452" y="1129" type="line" smooth="yes"/>
      <point x="452" y="1197"/>
      <point x="474" y="1264"/>
      <point x="504" y="1328" type="curve"/>
      <point x="141" y="1328" type="line"/>
      <point x="105" y="1260"/>
      <point x="82" y="1173"/>
      <point x="82" y="1091" type="curve" smooth="yes"/>
      <point x="82" y="1072" type="line" smooth="yes"/>
      <point x="82" y="953"/>
      <point x="123" y="838"/>
      <point x="221" y="760" type="curve"/>
      <point x="397" y="634" type="line"/>
      <point x="472" y="590"/>
      <point x="639" y="542"/>
      <point x="758" y="530" type="curve"/>
      <point x="1031" y="561" type="line"/>
      <point x="1248" y="586" type="line"/>
      <point x="1389" y="595"/>
      <point x="1622" y="639"/>
      <point x="1807" y="682" type="curve"/>
      <point x="1932" y="753"/>
      <point x="1994" y="858"/>
      <point x="1994" y="992" type="curve" smooth="yes"/>
      <point x="1994" y="1008" type="line" smooth="yes"/>
      <point x="1994" y="1237"/>
      <point x="1871" y="1353"/>
      <point x="1629" y="1353" type="curve" smooth="yes"/>
      <point x="1456" y="1353"/>
      <point x="1345" y="1284"/>
      <point x="1308" y="1175" type="curve"/>
      <point x="1301" y="1175" type="line"/>
      <point x="1265" y="1284"/>
      <point x="1162" y="1353"/>
      <point x="993" y="1353" type="curve" smooth="yes"/>
      <point x="756" y="1353"/>
      <point x="627" y="1253"/>
      <point x="627" y="1057" type="curve" smooth="yes"/>
      <point x="627" y="1048" type="line" smooth="yes"/>
      <point x="627" y="995"/>
      <point x="644" y="932"/>
    </contour>
  </outline>
</glyph>
<glyph name="Tta.or" format="2">
  <advance width="2068"/>
  <unicode hex="0B1F"/>
  <anchor x="1276" y="106" name="bottom"/>
  <anchor x="1052" y="106" name="nukta"/>
  <anchor x="982" y="1876" name="top1"/>
  <anchor x="1435" y="1400" name="top2"/>
  <outline>
    <contour>
      <point x="524" y="276" type="curve"/>
      <point x="602" y="579" type="line"/>
      <point x="499" y="606"/>
      <point x="447" y="673"/>
      <point x="447" y="769" type="curve" smooth="yes"/>
      <point x="447" y="785" type="line" smooth="yes"/>
      <point x="447" y="958"/>
      <point x="600" y="1052"/>
      <point x="960" y="1052" type="curve" smooth="yes"/>
      <point x="1350" y="1052"/>
      <point x="1626" y="922"/>
      <point x="1626" y="632" type="curve"/>
      <point x="1649" y="986" type="line"/>
      <point x="1583" y="1235"/>
      <point x="1343" y="1376"/>
      <point x="891" y="1376" type="curve" smooth="yes"/>
      <point x="353" y="1376"/>
      <point x="60" y="1178"/>
      <point x="60" y="799" type="curve" smooth="yes"/>
      <point x="60" y="773" type="line" smooth="yes"/>
      <point x="60" y="508"/>
      <point x="209" y="335"/>
    </contour>
    <contour>
      <point x="1021" y="-34" type="curve" smooth="yes"/>
      <point x="1372" y="-34"/>
      <point x="1556" y="101"/>
      <point x="1556" y="347" type="curve" smooth="yes"/>
      <point x="1556" y="361" type="line" smooth="yes"/>
      <point x="1556" y="608"/>
      <point x="1373" y="744"/>
      <point x="1026" y="744" type="curve" smooth="yes"/>
      <point x="768" y="744"/>
      <point x="606" y="662"/>
      <point x="542" y="511" type="curve"/>
      <point x="517" y="490" type="line"/>
      <point x="499" y="454"/>
      <point x="485" y="411"/>
      <point x="485" y="365" type="curve" smooth="yes"/>
      <point x="485" y="347" type="line" smooth="yes"/>
      <point x="485" y="101"/>
      <point x="672" y="-34"/>
    </contour>
    <contour>
      <point x="1021" y="233" type="curve" smooth="yes"/>
      <point x="902" y="233"/>
      <point x="841" y="274"/>
      <point x="841" y="351" type="curve" smooth="yes"/>
      <point x="841" y="360" type="line" smooth="yes"/>
      <point x="841" y="438"/>
      <point x="902" y="477"/>
      <point x="1021" y="477" type="curve" smooth="yes"/>
      <point x="1140" y="477"/>
      <point x="1200" y="438"/>
      <point x="1200" y="360" type="curve" smooth="yes"/>
      <point x="1200" y="351" type="line" smooth="yes"/>
      <point x="1200" y="274"/>
      <point x="1140" y="233"/>
    </contour>
    <contour>
      <point x="1626" y="625" type="line"/>
      <point x="1978" y="625" type="line"/>
      <point x="1978" y="1328" type="line"/>
      <point x="1631" y="1328" type="line"/>
      <point x="1642" y="1050" type="line"/>
      <point x="1596" y="1050" type="line"/>
      <point x="1626" y="968" type="line"/>
    </contour>
  </outline>
</glyph>
<glyph name="Ttha.or" format="2">
  <advance width="1926"/>
  <unicode hex="0B20"/>
  <anchor x="1218" y="106" name="bottom"/>
  <anchor x="963" y="106" name="nukta"/>
  <anchor x="963" y="1876" name="top1"/>
  <anchor x="1502" y="1400" name="top2"/>
  <outline>
    <contour>
      <point x="963" y="-41" type="curve" smooth="yes"/>
      <point x="1537" y="-41"/>
      <point x="1854" y="205"/>
      <point x="1854" y="659" type="curve" smooth="yes"/>
      <point x="1854" y="678" type="line" smooth="yes"/>
      <point x="1854" y="1130"/>
      <point x="1537" y="1376"/>
      <point x="963" y="1376" type="curve" smooth="yes"/>
      <point x="387" y="1376"/>
      <point x="72" y="1130"/>
      <point x="72" y="678" type="curve" smooth="yes"/>
      <point x="72" y="659" type="line" smooth="yes"/>
      <point x="72" y="205"/>
      <point x="387" y="-41"/>
    </contour>
    <contour>
      <point x="963" y="283" type="curve" smooth="yes"/>
      <point x="637" y="283"/>
      <point x="460" y="419"/>
      <point x="460" y="659" type="curve" smooth="yes"/>
      <point x="460" y="676" type="line" smooth="yes"/>
      <point x="460" y="916"/>
      <point x="637" y="1052"/>
      <point x="963" y="1052" type="curve" smooth="yes"/>
      <point x="1284" y="1052"/>
      <point x="1466" y="916"/>
      <point x="1466" y="676" type="curve" smooth="yes"/>
      <point x="1466" y="659" type="line" smooth="yes"/>
      <point x="1466" y="419"/>
      <point x="1284" y="283"/>
    </contour>
  </outline>
</glyph>
<glyph name="Dda.or" format="2">
  <advance width="2157"/>
  <unicode hex="0B21"/>
  <anchor x="1273" y="106" name="bottom"/>
  <anchor x="1061" y="106" name="nukta"/>
  <anchor x="1071" y="1876" name="top1"/>
  <anchor x="1686" y="1400" name="top2"/>
  <outline>
    <contour>
      <point x="501" y="255" type="curve"/>
      <point x="578" y="557" type="line"/>
      <point x="493" y="580"/>
      <point x="448" y="641"/>
      <point x="448" y="735" type="curve" smooth="yes"/>
      <point x="448" y="751" type="line" smooth="yes"/>
      <point x="448" y="941"/>
      <point x="637" y="1052"/>
      <point x="1046" y="1052" type="curve" smooth="yes"/>
      <point x="1489" y="1052"/>
      <point x="1722" y="906"/>
      <point x="1722" y="609" type="curve" smooth="yes"/>
      <point x="1722" y="584" type="line" smooth="yes"/>
      <point x="1722" y="534"/>
      <point x="1711" y="461"/>
      <point x="1690" y="399" type="curve"/>
      <point x="2059" y="434" type="line"/>
      <point x="2087" y="491"/>
      <point x="2100" y="566"/>
      <point x="2100" y="634" type="curve" smooth="yes"/>
      <point x="2100" y="657" type="line" smooth="yes"/>
      <point x="2100" y="1114"/>
      <point x="1714" y="1376"/>
      <point x="1046" y="1376" type="curve" smooth="yes"/>
      <point x="411" y="1376"/>
      <point x="60" y="1159"/>
      <point x="60" y="753" type="curve" smooth="yes"/>
      <point x="60" y="726" type="line" smooth="yes"/>
      <point x="60" y="482"/>
      <point x="207" y="308"/>
    </contour>
    <contour>
      <point x="998" y="-34" type="curve" smooth="yes"/>
      <point x="1365" y="-34"/>
      <point x="1576" y="76"/>
      <point x="1576" y="265" type="curve" smooth="yes"/>
      <point x="1576" y="274" type="line" smooth="yes"/>
      <point x="1576" y="388"/>
      <point x="1519" y="445"/>
      <point x="1384" y="452" type="curve"/>
      <point x="1384" y="482" type="line"/>
      <point x="1201" y="420" type="line"/>
      <point x="1228" y="408"/>
      <point x="1238" y="382"/>
      <point x="1238" y="354" type="curve" smooth="yes"/>
      <point x="1238" y="349" type="line" smooth="yes"/>
      <point x="1238" y="274"/>
      <point x="1160" y="233"/>
      <point x="1018" y="233" type="curve" smooth="yes"/>
      <point x="867" y="233"/>
      <point x="793" y="281"/>
      <point x="793" y="370" type="curve" smooth="yes"/>
      <point x="793" y="381" type="line" smooth="yes"/>
      <point x="793" y="445"/>
      <point x="832" y="484"/>
      <point x="912" y="502" type="curve"/>
      <point x="912" y="780" type="line"/>
      <point x="745" y="762"/>
      <point x="567" y="683"/>
      <point x="503" y="532" type="curve"/>
      <point x="473" y="511" type="line"/>
      <point x="453" y="475"/>
      <point x="437" y="434"/>
      <point x="437" y="388" type="curve" smooth="yes"/>
      <point x="437" y="370" type="line" smooth="yes"/>
      <point x="437" y="108"/>
      <point x="633" y="-34"/>
    </contour>
    <contour>
      <point x="1003" y="338" type="line"/>
      <point x="1270" y="425" type="line"/>
      <point x="1354" y="452" type="line"/>
      <point x="1560" y="520" type="line"/>
      <point x="1560" y="794" type="line"/>
      <point x="1003" y="618" type="line"/>
    </contour>
  </outline>
</glyph>
<glyph name="Ddha.or" format="2">
  <advance width="2160"/>
  <unicode hex="0B22"/>
  <anchor x="1253" y="106" name="bottom"/>
  <anchor x="1071" y="106" name="nukta"/>
  <anchor x="1071" y="1876" name="top1"/>
  <anchor x="1686" y="1400" name="top2"/>
  <outline>
    <contour>
      <point x="501" y="255" type="curve"/>
      <point x="578" y="557" type="line"/>
      <point x="493" y="580"/>
      <point x="448" y="641"/>
      <point x="448" y="735" type="curve" smooth="yes"/>
      <point x="448" y="751" type="line" smooth="yes"/>
      <point x="448" y="941"/>
      <point x="640" y="1052"/>
      <point x="1049" y="1052" type="curve" smooth="yes"/>
      <point x="1492" y="1052"/>
      <point x="1726" y="906"/>
      <point x="1726" y="609" type="curve" smooth="yes"/>
      <point x="1726" y="584" type="line" smooth="yes"/>
      <point x="1726" y="534"/>
      <point x="1715" y="461"/>
      <point x="1694" y="399" type="curve"/>
      <point x="2062" y="434" type="line"/>
      <point x="2090" y="491"/>
      <point x="2103" y="566"/>
      <point x="2103" y="634" type="curve" smooth="yes"/>
      <point x="2103" y="657" type="line" smooth="yes"/>
      <point x="2103" y="1114"/>
      <point x="1717" y="1376"/>
      <point x="1049" y="1376" type="curve" smooth="yes"/>
      <point x="414" y="1376"/>
      <point x="60" y="1159"/>
      <point x="60" y="753" type="curve" smooth="yes"/>
      <point x="60" y="726" type="line" smooth="yes"/>
      <point x="60" y="482"/>
      <point x="207" y="308"/>
    </contour>
    <contour>
      <point x="1733" y="-83" type="curve"/>
      <point x="1733" y="193" type="line"/>
      <point x="1630" y="196"/>
      <point x="1524" y="206"/>
      <point x="1451" y="229" type="curve"/>
      <point x="1169" y="99" type="line"/>
      <point x="1319" y="-1"/>
      <point x="1530" y="-72"/>
    </contour>
    <contour>
      <point x="978" y="-34" type="curve" smooth="yes"/>
      <point x="1117" y="-34"/>
      <point x="1251" y="-11"/>
      <point x="1345" y="34" type="curve"/>
      <point x="1490" y="158" type="line"/>
      <point x="1585" y="217"/>
      <point x="1628" y="301"/>
      <point x="1628" y="417" type="curve" smooth="yes"/>
      <point x="1628" y="421" type="line" smooth="yes"/>
      <point x="1628" y="609"/>
      <point x="1498" y="728"/>
      <point x="1244" y="728" type="curve" smooth="yes"/>
      <point x="1000" y="728"/>
      <point x="868" y="606"/>
      <point x="868" y="436" type="curve" smooth="yes"/>
      <point x="868" y="425" type="line" smooth="yes"/>
      <point x="868" y="310"/>
      <point x="945" y="220"/>
      <point x="1063" y="193" type="curve"/>
      <point x="1309" y="253" type="line"/>
      <point x="1227" y="274"/>
      <point x="1165" y="331"/>
      <point x="1165" y="404" type="curve" smooth="yes"/>
      <point x="1165" y="409" type="line" smooth="yes"/>
      <point x="1165" y="461"/>
      <point x="1188" y="493"/>
      <point x="1236" y="493" type="curve" smooth="yes"/>
      <point x="1285" y="493"/>
      <point x="1306" y="461"/>
      <point x="1306" y="409" type="curve" smooth="yes"/>
      <point x="1306" y="404" type="line" smooth="yes"/>
      <point x="1306" y="327"/>
      <point x="1260" y="268"/>
      <point x="1171" y="241" type="curve"/>
      <point x="1080" y="214" type="line"/>
      <point x="1055" y="210"/>
      <point x="1028" y="208"/>
      <point x="998" y="208" type="curve" smooth="yes"/>
      <point x="825" y="208"/>
      <point x="740" y="272"/>
      <point x="740" y="378" type="curve" smooth="yes"/>
      <point x="740" y="389" type="line" smooth="yes"/>
      <point x="740" y="454"/>
      <point x="770" y="499"/>
      <point x="827" y="529" type="curve"/>
      <point x="827" y="812" type="line"/>
      <point x="676" y="782"/>
      <point x="521" y="689"/>
      <point x="457" y="532" type="curve"/>
      <point x="432" y="511" type="line"/>
      <point x="412" y="477"/>
      <point x="396" y="438"/>
      <point x="396" y="393" type="curve" smooth="yes"/>
      <point x="396" y="376" type="line" smooth="yes"/>
      <point x="396" y="111"/>
      <point x="592" y="-34"/>
    </contour>
  </outline>
</glyph>
<glyph name="Tha.or" format="2">
  <advance width="1991"/>
  <unicode hex="0B25"/>
  <anchor x="1871" y="106" name="bottom"/>
  <anchor x="1012" y="106" name="nukta"/>
  <anchor x="1012" y="1876" name="top1"/>
  <anchor x="1667" y="1400" name="top2"/>
  <outline>
    <contour>
      <point x="773" y="-34" type="curve" smooth="yes"/>
      <point x="1204" y="-34"/>
      <point x="1415" y="73"/>
      <point x="1501" y="278" type="curve"/>
      <point x="1548" y="278" type="line"/>
      <point x="1517" y="523" type="line"/>
      <point x="1398" y="373"/>
      <point x="1161" y="294"/>
      <point x="827" y="294" type="curve" smooth="yes"/>
      <point x="558" y="294"/>
      <point x="458" y="321"/>
      <point x="458" y="396" type="curve" smooth="yes"/>
      <point x="458" y="402" type="line" smooth="yes"/>
      <point x="458" y="454"/>
      <point x="499" y="476"/>
      <point x="599" y="487" type="curve" smooth="yes"/>
      <point x="827" y="513" type="line" smooth="yes"/>
      <point x="1190" y="554"/>
      <point x="1334" y="720"/>
      <point x="1334" y="967" type="curve" smooth="yes"/>
      <point x="1334" y="986" type="line" smooth="yes"/>
      <point x="1334" y="1246"/>
      <point x="1165" y="1376"/>
      <point x="837" y="1376" type="curve" smooth="yes"/>
      <point x="513" y="1376"/>
      <point x="339" y="1262"/>
      <point x="339" y="1032" type="curve" smooth="yes"/>
      <point x="339" y="1024" type="line" smooth="yes"/>
      <point x="339" y="972"/>
      <point x="355" y="915"/>
      <point x="378" y="876" type="curve"/>
      <point x="715" y="858" type="line"/>
      <point x="694" y="896"/>
      <point x="681" y="937"/>
      <point x="681" y="972" type="curve" smooth="yes"/>
      <point x="681" y="981" type="line" smooth="yes"/>
      <point x="681" y="1060"/>
      <point x="727" y="1106"/>
      <point x="830" y="1106" type="curve" smooth="yes"/>
      <point x="931" y="1106"/>
      <point x="982" y="1059"/>
      <point x="982" y="973" type="curve" smooth="yes"/>
      <point x="982" y="963" type="line" smooth="yes"/>
      <point x="982" y="865"/>
      <point x="925" y="809"/>
      <point x="761" y="792" type="curve" smooth="yes"/>
      <point x="512" y="766" type="line" smooth="yes"/>
      <point x="195" y="733"/>
      <point x="56" y="631"/>
      <point x="56" y="399" type="curve" smooth="yes"/>
      <point x="56" y="381" type="line" smooth="yes"/>
      <point x="56" y="101"/>
      <point x="285" y="-34"/>
    </contour>
    <contour>
      <point x="1509" y="0" type="line"/>
      <point x="1871" y="0" type="line"/>
      <point x="1871" y="1328" type="line"/>
      <point x="1508" y="1328" type="line"/>
      <point x="1508" y="374" type="line"/>
      <point x="1516" y="374" type="line"/>
    </contour>
  </outline>
</glyph>
<glyph name="Da.or" format="2">
  <advance width="2116"/>
  <unicode hex="0B26"/>
  <anchor x="1534" y="106" name="bottom"/>
  <anchor x="1040" y="106" name="nukta"/>
  <anchor x="1040" y="1876" name="top1"/>
  <anchor x="1650" y="1400" name="top2"/>
  <outline>
    <contour>
      <point x="530" y="271" type="curve"/>
      <point x="608" y="573" type="line"/>
      <point x="501" y="596"/>
      <point x="448" y="662"/>
      <point x="448" y="749" type="curve" smooth="yes"/>
      <point x="448" y="765" type="line" smooth="yes"/>
      <point x="448" y="945"/>
      <point x="633" y="1052"/>
      <point x="1023" y="1052" type="curve" smooth="yes"/>
      <point x="1457" y="1052"/>
      <point x="1682" y="908"/>
      <point x="1682" y="618" type="curve" smooth="yes"/>
      <point x="1682" y="593" type="line" smooth="yes"/>
      <point x="1682" y="540"/>
      <point x="1671" y="463"/>
      <point x="1650" y="399" type="curve"/>
      <point x="2018" y="434" type="line"/>
      <point x="2046" y="495"/>
      <point x="2059" y="574"/>
      <point x="2059" y="643" type="curve" smooth="yes"/>
      <point x="2059" y="666" type="line" smooth="yes"/>
      <point x="2059" y="1116"/>
      <point x="1682" y="1376"/>
      <point x="1025" y="1376" type="curve" smooth="yes"/>
      <point x="397" y="1376"/>
      <point x="60" y="1161"/>
      <point x="60" y="764" type="curve" smooth="yes"/>
      <point x="60" y="737" type="line" smooth="yes"/>
      <point x="60" y="490"/>
      <point x="226" y="319"/>
    </contour>
    <contour>
      <point x="1190" y="0" type="line"/>
      <point x="1534" y="0" type="line"/>
      <point x="1534" y="724" type="line"/>
      <point x="1190" y="724" type="line"/>
      <point x="1190" y="324" type="line"/>
      <point x="1201" y="434" type="line"/>
      <point x="1185" y="363"/>
      <point x="1119" y="301"/>
      <point x="989" y="301" type="curve" smooth="yes"/>
      <point x="872" y="301"/>
      <point x="818" y="338"/>
      <point x="818" y="409" type="curve" smooth="yes"/>
      <point x="818" y="417" type="line" smooth="yes"/>
      <point x="818" y="474"/>
      <point x="858" y="509"/>
      <point x="943" y="518" type="curve"/>
      <point x="943" y="796" type="line"/>
      <point x="772" y="785"/>
      <point x="603" y="709"/>
      <point x="525" y="570" type="curve"/>
      <point x="489" y="522" type="line"/>
      <point x="475" y="492"/>
      <point x="462" y="456"/>
      <point x="462" y="417" type="curve" smooth="yes"/>
      <point x="462" y="399" type="line" smooth="yes"/>
      <point x="462" y="162"/>
      <point x="605" y="34"/>
      <point x="856" y="34" type="curve" smooth="yes"/>
      <point x="1057" y="34"/>
      <point x="1155" y="101"/>
      <point x="1185" y="231" type="curve"/>
      <point x="1196" y="231" type="line"/>
      <point x="1190" y="110" type="line"/>
    </contour>
  </outline>
</glyph>
<glyph name="Dha.or" format="2">
  <advance width="1834"/>
  <unicode hex="0B27"/>
  <anchor x="1714" y="106" name="bottom"/>
  <anchor x="906" y="106" name="nukta"/>
  <anchor x="866" y="1876" name="top1"/>
  <anchor x="1510" y="1400" name="top2"/>
  <outline>
    <contour>
      <point x="730" y="-32" type="curve" smooth="yes"/>
      <point x="1090" y="-32"/>
      <point x="1273" y="75"/>
      <point x="1344" y="269" type="curve"/>
      <point x="1390" y="269" type="line"/>
      <point x="1356" y="507" type="line"/>
      <point x="1258" y="365"/>
      <point x="1068" y="287"/>
      <point x="826" y="287" type="curve" smooth="yes"/>
      <point x="575" y="287"/>
      <point x="461" y="356"/>
      <point x="461" y="497" type="curve" smooth="yes"/>
      <point x="461" y="507" type="line" smooth="yes"/>
      <point x="461" y="660"/>
      <point x="568" y="733"/>
      <point x="794" y="733" type="curve" smooth="yes"/>
      <point x="858" y="733"/>
      <point x="917" y="722"/>
      <point x="963" y="710" type="curve"/>
      <point x="803" y="956" type="line"/>
      <point x="744" y="968"/>
      <point x="678" y="972"/>
      <point x="616" y="972" type="curve" smooth="yes"/>
      <point x="306" y="972"/>
      <point x="70" y="815"/>
      <point x="70" y="500" type="curve" smooth="yes"/>
      <point x="70" y="481" type="line" smooth="yes"/>
      <point x="70" y="146"/>
      <point x="294" y="-32"/>
    </contour>
    <contour>
      <point x="561" y="1328" type="line"/>
      <point x="50" y="1328" type="line"/>
      <point x="50" y="1312" type="line"/>
      <point x="612" y="902" type="line"/>
      <point x="787" y="767" type="line"/>
      <point x="1134" y="531" type="line"/>
      <point x="1150" y="531" type="line"/>
      <point x="1150" y="900" type="line"/>
    </contour>
    <contour>
      <point x="1351" y="0" type="line"/>
      <point x="1714" y="0" type="line"/>
      <point x="1714" y="1328" type="line"/>
      <point x="1351" y="1328" type="line"/>
      <point x="1351" y="391" type="line"/>
      <point x="1292" y="351" type="line"/>
      <point x="1358" y="351" type="line"/>
    </contour>
  </outline>
</glyph>
<glyph name="Na.or" format="2">
  <advance width="2057"/>
  <unicode hex="0B28"/>
  <anchor x="1431" y="106" name="bottom"/>
  <anchor x="1007" y="106" name="nukta"/>
  <anchor x="1017" y="1876" name="top1"/>
  <anchor x="1603" y="1400" name="top2"/>
  <outline>
    <contour>
      <point x="258" y="0" type="line"/>
      <point x="705" y="0" type="line"/>
      <point x="908" y="239" type="line" smooth="yes"/>
      <point x="965" y="307"/>
      <point x="1027" y="386"/>
      <point x="1082" y="459" type="curve"/>
      <point x="1102" y="459" type="line"/>
      <point x="1097" y="386"/>
      <point x="1087" y="303"/>
      <point x="1087" y="242" type="curve" smooth="yes"/>
      <point x="1087" y="0" type="line"/>
      <point x="1431" y="0" type="line"/>
      <point x="1431" y="716" type="line"/>
      <point x="929" y="716" type="line"/>
      <point x="701" y="482" type="line"/>
      <point x="559" y="326" type="line"/>
    </contour>
    <contour>
      <point x="594" y="245" type="curve"/>
      <point x="775" y="494" type="line"/>
      <point x="560" y="521"/>
      <point x="448" y="605"/>
      <point x="448" y="755" type="curve" smooth="yes"/>
      <point x="448" y="771" type="line" smooth="yes"/>
      <point x="448" y="948"/>
      <point x="618" y="1052"/>
      <point x="995" y="1052" type="curve" smooth="yes"/>
      <point x="1408" y="1052"/>
      <point x="1623" y="911"/>
      <point x="1623" y="628" type="curve" smooth="yes"/>
      <point x="1623" y="603" type="line" smooth="yes"/>
      <point x="1623" y="546"/>
      <point x="1612" y="468"/>
      <point x="1591" y="399" type="curve"/>
      <point x="1960" y="434" type="line"/>
      <point x="1988" y="498"/>
      <point x="2000" y="580"/>
      <point x="2000" y="653" type="curve" smooth="yes"/>
      <point x="2000" y="676" type="line" smooth="yes"/>
      <point x="2000" y="1121"/>
      <point x="1634" y="1376"/>
      <point x="997" y="1376" type="curve" smooth="yes"/>
      <point x="386" y="1376"/>
      <point x="60" y="1159"/>
      <point x="60" y="769" type="curve" smooth="yes"/>
      <point x="60" y="741" type="line" smooth="yes"/>
      <point x="60" y="462"/>
      <point x="238" y="293"/>
    </contour>
  </outline>
</glyph>
<glyph name="Ba.or" format="2">
  <advance width="2116"/>
  <unicode hex="0B2C"/>
  <anchor x="1544" y="106" name="bottom"/>
  <anchor x="1043" y="106" name="nukta"/>
  <anchor x="1043" y="1876" name="top1"/>
  <anchor x="1650" y="1400" name="top2"/>
  <outline>
    <contour>
      <point x="1028" y="301" type="curve" smooth="yes"/>
      <point x="914" y="301"/>
      <point x="854" y="337"/>
      <point x="854" y="408" type="curve" smooth="yes"/>
      <point x="854" y="417" type="line" smooth="yes"/>
      <point x="854" y="488"/>
      <point x="914" y="523"/>
      <point x="1028" y="523" type="curve" smooth="yes"/>
      <point x="1142" y="523"/>
      <point x="1203" y="490"/>
      <point x="1203" y="417" type="curve" smooth="yes"/>
      <point x="1203" y="408" type="line" smooth="yes"/>
      <point x="1203" y="339"/>
      <point x="1142" y="301"/>
    </contour>
    <contour>
      <point x="1200" y="0" type="line"/>
      <point x="1544" y="0" type="line"/>
      <point x="1544" y="390" type="line" smooth="yes"/>
      <point x="1544" y="657"/>
      <point x="1374" y="787"/>
      <point x="1041" y="787" type="curve" smooth="yes"/>
      <point x="794" y="787"/>
      <point x="633" y="703"/>
      <point x="551" y="546" type="curve"/>
      <point x="505" y="397" type="line"/>
      <point x="505" y="379" type="line" smooth="yes"/>
      <point x="505" y="162"/>
      <point x="642" y="34"/>
      <point x="895" y="34" type="curve" smooth="yes"/>
      <point x="1087" y="34"/>
      <point x="1169" y="96"/>
      <point x="1196" y="212" type="curve"/>
      <point x="1206" y="212" type="line"/>
      <point x="1200" y="89" type="line"/>
    </contour>
    <contour>
      <point x="565" y="263" type="curve"/>
      <point x="622" y="571" type="line"/>
      <point x="506" y="591"/>
      <point x="448" y="651"/>
      <point x="448" y="749" type="curve" smooth="yes"/>
      <point x="448" y="765" type="line" smooth="yes"/>
      <point x="448" y="945"/>
      <point x="634" y="1052"/>
      <point x="1026" y="1052" type="curve" smooth="yes"/>
      <point x="1457" y="1052"/>
      <point x="1681" y="908"/>
      <point x="1681" y="618" type="curve" smooth="yes"/>
      <point x="1681" y="593" type="line" smooth="yes"/>
      <point x="1681" y="540"/>
      <point x="1670" y="463"/>
      <point x="1649" y="399" type="curve"/>
      <point x="2018" y="434" type="line"/>
      <point x="2046" y="495"/>
      <point x="2059" y="574"/>
      <point x="2059" y="643" type="curve" smooth="yes"/>
      <point x="2059" y="666" type="line" smooth="yes"/>
      <point x="2059" y="1116"/>
      <point x="1681" y="1376"/>
      <point x="1028" y="1376" type="curve" smooth="yes"/>
      <point x="398" y="1376"/>
      <point x="60" y="1161"/>
      <point x="60" y="764" type="curve" smooth="yes"/>
      <point x="60" y="737" type="line" smooth="yes"/>
      <point x="60" y="490"/>
      <point x="230" y="308"/>
    </contour>
  </outline>
</glyph>
<glyph name="Bha.or" format="2">
  <advance width="2280"/>
  <unicode hex="0B2D"/>
  <anchor x="1333" y="106" name="bottom"/>
  <anchor x="1077" y="106" name="nukta"/>
  <anchor x="1077" y="1876" name="top1"/>
  <anchor x="1752" y="1400" name="top2"/>
  <outline>
    <contour>
      <point x="2326" y="-262" type="line"/>
      <point x="2326" y="87" type="line"/>
      <point x="1955" y="182" type="line"/>
      <point x="2023" y="107" type="line"/>
      <point x="2130" y="205"/>
      <point x="2196" y="354"/>
      <point x="2196" y="539" type="curve" smooth="yes"/>
      <point x="2196" y="562" type="line" smooth="yes"/>
      <point x="2196" y="1071"/>
      <point x="1802" y="1376"/>
      <point x="1067" y="1376" type="curve" smooth="yes"/>
      <point x="409" y="1376"/>
      <point x="60" y="1159"/>
      <point x="60" y="752" type="curve" smooth="yes"/>
      <point x="60" y="730" type="line" smooth="yes"/>
      <point x="60" y="488"/>
      <point x="208" y="325"/>
      <point x="498" y="276" type="curve"/>
      <point x="547" y="593" type="line"/>
      <point x="484" y="608"/>
      <point x="448" y="655"/>
      <point x="448" y="732" type="curve" smooth="yes"/>
      <point x="448" y="745" type="line" smooth="yes"/>
      <point x="448" y="939"/>
      <point x="644" y="1052"/>
      <point x="1064" y="1052" type="curve" smooth="yes"/>
      <point x="1575" y="1052"/>
      <point x="1818" y="867"/>
      <point x="1818" y="497" type="curve" smooth="yes"/>
      <point x="1818" y="472" type="line" smooth="yes"/>
      <point x="1818" y="298"/>
      <point x="1754" y="139"/>
      <point x="1663" y="23" type="curve"/>
    </contour>
    <contour>
      <point x="1062" y="-36" type="curve" smooth="yes"/>
      <point x="1446" y="-36"/>
      <point x="1665" y="132"/>
      <point x="1665" y="431" type="curve" smooth="yes"/>
      <point x="1665" y="452" type="line" smooth="yes"/>
      <point x="1665" y="532"/>
      <point x="1642" y="629"/>
      <point x="1614" y="698" type="curve"/>
      <point x="1322" y="698" type="line"/>
      <point x="1338" y="641"/>
      <point x="1352" y="589"/>
      <point x="1352" y="538" type="curve"/>
      <point x="1355" y="470" type="line"/>
      <point x="1359" y="444" type="line"/>
      <point x="1352" y="298"/>
      <point x="1263" y="230"/>
      <point x="1078" y="230" type="curve" smooth="yes"/>
      <point x="893" y="230"/>
      <point x="786" y="318"/>
      <point x="786" y="488" type="curve" smooth="yes"/>
      <point x="786" y="503" type="line" smooth="yes"/>
      <point x="786" y="585"/>
      <point x="810" y="668"/>
      <point x="838" y="742" type="curve"/>
      <point x="540" y="742" type="line"/>
      <point x="508" y="678"/>
      <point x="471" y="580"/>
      <point x="462" y="482" type="curve"/>
      <point x="455" y="438" type="line"/>
      <point x="455" y="411" type="line"/>
      <point x="455" y="124"/>
      <point x="670" y="-36"/>
    </contour>
    <contour>
      <point x="1129" y="308" type="curve" smooth="yes"/>
      <point x="1266" y="308"/>
      <point x="1328" y="359"/>
      <point x="1348" y="433" type="curve"/>
      <point x="1377" y="433" type="line"/>
      <point x="1354" y="581" type="line"/>
      <point x="1347" y="543"/>
      <point x="1318" y="516"/>
      <point x="1270" y="516" type="curve" smooth="yes"/>
      <point x="1209" y="516"/>
      <point x="1183" y="548"/>
      <point x="1183" y="606" type="curve" smooth="yes"/>
      <point x="1183" y="611" type="line" smooth="yes"/>
      <point x="1183" y="643"/>
      <point x="1190" y="676"/>
      <point x="1197" y="698" type="curve"/>
      <point x="927" y="698" type="line"/>
      <point x="906" y="647"/>
      <point x="891" y="592"/>
      <point x="891" y="535" type="curve" smooth="yes"/>
      <point x="891" y="524" type="line" smooth="yes"/>
      <point x="891" y="391"/>
      <point x="976" y="308"/>
    </contour>
  </outline>
</glyph>
<glyph name="Ma.or" format="2">
  <advance width="1898"/>
  <unicode hex="0B2E"/>
  <anchor x="1778" y="106" name="bottom"/>
  <anchor x="1043" y="106" name="nukta"/>
  <anchor x="927" y="1876" name="top1"/>
  <anchor x="1573" y="1400" name="top2"/>
  <outline>
    <contour>
      <point x="793" y="1376" type="curve" smooth="yes"/>
      <point x="315" y="1376"/>
      <point x="65" y="1182"/>
      <point x="65" y="840" type="curve" smooth="yes"/>
      <point x="65" y="814" type="line" smooth="yes"/>
      <point x="65" y="480"/>
      <point x="330" y="338"/>
      <point x="732" y="334" type="curve" smooth="yes"/>
      <point x="787" y="333"/>
      <point x="846" y="336"/>
      <point x="906" y="340" type="curve"/>
      <point x="1057" y="589" type="line"/>
      <point x="997" y="587"/>
      <point x="939" y="589"/>
      <point x="888" y="591" type="curve" smooth="yes"/>
      <point x="600" y="605"/>
      <point x="455" y="676"/>
      <point x="455" y="815" type="curve" smooth="yes"/>
      <point x="455" y="828" type="line" smooth="yes"/>
      <point x="455" y="963"/>
      <point x="567" y="1052"/>
      <point x="868" y="1052" type="curve" smooth="yes"/>
      <point x="1187" y="1052"/>
      <point x="1415" y="922"/>
      <point x="1415" y="707" type="curve"/>
      <point x="1437" y="983" type="line"/>
      <point x="1384" y="1236"/>
      <point x="1174" y="1376"/>
    </contour>
    <contour>
      <point x="706" y="0" type="line"/>
      <point x="1503" y="479" type="line"/>
      <point x="1500" y="830" type="line"/>
      <point x="863" y="495" type="line"/>
      <point x="654" y="352" type="line"/>
      <point x="71" y="11" type="line"/>
      <point x="71" y="0" type="line"/>
    </contour>
    <contour>
      <point x="1415" y="0" type="line"/>
      <point x="1778" y="0" type="line"/>
      <point x="1778" y="1328" type="line"/>
      <point x="1419" y="1328" type="line"/>
      <point x="1429" y="1047" type="line"/>
      <point x="1384" y="1047" type="line"/>
      <point x="1415" y="945" type="line"/>
    </contour>
  </outline>
</glyph>
<glyph name="Ya.or" format="2">
  <advance width="2032"/>
  <unicode hex="0B2F"/>
  <anchor x="1912" y="106" name="bottom"/>
  <anchor x="1063" y="106" name="nukta"/>
  <anchor x="963" y="1876" name="top1"/>
  <anchor x="1708" y="1400" name="top2"/>
  <outline>
    <contour>
      <point x="0" y="144" type="line"/>
      <point x="489" y="315" type="line"/>
      <point x="753" y="429" type="line"/>
      <point x="1077" y="534" type="line"/>
      <point x="1077" y="842" type="line"/>
      <point x="509" y="643" type="line"/>
      <point x="302" y="561" type="line"/>
      <point x="0" y="461" type="line"/>
    </contour>
    <contour>
      <point x="1553" y="0" type="line"/>
      <point x="1912" y="0" type="line"/>
      <point x="1912" y="1328" type="line"/>
      <point x="1553" y="1328" type="line"/>
      <point x="1564" y="1047" type="line"/>
      <point x="1548" y="1047" type="line"/>
      <point x="1553" y="781" type="line"/>
      <point x="1553" y="351" type="line"/>
      <point x="1560" y="351" type="line"/>
    </contour>
    <contour>
      <point x="468" y="449" type="curve"/>
      <point x="596" y="653" type="line"/>
      <point x="528" y="679"/>
      <point x="491" y="735"/>
      <point x="491" y="809" type="curve" smooth="yes"/>
      <point x="491" y="822" type="line" smooth="yes"/>
      <point x="491" y="955"/>
      <point x="615" y="1052"/>
      <point x="943" y="1052" type="curve" smooth="yes"/>
      <point x="1313" y="1052"/>
      <point x="1553" y="913"/>
      <point x="1553" y="618" type="curve"/>
      <point x="1702" y="617" type="line"/>
      <point x="1571" y="983" type="line"/>
      <point x="1508" y="1236"/>
      <point x="1277" y="1376"/>
      <point x="870" y="1376" type="curve" smooth="yes"/>
      <point x="363" y="1376"/>
      <point x="103" y="1178"/>
      <point x="103" y="856" type="curve" smooth="yes"/>
      <point x="103" y="840" type="line" smooth="yes"/>
      <point x="103" y="626"/>
      <point x="238" y="493"/>
    </contour>
    <contour>
      <point x="1003" y="-34" type="curve" smooth="yes"/>
      <point x="1314" y="-34"/>
      <point x="1483" y="64"/>
      <point x="1546" y="244" type="curve"/>
      <point x="1592" y="244" type="line"/>
      <point x="1560" y="463" type="line"/>
      <point x="1475" y="331"/>
      <point x="1306" y="258"/>
      <point x="1090" y="258" type="curve" smooth="yes"/>
      <point x="882" y="258"/>
      <point x="806" y="302"/>
      <point x="806" y="385" type="curve"/>
      <point x="806" y="387" type="line"/>
      <point x="806" y="425"/>
      <point x="825" y="450"/>
      <point x="861" y="465" type="curve"/>
      <point x="470" y="504" type="line"/>
      <point x="449" y="470"/>
      <point x="434" y="405"/>
      <point x="434" y="343" type="curve" smooth="yes"/>
      <point x="434" y="325" type="line" smooth="yes"/>
      <point x="434" y="99"/>
      <point x="628" y="-34"/>
    </contour>
  </outline>
</glyph>
<glyph name="Ra.or" format="2">
  <advance width="2115"/>
  <unicode hex="0B30"/>
  <anchor x="1173" y="106" name="bottom"/>
  <anchor x="1043" y="106" name="nukta"/>
  <anchor x="995" y="1876" name="top1"/>
  <anchor x="1612" y="1400" name="top2"/>
  <outline>
    <contour>
      <point x="2144" y="-263" type="line"/>
      <point x="2144" y="86" type="line"/>
      <point x="1790" y="182" type="line"/>
      <point x="1858" y="107" type="line"/>
      <point x="1965" y="208"/>
      <point x="2031" y="365"/>
      <point x="2031" y="557" type="curve" smooth="yes"/>
      <point x="2031" y="580" type="line" smooth="yes"/>
      <point x="2031" y="1084"/>
      <point x="1659" y="1376"/>
      <point x="975" y="1376" type="curve" smooth="yes"/>
      <point x="375" y="1376"/>
      <point x="60" y="1171"/>
      <point x="60" y="787" type="curve" smooth="yes"/>
      <point x="60" y="760" type="line" smooth="yes"/>
      <point x="60" y="514"/>
      <point x="201" y="352"/>
      <point x="480" y="297" type="curve"/>
      <point x="564" y="600" type="line"/>
      <point x="489" y="627"/>
      <point x="448" y="685"/>
      <point x="448" y="767" type="curve" smooth="yes"/>
      <point x="448" y="783" type="line" smooth="yes"/>
      <point x="448" y="954"/>
      <point x="611" y="1052"/>
      <point x="971" y="1052" type="curve" smooth="yes"/>
      <point x="1432" y="1052"/>
      <point x="1653" y="876"/>
      <point x="1653" y="511" type="curve" smooth="yes"/>
      <point x="1653" y="486" type="line" smooth="yes"/>
      <point x="1653" y="324"/>
      <point x="1592" y="142"/>
      <point x="1507" y="23" type="curve"/>
    </contour>
    <contour>
      <point x="918" y="-34" type="curve" smooth="yes"/>
      <point x="1269" y="-34"/>
      <point x="1454" y="101"/>
      <point x="1454" y="347" type="curve" smooth="yes"/>
      <point x="1454" y="361" type="line" smooth="yes"/>
      <point x="1454" y="608"/>
      <point x="1270" y="744"/>
      <point x="923" y="744" type="curve" smooth="yes"/>
      <point x="665" y="744"/>
      <point x="503" y="662"/>
      <point x="439" y="511" type="curve"/>
      <point x="414" y="489" type="line"/>
      <point x="396" y="453"/>
      <point x="382" y="411"/>
      <point x="382" y="365" type="curve" smooth="yes"/>
      <point x="382" y="347" type="line" smooth="yes"/>
      <point x="382" y="101"/>
      <point x="569" y="-34"/>
    </contour>
    <contour>
      <point x="918" y="233" type="curve" smooth="yes"/>
      <point x="799" y="233"/>
      <point x="738" y="274"/>
      <point x="738" y="351" type="curve" smooth="yes"/>
      <point x="738" y="360" type="line" smooth="yes"/>
      <point x="738" y="438"/>
      <point x="799" y="477"/>
      <point x="918" y="477" type="curve" smooth="yes"/>
      <point x="1037" y="477"/>
      <point x="1098" y="438"/>
      <point x="1098" y="360" type="curve" smooth="yes"/>
      <point x="1098" y="351" type="line" smooth="yes"/>
      <point x="1098" y="274"/>
      <point x="1037" y="233"/>
    </contour>
  </outline>
</glyph>
<glyph name="Va.or" format="2">
  <advance width="2116"/>
  <unicode hex="0B35"/>
  <anchor x="1547" y="106" name="bottom"/>
  <anchor x="1043" y="106" name="nukta"/>
  <anchor x="1043" y="1876" name="top1"/>
  <anchor x="1650" y="1400" name="top2"/>
  <outline>
    <contour>
      <point x="564" y="263" type="curve"/>
      <point x="621" y="571" type="line"/>
      <point x="507" y="591"/>
      <point x="448" y="651"/>
      <point x="448" y="749" type="curve" smooth="yes"/>
      <point x="448" y="765" type="line" smooth="yes"/>
      <point x="448" y="945"/>
      <point x="634" y="1052"/>
      <point x="1029" y="1052" type="curve" smooth="yes"/>
      <point x="1458" y="1052"/>
      <point x="1680" y="908"/>
      <point x="1680" y="618" type="curve" smooth="yes"/>
      <point x="1680" y="593" type="line" smooth="yes"/>
      <point x="1680" y="540"/>
      <point x="1669" y="463"/>
      <point x="1648" y="399" type="curve"/>
      <point x="2018" y="434" type="line"/>
      <point x="2046" y="495"/>
      <point x="2059" y="574"/>
      <point x="2059" y="643" type="curve" smooth="yes"/>
      <point x="2059" y="666" type="line" smooth="yes"/>
      <point x="2059" y="1116"/>
      <point x="1683" y="1376"/>
      <point x="1030" y="1376" type="curve" smooth="yes"/>
      <point x="398" y="1376"/>
      <point x="60" y="1161"/>
      <point x="60" y="764" type="curve" smooth="yes"/>
      <point x="60" y="737" type="line" smooth="yes"/>
      <point x="60" y="490"/>
      <point x="231" y="308"/>
    </contour>
    <contour>
      <point x="1203" y="0" type="line"/>
      <point x="1547" y="0" type="line"/>
      <point x="1547" y="390" type="line" smooth="yes"/>
      <point x="1547" y="657"/>
      <point x="1376" y="787"/>
      <point x="1041" y="787" type="curve" smooth="yes"/>
      <point x="794" y="787"/>
      <point x="632" y="703"/>
      <point x="550" y="546" type="curve"/>
      <point x="504" y="397" type="line"/>
      <point x="504" y="379" type="line" smooth="yes"/>
      <point x="504" y="162"/>
      <point x="642" y="34"/>
      <point x="895" y="34" type="curve" smooth="yes"/>
      <point x="1089" y="34"/>
      <point x="1171" y="96"/>
      <point x="1198" y="212" type="curve"/>
      <point x="1208" y="212" type="line"/>
      <point x="1203" y="85" type="line"/>
    </contour>
    <contour>
      <point x="1029" y="281" type="curve" smooth="yes"/>
      <point x="903" y="281"/>
      <point x="836" y="324"/>
      <point x="836" y="408" type="curve" smooth="yes"/>
      <point x="836" y="417" type="line" smooth="yes"/>
      <point x="836" y="501"/>
      <point x="903" y="543"/>
      <point x="1029" y="543" type="curve" smooth="yes"/>
      <point x="1157" y="543"/>
      <point x="1221" y="502"/>
      <point x="1221" y="417" type="curve" smooth="yes"/>
      <point x="1221" y="408" type="line" smooth="yes"/>
      <point x="1221" y="324"/>
      <point x="1157" y="281"/>
    </contour>
    <contour>
      <point x="1029" y="328" type="curve" smooth="yes"/>
      <point x="1122" y="328"/>
      <point x="1166" y="356"/>
      <point x="1166" y="409" type="curve" smooth="yes"/>
      <point x="1166" y="415" type="line" smooth="yes"/>
      <point x="1166" y="472"/>
      <point x="1122" y="497"/>
      <point x="1029" y="497" type="curve" smooth="yes"/>
      <point x="936" y="497"/>
      <point x="892" y="470"/>
      <point x="892" y="415" type="curve" smooth="yes"/>
      <point x="892" y="409" type="line" smooth="yes"/>
      <point x="892" y="354"/>
      <point x="936" y="328"/>
    </contour>
  </outline>
</glyph>
<glyph name="Sa.or" format="2">
  <advance width="1877"/>
  <unicode hex="0B38"/>
  <anchor x="1757" y="106" name="bottom"/>
  <anchor x="942" y="106" name="nukta"/>
  <anchor x="912" y="1876" name="top1"/>
  <anchor x="1553" y="1400" name="top2"/>
  <outline>
    <contour>
      <point x="1393" y="1328" type="line"/>
      <point x="1404" y="1061" type="line"/>
      <point x="1389" y="1061" type="line"/>
      <point x="1389" y="707" type="line"/>
      <point x="1398" y="632" type="line"/>
      <point x="1398" y="206" type="line"/>
      <point x="1436" y="278" type="line"/>
      <point x="604" y="357" type="line"/>
      <point x="604" y="366" type="line"/>
      <point x="1449" y="587" type="line"/>
      <point x="1449" y="871" type="line"/>
      <point x="592" y="643" type="line"/>
      <point x="428" y="552" type="line"/>
      <point x="163" y="473" type="line"/>
      <point x="163" y="139" type="line"/>
      <point x="1407" y="0" type="line"/>
      <point x="1757" y="0" type="line"/>
      <point x="1757" y="1328" type="line"/>
    </contour>
    <contour>
      <point x="762" y="664" type="line"/>
      <point x="566" y="675"/>
      <point x="457" y="730"/>
      <point x="457" y="853" type="curve" smooth="yes"/>
      <point x="457" y="866" type="line" smooth="yes"/>
      <point x="457" y="981"/>
      <point x="571" y="1059"/>
      <point x="845" y="1059" type="curve" smooth="yes"/>
      <point x="1179" y="1059"/>
      <point x="1389" y="926"/>
      <point x="1389" y="707" type="curve"/>
      <point x="1617" y="707" type="line"/>
      <point x="1411" y="997" type="line"/>
      <point x="1359" y="1241"/>
      <point x="1147" y="1376"/>
      <point x="776" y="1376" type="curve" smooth="yes"/>
      <point x="309" y="1376"/>
      <point x="60" y="1194"/>
      <point x="60" y="901" type="curve" smooth="yes"/>
      <point x="60" y="883" type="line" smooth="yes"/>
      <point x="60" y="664"/>
      <point x="197" y="531"/>
      <point x="445" y="510" type="curve"/>
    </contour>
  </outline>
</glyph>
<glyph name="Ha.or" format="2">
  <advance width="2115"/>
  <unicode hex="0B39"/>
  <anchor x="1222" y="-213" name="bottom"/>
  <anchor x="1000" y="-233" name="nukta"/>
  <anchor x="1042" y="1876" name="top1"/>
  <anchor x="1648" y="1400" name="top2"/>
  <outline>
    <contour>
      <point x="529" y="271" type="curve"/>
      <point x="608" y="573" type="line"/>
      <point x="500" y="596"/>
      <point x="448" y="662"/>
      <point x="448" y="753" type="curve" smooth="yes"/>
      <point x="448" y="769" type="line" smooth="yes"/>
      <point x="448" y="947"/>
      <point x="632" y="1052"/>
      <point x="1022" y="1052" type="curve" smooth="yes"/>
      <point x="1455" y="1052"/>
      <point x="1680" y="910"/>
      <point x="1680" y="621" type="curve" smooth="yes"/>
      <point x="1680" y="596" type="line" smooth="yes"/>
      <point x="1680" y="543"/>
      <point x="1670" y="465"/>
      <point x="1648" y="399" type="curve"/>
      <point x="2017" y="434" type="line"/>
      <point x="2045" y="495"/>
      <point x="2058" y="575"/>
      <point x="2058" y="646" type="curve" smooth="yes"/>
      <point x="2058" y="669" type="line" smooth="yes"/>
      <point x="2058" y="1118"/>
      <point x="1679" y="1376"/>
      <point x="1024" y="1376" type="curve" smooth="yes"/>
      <point x="397" y="1376"/>
      <point x="60" y="1162"/>
      <point x="60" y="767" type="curve" smooth="yes"/>
      <point x="60" y="740" type="line" smooth="yes"/>
      <point x="60" y="491"/>
      <point x="224" y="319"/>
    </contour>
    <contour>
      <point x="1567" y="-493" type="line"/>
      <point x="1567" y="-193" type="line"/>
      <point x="741" y="-46" type="line"/>
      <point x="741" y="-30" type="line"/>
      <point x="937" y="96" type="line"/>
      <point x="705" y="247" type="line"/>
      <point x="408" y="32" type="line"/>
      <point x="408" y="-258" type="line"/>
    </contour>
    <contour>
      <point x="1189" y="5" type="line"/>
      <point x="1533" y="5" type="line"/>
      <point x="1533" y="724" type="line"/>
      <point x="1189" y="724" type="line"/>
      <point x="1189" y="324" type="line"/>
      <point x="1200" y="434" type="line"/>
      <point x="1184" y="363"/>
      <point x="1119" y="301"/>
      <point x="988" y="301" type="curve" smooth="yes"/>
      <point x="870" y="301"/>
      <point x="818" y="338"/>
      <point x="818" y="409" type="curve" smooth="yes"/>
      <point x="818" y="417" type="line" smooth="yes"/>
      <point x="818" y="473"/>
      <point x="857" y="509"/>
      <point x="942" y="518" type="curve"/>
      <point x="942" y="796" type="line"/>
      <point x="771" y="785"/>
      <point x="602" y="708"/>
      <point x="524" y="570" type="curve"/>
      <point x="488" y="522" type="line"/>
      <point x="474" y="495"/>
      <point x="462" y="463"/>
      <point x="462" y="429" type="curve" smooth="yes"/>
      <point x="462" y="411" type="line" smooth="yes"/>
      <point x="462" y="173"/>
      <point x="605" y="43"/>
      <point x="855" y="43" type="curve" smooth="yes"/>
      <point x="1057" y="43"/>
      <point x="1154" y="107"/>
      <point x="1184" y="231" type="curve"/>
      <point x="1195" y="231" type="line"/>
      <point x="1189" y="110" type="line"/>
    </contour>
  </outline>
</glyph>
<glyph name="Nukta.or" format="2">
  <unicode hex="0B3C"/>
  <anchor x="-1049" y="106" name="_nukta"/>
  <outline>
    <contour>
      <point x="-1049" y="-465" type="curve" smooth="yes"/>
      <point x="-920" y="-465"/>
      <point x="-853" y="-398"/>
      <point x="-853" y="-294" type="curve" smooth="yes"/>
      <point x="-853" y="-287" type="line" smooth="yes"/>
      <point x="-853" y="-184"/>
      <point x="-924" y="-115"/>
      <point x="-1049" y="-115" type="curve" smooth="yes"/>
      <point x="-1175" y="-115"/>
      <point x="-1246" y="-182"/>
      <point x="-1246" y="-287" type="curve" smooth="yes"/>
      <point x="-1246" y="-294" type="line" smooth="yes"/>
      <point x="-1246" y="-398"/>
      <point x="-1175" y="-465"/>
    </contour>
  </outline>
</glyph>
<glyph name="Avagraha.or" format="2">
  <advance width="1037"/>
  <unicode hex="0B3D"/>
  <outline>
    <contour>
      <point x="50" y="1041" type="line"/>
      <point x="965" y="1376" type="line"/>
      <point x="965" y="1033" type="line"/>
      <point x="342" y="826" type="line"/>
      <point x="322" y="1018" type="line"/>
      <point x="944" y="749" type="line"/>
      <point x="944" y="581" type="line"/>
      <point x="326" y="315" type="line"/>
      <point x="322" y="509" type="line"/>
      <point x="967" y="297" type="line"/>
      <point x="965" y="-43" type="line"/>
      <point x="50" y="285" type="line"/>
      <point x="50" y="521" type="line"/>
      <point x="499" y="700" type="line"/>
      <point x="499" y="626" type="line"/>
      <point x="50" y="805" type="line"/>
    </contour>
  </outline>
</glyph>
<glyph name="MatraAa.or" format="2">
  <advance width="603"/>
  <unicode hex="0B3E"/>
  <outline>
    <contour>
      <point x="483" y="1328" type="line"/>
      <point x="483" y="0" type="line"/>
      <point x="120" y="0" type="line"/>
      <point x="120" y="1328" type="line"/>
    </contour>
  </outline>
</glyph>
<glyph name="MatraI.or" format="2">
  <unicode hex="0B3F"/>
  <anchor x="-1104" y="1876" name="_top1"/>
  <outline>
    <contour>
      <point x="-1926" y="1380" type="line"/>
      <point x="-1704" y="1509"/>
      <point x="-1417" y="1591"/>
      <point x="-1104" y="1591" type="curve" smooth="yes"/>
      <point x="-791" y="1591"/>
      <point x="-504" y="1509"/>
      <point x="-282" y="1380" type="curve"/>
      <point x="-300" y="1671" type="line"/>
      <point x="-517" y="1799"/>
      <point x="-780" y="1876"/>
      <point x="-1104" y="1876" type="curve" smooth="yes"/>
      <point x="-1428" y="1876"/>
      <point x="-1692" y="1799"/>
      <point x="-1908" y="1671" type="curve"/>
    </contour>
  </outline>
</glyph>
<glyph name="MatraIi.or" format="2">
  <advance width="890"/>
  <unicode hex="0B40"/>
  <outline>
    <contour>
      <point x="407" y="0" type="line"/>
      <point x="770" y="0" type="line"/>
      <point x="770" y="1328" type="line"/>
      <point x="501" y="1328" type="line"/>
      <point x="37" y="1061" type="line"/>
      <point x="37" y="678" type="line"/>
      <point x="52" y="678" type="line"/>
      <point x="397" y="893" type="line"/>
      <point x="407" y="893" type="line"/>
    </contour>
  </outline>
</glyph>
<glyph name="MatraU.or" format="2">
  <unicode hex="0B41"/>
  <anchor x="-120" y="106" name="_bottom"/>
  <outline>
    <contour>
      <point x="-710" y="-721" type="curve" smooth="yes"/>
      <point x="-413" y="-721"/>
      <point x="-291" y="-598"/>
      <point x="-225" y="-446" type="curve"/>
      <point x="-180" y="-395" type="line"/>
      <point x="-159" y="-321" type="line"/>
      <point x="-132" y="-229"/>
      <point x="-120" y="-140"/>
      <point x="-120" y="-12" type="curve" smooth="yes"/>
      <point x="-120" y="281" type="line"/>
      <point x="-483" y="281" type="line"/>
      <point x="-484" y="-22" type="line" smooth="yes"/>
      <point x="-484" y="-51"/>
      <point x="-484" y="-114"/>
      <point x="-491" y="-180" type="curve"/>
      <point x="-518" y="-224" type="line"/>
      <point x="-506" y="-356" type="line"/>
      <point x="-532" y="-440"/>
      <point x="-581" y="-478"/>
      <point x="-682" y="-478" type="curve" smooth="yes"/>
      <point x="-768" y="-478"/>
      <point x="-802" y="-452"/>
      <point x="-802" y="-408" type="curve" smooth="yes"/>
      <point x="-802" y="-405" type="line" smooth="yes"/>
      <point x="-802" y="-361"/>
      <point x="-770" y="-335"/>
      <point x="-688" y="-335" type="curve" smooth="yes"/>
      <point x="-606" y="-335"/>
      <point x="-545" y="-354"/>
      <point x="-476" y="-395" type="curve"/>
      <point x="-409" y="-197" type="line"/>
      <point x="-511" y="-138"/>
      <point x="-615" y="-105"/>
      <point x="-749" y="-105" type="curve" smooth="yes"/>
      <point x="-985" y="-105"/>
      <point x="-1117" y="-218"/>
      <point x="-1117" y="-406" type="curve" smooth="yes"/>
      <point x="-1117" y="-418" type="line" smooth="yes"/>
      <point x="-1117" y="-607"/>
      <point x="-977" y="-721"/>
    </contour>
    <contour>
      <point x="252" y="-706" type="curve"/>
      <point x="252" y="-388" type="line"/>
      <point x="59" y="-380"/>
      <point x="-105" y="-338"/>
      <point x="-250" y="-256" type="curve"/>
      <point x="-372" y="-466" type="line"/>
      <point x="-162" y="-608"/>
      <point x="34" y="-671"/>
    </contour>
  </outline>
</glyph>
<glyph name="MatraVocalicRr.or" format="2">
  <unicode hex="0B44"/>
  <outline>
    <contour>
      <point x="-227" y="-953" type="curve" smooth="yes"/>
      <point x="55" y="-953"/>
      <point x="213" y="-854"/>
      <point x="213" y="-677" type="curve" smooth="yes"/>
      <point x="213" y="-666" type="line" smooth="yes"/>
      <point x="213" y="-523"/>
      <point x="114" y="-444"/>
      <point x="-65" y="-444" type="curve" smooth="yes"/>
      <point x="-125" y="-444"/>
      <point x="-180" y="-450"/>
      <point x="-232" y="-464" type="curve"/>
      <point x="-232" y="-663" type="line"/>
      <point x="-197" y="-654"/>
      <point x="-175" y="-651"/>
      <point x="-143" y="-651" type="curve" smooth="yes"/>
      <point x="-106" y="-651"/>
      <point x="-89" y="-660"/>
      <point x="-89" y="-679" type="curve" smooth="yes"/>
      <point x="-89" y="-681" type="line" smooth="yes"/>
      <point x="-89" y="-709"/>
      <point x="-135" y="-723"/>
      <point x="-219" y="-723" type="curve" smooth="yes"/>
      <point x="-335" y="-723"/>
      <point x="-391" y="-698"/>
      <point x="-391" y="-647" type="curve" smooth="yes"/>
      <point x="-391" y="-642" type="line" smooth="yes"/>
      <point x="-391" y="-598"/>
      <point x="-358" y="-577"/>
      <point x="-286" y="-574" type="curve"/>
      <point x="-286" y="-396" type="line"/>
      <point x="-353" y="-393"/>
      <point x="-380" y="-381"/>
      <point x="-380" y="-353" type="curve" smooth="yes"/>
      <point x="-380" y="-351" type="line" smooth="yes"/>
      <point x="-380" y="-325"/>
      <point x="-356" y="-312"/>
      <point x="-276" y="-312" type="curve" smooth="yes"/>
      <point x="-238" y="-312"/>
      <point x="-203" y="-314"/>
      <point x="-157" y="-320" type="curve"/>
      <point x="-177" y="-122" type="line"/>
      <point x="-228" y="-106"/>
      <point x="-298" y="-98"/>
      <point x="-373" y="-98" type="curve" smooth="yes"/>
      <point x="-583" y="-98"/>
      <point x="-700" y="-173"/>
      <point x="-700" y="-308" type="curve" smooth="yes"/>
      <point x="-700" y="-313" type="line" smooth="yes"/>
      <point x="-700" y="-399"/>
      <point x="-650" y="-454"/>
      <point x="-568" y="-470" type="curve"/>
      <point x="-568" y="-479" type="line"/>
      <point x="-660" y="-510"/>
      <point x="-701" y="-578"/>
      <point x="-701" y="-669" type="curve" smooth="yes"/>
      <point x="-701" y="-673" type="line" smooth="yes"/>
      <point x="-701" y="-852"/>
      <point x="-530" y="-953"/>
    </contour>
  </outline>
</glyph>
<glyph name="MatraE.or" format="2">
  <advance width="1433"/>
  <unicode hex="0B47"/>
  <outline>
    <contour>
      <point x="781" y="-40" type="curve" smooth="yes"/>
      <point x="1164" y="-40"/>
      <point x="1381" y="121"/>
      <point x="1381" y="404" type="curve" smooth="yes"/>
      <point x="1381" y="419" type="line" smooth="yes"/>
      <point x="1381" y="679"/>
      <point x="1208" y="825"/>
      <point x="902" y="825" type="curve" smooth="yes"/>
      <point x="683" y="825"/>
      <point x="541" y="750"/>
      <point x="471" y="596" type="curve"/>
      <point x="453" y="596" type="line"/>
      <point x="455" y="415" type="line"/>
      <point x="517" y="502"/>
      <point x="644" y="558"/>
      <point x="780" y="558" type="curve" smooth="yes"/>
      <point x="925" y="558"/>
      <point x="1003" y="505"/>
      <point x="1003" y="411" type="curve" smooth="yes"/>
      <point x="1003" y="400" type="line" smooth="yes"/>
      <point x="1003" y="304"/>
      <point x="926" y="252"/>
      <point x="782" y="252" type="curve" smooth="yes"/>
      <point x="565" y="252"/>
      <point x="461" y="384"/>
      <point x="461" y="618" type="curve"/>
      <point x="461" y="639" type="line"/>
      <point x="461" y="914"/>
      <point x="600" y="1046"/>
      <point x="890" y="1046" type="curve" smooth="yes"/>
      <point x="1064" y="1046"/>
      <point x="1179" y="1013"/>
      <point x="1284" y="970" type="curve"/>
      <point x="1264" y="1282" type="line"/>
      <point x="1166" y="1329"/>
      <point x="1018" y="1368"/>
      <point x="829" y="1368" type="curve" smooth="yes"/>
      <point x="354" y="1368"/>
      <point x="80" y="1102"/>
      <point x="80" y="646" type="curve" smooth="yes"/>
      <point x="80" y="628" type="line" smooth="yes"/>
      <point x="80" y="188"/>
      <point x="343" y="-40"/>
    </contour>
  </outline>
</glyph>
<glyph name="Virama.or" format="2">
  <unicode hex="0B4D"/>
  <anchor x="-120" y="106" name="_bottom"/>
  <outline>
    <contour>
      <point x="-516" y="-131" type="line"/>
      <point x="-516" y="-97" type="line"/>
      <point x="-120" y="-97" type="line"/>
      <point x="247" y="-531" type="line"/>
      <point x="247" y="-544" type="line"/>
      <point x="-100" y="-544" type="line"/>
    </contour>
  </outline>
</glyph>
<glyph name="LengthmarkAi.or" format="2">
  <unicode hex="0B56"/>
  <outline>
    <contour>
      <point x="-1405" y="1964" type="line"/>
      <point x="-1403" y="1924" type="line" smooth="yes"/>
      <point x="-1399" y="1838"/>
      <point x="-1340" y="1801"/>
      <point x="-1216" y="1798" type="curve" smooth="yes"/>
      <point x="-618" y="1785" type="line" smooth="yes"/>
      <point x="-275" y="1778"/>
      <point x="-120" y="1667"/>
      <point x="-120" y="1405" type="curve" smooth="yes"/>
      <point x="-120" y="1380" type="line"/>
      <point x="-479" y="1380" type="line"/>
      <point x="-480" y="1391" type="line" smooth="yes"/>
      <point x="-486" y="1462"/>
      <point x="-516" y="1500"/>
      <point x="-626" y="1502" type="curve" smooth="yes"/>
      <point x="-1251" y="1514" type="line" smooth="yes"/>
      <point x="-1599" y="1521"/>
      <point x="-1746" y="1644"/>
      <point x="-1746" y="1914" type="curve" smooth="yes"/>
      <point x="-1746" y="1964" type="line"/>
    </contour>
  </outline>
</glyph>
<glyph name="LengthmarkAu.or" format="2">
  <advance width="603"/>
  <unicode hex="0B57"/>
  <outline>
    <contour>
      <point x="120" y="0" type="line"/>
      <point x="483" y="0" type="line"/>
      <point x="483" y="1313" type="line" smooth="yes"/>
      <point x="483" y="1648"/>
      <point x="328" y="1771"/>
      <point x="-35" y="1779" type="curve" smooth="yes"/>
      <point x="-613" y="1791" type="line" smooth="yes"/>
      <point x="-737" y="1794"/>
      <point x="-795" y="1833"/>
      <point x="-800" y="1924" type="curve" smooth="yes"/>
      <point x="-802" y="1964" type="line"/>
      <point x="-1143" y="1964" type="line"/>
      <point x="-1143" y="1914" type="line" smooth="yes"/>
      <point x="-1143" y="1639"/>
      <point x="-996" y="1514"/>
      <point x="-648" y="1507" type="curve" smooth="yes"/>
      <point x="-73" y="1496" type="line" smooth="yes"/>
      <point x="81" y="1493"/>
      <point x="120" y="1428"/>
      <point x="120" y="1291" type="curve" smooth="yes"/>
    </contour>
  </outline>
</glyph>
<glyph name="Yya.or" format="2">
  <advance width="2032"/>
  <unicode hex="0B5F"/>
  <anchor x="1932" y="-205" name="bottom"/>
  <anchor x="963" y="1876" name="top1"/>
  <anchor x="1708" y="1400" name="top2"/>
  <outline>
    <contour>
      <point x="2107" y="-502" type="line"/>
      <point x="2107" y="-166" type="line"/>
      <point x="1742" y="-104" type="line"/>
      <point x="1709" y="-145" type="line"/>
      <point x="1786" y="-139" type="line"/>
      <point x="1964" y="-122"/>
      <point x="2057" y="-39"/>
      <point x="2057" y="124" type="curve" smooth="yes"/>
      <point x="2057" y="134" type="line" smooth="yes"/>
      <point x="2057" y="302"/>
      <point x="1963" y="392"/>
      <point x="1845" y="418" type="curve"/>
      <point x="1604" y="453" type="line"/>
      <point x="1548" y="449"/>
      <point x="1462" y="414"/>
      <point x="1402" y="391" type="curve" smooth="yes"/>
      <point x="1248" y="331"/>
      <point x="1109" y="267"/>
      <point x="972" y="267" type="curve" smooth="yes"/>
      <point x="862" y="267"/>
      <point x="806" y="306"/>
      <point x="806" y="376" type="curve"/>
      <point x="806" y="378" type="line"/>
      <point x="806" y="420"/>
      <point x="825" y="448"/>
      <point x="861" y="465" type="curve"/>
      <point x="470" y="504" type="line"/>
      <point x="449" y="470"/>
      <point x="434" y="405"/>
      <point x="434" y="343" type="curve" smooth="yes"/>
      <point x="434" y="325" type="line" smooth="yes"/>
      <point x="434" y="99"/>
      <point x="590" y="-34"/>
      <point x="903" y="-34" type="curve" smooth="yes"/>
      <point x="1111" y="-34"/>
      <point x="1246" y="25"/>
      <point x="1403" y="92" type="curve" smooth="yes"/>
      <point x="1497" y="132"/>
      <point x="1559" y="163"/>
      <point x="1623" y="163" type="curve" smooth="yes"/>
      <point x="1697" y="163"/>
      <point x="1717" y="125"/>
      <point x="1717" y="74" type="curve" smooth="yes"/>
      <point x="1717" y="71" type="line" smooth="yes"/>
      <point x="1717" y="9"/>
      <point x="1679" y="-32"/>
      <point x="1582" y="-34" type="curve" smooth="yes"/>
      <point x="1460" y="-37" type="line"/>
      <point x="1460" y="-255" type="line"/>
    </contour>
    <contour>
      <point x="0" y="144" type="line"/>
      <point x="489" y="315" type="line"/>
      <point x="753" y="429" type="line"/>
      <point x="1077" y="534" type="line"/>
      <point x="1077" y="842" type="line"/>
      <point x="509" y="643" type="line"/>
      <point x="302" y="561" type="line"/>
      <point x="0" y="461" type="line"/>
    </contour>
    <contour>
      <point x="468" y="449" type="curve"/>
      <point x="596" y="653" type="line"/>
      <point x="528" y="679"/>
      <point x="491" y="735"/>
      <point x="491" y="809" type="curve" smooth="yes"/>
      <point x="491" y="822" type="line" smooth="yes"/>
      <point x="491" y="955"/>
      <point x="615" y="1052"/>
      <point x="943" y="1052" type="curve" smooth="yes"/>
      <point x="1313" y="1052"/>
      <point x="1553" y="913"/>
      <point x="1553" y="618" type="curve"/>
      <point x="1697" y="618" type="line"/>
      <point x="1571" y="983" type="line"/>
      <point x="1508" y="1236"/>
      <point x="1277" y="1376"/>
      <point x="870" y="1376" type="curve" smooth="yes"/>
      <point x="363" y="1376"/>
      <point x="103" y="1178"/>
      <point x="103" y="856" type="curve" smooth="yes"/>
      <point x="103" y="840" type="line" smooth="yes"/>
      <point x="103" y="626"/>
      <point x="238" y="493"/>
    </contour>
    <contour>
      <point x="1553" y="200" type="line"/>
      <point x="1912" y="200" type="line"/>
      <point x="1912" y="1328" type="line"/>
      <point x="1553" y="1328" type="line"/>
      <point x="1564" y="1047" type="line"/>
      <point x="1548" y="1047" type="line"/>
      <point x="1553" y="781" type="line"/>
    </contour>
  </outline>
</glyph>
<glyph name="VocalicRr.or" format="2">
  <advance width="2186"/>
  <unicode hex="0B60"/>
  <anchor x="1036" y="1876" name="top1"/>
  <anchor x="1705" y="1400" name="top2"/>
  <outline>
    <contour>
      <point x="2160" y="-262" type="line"/>
      <point x="2160" y="56" type="line"/>
      <point x="1809" y="106" type="line"/>
      <point x="1817" y="82" type="line"/>
      <point x="1912" y="84" type="line"/>
      <point x="2063" y="84"/>
      <point x="2146" y="134"/>
      <point x="2146" y="230" type="curve" smooth="yes"/>
      <point x="2146" y="237" type="line" smooth="yes"/>
      <point x="2146" y="321"/>
      <point x="2093" y="361"/>
      <point x="2015" y="373" type="curve"/>
      <point x="2015" y="380" type="line"/>
      <point x="2093" y="399"/>
      <point x="2142" y="445"/>
      <point x="2142" y="523" type="curve" smooth="yes"/>
      <point x="2142" y="530" type="line" smooth="yes"/>
      <point x="2142" y="621"/>
      <point x="2074" y="679"/>
      <point x="1959" y="688" type="curve"/>
      <point x="1975" y="637" type="line"/>
      <point x="2044" y="664"/>
      <point x="2074" y="744"/>
      <point x="2074" y="831" type="curve" smooth="yes"/>
      <point x="2074" y="840" type="line" smooth="yes"/>
      <point x="2074" y="1152"/>
      <point x="1683" y="1376"/>
      <point x="1036" y="1376" type="curve" smooth="yes"/>
      <point x="406" y="1376"/>
      <point x="60" y="1175"/>
      <point x="60" y="781" type="curve" smooth="yes"/>
      <point x="60" y="755" type="line" smooth="yes"/>
      <point x="60" y="518"/>
      <point x="200" y="351"/>
      <point x="480" y="297" type="curve"/>
      <point x="563" y="602" type="line"/>
      <point x="489" y="627"/>
      <point x="448" y="687"/>
      <point x="448" y="764" type="curve" smooth="yes"/>
      <point x="448" y="780" type="line" smooth="yes"/>
      <point x="448" y="959"/>
      <point x="633" y="1052"/>
      <point x="1030" y="1052" type="curve" smooth="yes"/>
      <point x="1468" y="1052"/>
      <point x="1697" y="957"/>
      <point x="1697" y="805" type="curve" smooth="yes"/>
      <point x="1697" y="800" type="line" smooth="yes"/>
      <point x="1697" y="736"/>
      <point x="1669" y="707"/>
      <point x="1599" y="702" type="curve" smooth="yes"/>
      <point x="1585" y="701" type="line"/>
      <point x="1585" y="511" type="line"/>
      <point x="1741" y="506" type="line" smooth="yes"/>
      <point x="1790" y="504"/>
      <point x="1811" y="498"/>
      <point x="1811" y="468" type="curve"/>
      <point x="1811" y="465" type="line"/>
      <point x="1811" y="438"/>
      <point x="1790" y="427"/>
      <point x="1728" y="426" type="curve" smooth="yes"/>
      <point x="1606" y="424" type="line"/>
      <point x="1606" y="254" type="line"/>
      <point x="1743" y="252" type="line" smooth="yes"/>
      <point x="1794" y="251"/>
      <point x="1811" y="240"/>
      <point x="1811" y="214" type="curve"/>
      <point x="1811" y="210" type="line"/>
      <point x="1811" y="180"/>
      <point x="1790" y="168"/>
      <point x="1699" y="166" type="curve" smooth="yes"/>
      <point x="1583" y="164" type="line"/>
      <point x="1583" y="-21" type="line"/>
    </contour>
    <contour>
      <point x="917" y="-34" type="curve" smooth="yes"/>
      <point x="1267" y="-34"/>
      <point x="1453" y="101"/>
      <point x="1453" y="347" type="curve" smooth="yes"/>
      <point x="1453" y="361" type="line" smooth="yes"/>
      <point x="1453" y="609"/>
      <point x="1269" y="744"/>
      <point x="922" y="744" type="curve" smooth="yes"/>
      <point x="664" y="744"/>
      <point x="502" y="662"/>
      <point x="438" y="511" type="curve"/>
      <point x="413" y="489" type="line"/>
      <point x="395" y="454"/>
      <point x="381" y="411"/>
      <point x="381" y="365" type="curve" smooth="yes"/>
      <point x="381" y="347" type="line" smooth="yes"/>
      <point x="381" y="101"/>
      <point x="568" y="-34"/>
    </contour>
    <contour>
      <point x="917" y="233" type="curve" smooth="yes"/>
      <point x="798" y="233"/>
      <point x="737" y="273"/>
      <point x="737" y="351" type="curve" smooth="yes"/>
      <point x="737" y="360" type="line" smooth="yes"/>
      <point x="737" y="438"/>
      <point x="798" y="477"/>
      <point x="917" y="477" type="curve" smooth="yes"/>
      <point x="1036" y="477"/>
      <point x="1097" y="438"/>
      <point x="1097" y="360" type="curve" smooth="yes"/>
      <point x="1097" y="351" type="line" smooth="yes"/>
      <point x="1097" y="273"/>
      <point x="1036" y="233"/>
    </contour>
  </outline>
</glyph>
<glyph name="VocalicLl.or" format="2">
  <advance width="1785"/>
  <unicode hex="0B61"/>
  <anchor x="1390" y="1400" name="top2"/>
  <outline>
    <contour>
      <point x="907" y="-34" type="curve" smooth="yes"/>
      <point x="1076" y="-34"/>
      <point x="1223" y="-16"/>
      <point x="1332" y="19" type="curve"/>
      <point x="1557" y="113" type="line"/>
      <point x="1676" y="168"/>
      <point x="1735" y="276"/>
      <point x="1735" y="380" type="curve" smooth="yes"/>
      <point x="1735" y="386" type="line" smooth="yes"/>
      <point x="1735" y="594"/>
      <point x="1593" y="712"/>
      <point x="1260" y="712" type="curve" smooth="yes"/>
      <point x="965" y="712"/>
      <point x="764" y="615"/>
      <point x="764" y="435" type="curve" smooth="yes"/>
      <point x="764" y="427" type="line" smooth="yes"/>
      <point x="764" y="326"/>
      <point x="833" y="249"/>
      <point x="962" y="214" type="curve"/>
      <point x="1209" y="256" type="line"/>
      <point x="1145" y="272"/>
      <point x="1093" y="311"/>
      <point x="1093" y="368" type="curve" smooth="yes"/>
      <point x="1093" y="374" type="line" smooth="yes"/>
      <point x="1093" y="437"/>
      <point x="1145" y="472"/>
      <point x="1243" y="472" type="curve" smooth="yes"/>
      <point x="1343" y="472"/>
      <point x="1390" y="440"/>
      <point x="1390" y="379" type="curve" smooth="yes"/>
      <point x="1390" y="374" type="line" smooth="yes"/>
      <point x="1390" y="305"/>
      <point x="1290" y="258"/>
      <point x="1147" y="260" type="curve"/>
      <point x="1026" y="249" type="line"/>
      <point x="993" y="249"/>
      <point x="952" y="250"/>
      <point x="927" y="250" type="curve"/>
      <point x="567" y="257"/>
      <point x="442" y="314"/>
      <point x="442" y="431" type="curve" smooth="yes"/>
      <point x="442" y="436" type="line" smooth="yes"/>
      <point x="442" y="509"/>
      <point x="508" y="538"/>
      <point x="643" y="573" type="curve" smooth="yes"/>
      <point x="983" y="662" type="line" smooth="yes"/>
      <point x="1308" y="747"/>
      <point x="1416" y="833"/>
      <point x="1416" y="1024" type="curve" smooth="yes"/>
      <point x="1416" y="1040" type="line" smooth="yes"/>
      <point x="1416" y="1253"/>
      <point x="1241" y="1380"/>
      <point x="897" y="1380" type="curve" smooth="yes"/>
      <point x="574" y="1380"/>
      <point x="382" y="1276"/>
      <point x="382" y="1073" type="curve" smooth="yes"/>
      <point x="382" y="1064" type="line" smooth="yes"/>
      <point x="382" y="1021"/>
      <point x="398" y="973"/>
      <point x="422" y="943" type="curve"/>
      <point x="749" y="926" type="line"/>
      <point x="727" y="952"/>
      <point x="715" y="976"/>
      <point x="715" y="1007" type="curve" smooth="yes"/>
      <point x="715" y="1011" type="line" smooth="yes"/>
      <point x="715" y="1077"/>
      <point x="774" y="1114"/>
      <point x="884" y="1114" type="curve" smooth="yes"/>
      <point x="1002" y="1114"/>
      <point x="1053" y="1082"/>
      <point x="1053" y="1022" type="curve" smooth="yes"/>
      <point x="1053" y="1018" type="line" smooth="yes"/>
      <point x="1053" y="971"/>
      <point x="1019" y="941"/>
      <point x="903" y="915" type="curve" smooth="yes"/>
      <point x="572" y="840" type="line" smooth="yes"/>
      <point x="243" y="765"/>
      <point x="60" y="662"/>
      <point x="60" y="429" type="curve" smooth="yes"/>
      <point x="60" y="411" type="line" smooth="yes"/>
      <point x="60" y="109"/>
      <point x="362" y="-34"/>
    </contour>
    <contour>
      <point x="1787" y="-164" type="curve"/>
      <point x="1787" y="112" type="line"/>
      <point x="1699" y="116"/>
      <point x="1598" y="128"/>
      <point x="1523" y="150" type="curve"/>
      <point x="1222" y="18" type="line"/>
      <point x="1372" y="-82"/>
      <point x="1584" y="-153"/>
    </contour>
  </outline>
</glyph>
<glyph name="MatraVocalicL.or" format="2">
  <unicode hex="0B62"/>
  <anchor x="-120" y="106" name="_bottom"/>
  <outline>
    <contour>
      <point x="-318" y="-895" type="curve" smooth="yes"/>
      <point x="-11" y="-895"/>
      <point x="136" y="-809"/>
      <point x="136" y="-664" type="curve" smooth="yes"/>
      <point x="136" y="-659" type="line" smooth="yes"/>
      <point x="136" y="-538"/>
      <point x="49" y="-470"/>
      <point x="-130" y="-470" type="curve" smooth="yes"/>
      <point x="-291" y="-470"/>
      <point x="-405" y="-526"/>
      <point x="-405" y="-631" type="curve" smooth="yes"/>
      <point x="-405" y="-635" type="line" smooth="yes"/>
      <point x="-405" y="-690"/>
      <point x="-366" y="-729"/>
      <point x="-292" y="-751" type="curve"/>
      <point x="-153" y="-732" type="line"/>
      <point x="-189" y="-723"/>
      <point x="-218" y="-701"/>
      <point x="-218" y="-668" type="curve" smooth="yes"/>
      <point x="-218" y="-665" type="line" smooth="yes"/>
      <point x="-218" y="-630"/>
      <point x="-190" y="-610"/>
      <point x="-138" y="-610" type="curve" smooth="yes"/>
      <point x="-85" y="-610"/>
      <point x="-61" y="-628"/>
      <point x="-61" y="-661" type="curve" smooth="yes"/>
      <point x="-61" y="-664" type="line" smooth="yes"/>
      <point x="-61" y="-701"/>
      <point x="-113" y="-726"/>
      <point x="-188" y="-725" type="curve"/>
      <point x="-256" y="-731" type="line"/>
      <point x="-275" y="-731"/>
      <point x="-298" y="-731"/>
      <point x="-312" y="-731" type="curve"/>
      <point x="-508" y="-727"/>
      <point x="-575" y="-696"/>
      <point x="-575" y="-637" type="curve" smooth="yes"/>
      <point x="-575" y="-634" type="line" smooth="yes"/>
      <point x="-575" y="-590"/>
      <point x="-542" y="-570"/>
      <point x="-481" y="-555" type="curve" smooth="yes"/>
      <point x="-280" y="-507" type="line" smooth="yes"/>
      <point x="-97" y="-463"/>
      <point x="-36" y="-409"/>
      <point x="-36" y="-303" type="curve" smooth="yes"/>
      <point x="-36" y="-294" type="line" smooth="yes"/>
      <point x="-36" y="-172"/>
      <point x="-136" y="-98"/>
      <point x="-333" y="-98" type="curve" smooth="yes"/>
      <point x="-512" y="-98"/>
      <point x="-619" y="-157"/>
      <point x="-619" y="-271" type="curve" smooth="yes"/>
      <point x="-619" y="-276" type="line" smooth="yes"/>
      <point x="-619" y="-300"/>
      <point x="-610" y="-327"/>
      <point x="-597" y="-344" type="curve"/>
      <point x="-410" y="-354" type="line"/>
      <point x="-423" y="-339"/>
      <point x="-429" y="-326"/>
      <point x="-429" y="-308" type="curve" smooth="yes"/>
      <point x="-429" y="-306" type="line" smooth="yes"/>
      <point x="-429" y="-272"/>
      <point x="-396" y="-252"/>
      <point x="-334" y="-252" type="curve" smooth="yes"/>
      <point x="-271" y="-252"/>
      <point x="-243" y="-272"/>
      <point x="-243" y="-300" type="curve" smooth="yes"/>
      <point x="-243" y="-302" type="line" smooth="yes"/>
      <point x="-243" y="-329"/>
      <point x="-261" y="-348"/>
      <point x="-325" y="-361" type="curve" smooth="yes"/>
      <point x="-522" y="-400" type="line" smooth="yes"/>
      <point x="-692" y="-434"/>
      <point x="-791" y="-503"/>
      <point x="-791" y="-634" type="curve" smooth="yes"/>
      <point x="-791" y="-644" type="line" smooth="yes"/>
      <point x="-791" y="-814"/>
      <point x="-622" y="-895"/>
    </contour>
  </outline>
</glyph>
<glyph name="MatraVocalicLl.or" format="2">
  <unicode hex="0B63"/>
  <outline>
    <contour>
      <point x="-368" y="-797" type="curve" smooth="yes"/>
      <point x="-267" y="-797"/>
      <point x="-184" y="-784"/>
      <point x="-119" y="-760" type="curve"/>
      <point x="-31" y="-715" type="line"/>
      <point x="47" y="-682"/>
      <point x="86" y="-630"/>
      <point x="86" y="-559" type="curve" smooth="yes"/>
      <point x="86" y="-554" type="line" smooth="yes"/>
      <point x="86" y="-440"/>
      <point x="-1" y="-372"/>
      <point x="-180" y="-372" type="curve" smooth="yes"/>
      <point x="-341" y="-372"/>
      <point x="-455" y="-428"/>
      <point x="-455" y="-533" type="curve" smooth="yes"/>
      <point x="-455" y="-537" type="line" smooth="yes"/>
      <point x="-455" y="-592"/>
      <point x="-416" y="-631"/>
      <point x="-342" y="-653" type="curve"/>
      <point x="-203" y="-634" type="line"/>
      <point x="-239" y="-625"/>
      <point x="-268" y="-603"/>
      <point x="-268" y="-570" type="curve" smooth="yes"/>
      <point x="-268" y="-567" type="line" smooth="yes"/>
      <point x="-268" y="-532"/>
      <point x="-240" y="-512"/>
      <point x="-188" y="-512" type="curve" smooth="yes"/>
      <point x="-135" y="-512"/>
      <point x="-111" y="-530"/>
      <point x="-111" y="-563" type="curve" smooth="yes"/>
      <point x="-111" y="-566" type="line" smooth="yes"/>
      <point x="-111" y="-603"/>
      <point x="-163" y="-628"/>
      <point x="-238" y="-627" type="curve"/>
      <point x="-306" y="-633" type="line"/>
      <point x="-325" y="-633"/>
      <point x="-348" y="-633"/>
      <point x="-362" y="-633" type="curve"/>
      <point x="-558" y="-629"/>
      <point x="-625" y="-598"/>
      <point x="-625" y="-539" type="curve" smooth="yes"/>
      <point x="-625" y="-536" type="line" smooth="yes"/>
      <point x="-625" y="-492"/>
      <point x="-592" y="-472"/>
      <point x="-531" y="-457" type="curve" smooth="yes"/>
      <point x="-330" y="-409" type="line" smooth="yes"/>
      <point x="-147" y="-365"/>
      <point x="-86" y="-311"/>
      <point x="-86" y="-205" type="curve" smooth="yes"/>
      <point x="-86" y="-196" type="line" smooth="yes"/>
      <point x="-86" y="-74"/>
      <point x="-186" y="0"/>
      <point x="-383" y="0" type="curve" smooth="yes"/>
      <point x="-562" y="0"/>
      <point x="-669" y="-59"/>
      <point x="-669" y="-173" type="curve" smooth="yes"/>
      <point x="-669" y="-178" type="line" smooth="yes"/>
      <point x="-669" y="-202"/>
      <point x="-660" y="-229"/>
      <point x="-647" y="-246" type="curve"/>
      <point x="-460" y="-256" type="line"/>
      <point x="-473" y="-241"/>
      <point x="-479" y="-228"/>
      <point x="-479" y="-210" type="curve" smooth="yes"/>
      <point x="-479" y="-208" type="line" smooth="yes"/>
      <point x="-479" y="-174"/>
      <point x="-446" y="-154"/>
      <point x="-384" y="-154" type="curve" smooth="yes"/>
      <point x="-321" y="-154"/>
      <point x="-293" y="-174"/>
      <point x="-293" y="-202" type="curve" smooth="yes"/>
      <point x="-293" y="-204" type="line" smooth="yes"/>
      <point x="-293" y="-231"/>
      <point x="-311" y="-250"/>
      <point x="-375" y="-263" type="curve" smooth="yes"/>
      <point x="-572" y="-302" type="line" smooth="yes"/>
      <point x="-742" y="-336"/>
      <point x="-841" y="-405"/>
      <point x="-841" y="-536" type="curve" smooth="yes"/>
      <point x="-841" y="-546" type="line" smooth="yes"/>
      <point x="-841" y="-716"/>
      <point x="-672" y="-797"/>
    </contour>
    <contour>
      <point x="119" y="-870" type="curve"/>
      <point x="119" y="-704" type="line"/>
      <point x="67" y="-702"/>
      <point x="9" y="-695"/>
      <point x="-34" y="-683" type="curve"/>
      <point x="-213" y="-761" type="line"/>
      <point x="-145" y="-821"/>
      <point x="4" y="-860"/>
    </contour>
  </outline>
</glyph>
<glyph name="zero.or" format="2">
  <advance width="1556"/>
  <unicode hex="0B66"/>
  <outline>
    <contour>
      <point x="67" y="678" type="curve" smooth="yes"/>
      <point x="67" y="659" type="line" smooth="yes"/>
      <point x="67" y="207"/>
      <point x="317" y="-41"/>
      <point x="778" y="-41" type="curve" smooth="yes"/>
      <point x="1238" y="-41"/>
      <point x="1489" y="207"/>
      <point x="1489" y="659" type="curve" smooth="yes"/>
      <point x="1489" y="678" type="line" smooth="yes"/>
      <point x="1489" y="1128"/>
      <point x="1238" y="1376"/>
      <point x="778" y="1376" type="curve" smooth="yes"/>
      <point x="317" y="1376"/>
      <point x="67" y="1128"/>
    </contour>
    <contour>
      <point x="441" y="658" type="curve" smooth="yes"/>
      <point x="441" y="675" type="line" smooth="yes"/>
      <point x="441" y="922"/>
      <point x="558" y="1061"/>
      <point x="778" y="1061" type="curve" smooth="yes"/>
      <point x="994" y="1061"/>
      <point x="1115" y="922"/>
      <point x="1115" y="675" type="curve" smooth="yes"/>
      <point x="1115" y="658" type="line" smooth="yes"/>
      <point x="1115" y="412"/>
      <point x="994" y="274"/>
      <point x="778" y="274" type="curve" smooth="yes"/>
      <point x="558" y="274"/>
      <point x="441" y="412"/>
    </contour>
  </outline>
</glyph>
<glyph name="one.or" format="2">
  <advance width="1458"/>
  <unicode hex="0B67"/>
  <outline>
    <contour>
      <point x="762" y="1376" type="curve" smooth="yes"/>
      <point x="1172" y="1376"/>
      <point x="1394" y="1224"/>
      <point x="1394" y="936" type="curve" smooth="yes"/>
      <point x="1394" y="921" type="line" smooth="yes"/>
      <point x="1394" y="663"/>
      <point x="1224" y="522"/>
      <point x="910" y="522" type="curve" smooth="yes"/>
      <point x="663" y="522"/>
      <point x="515" y="595"/>
      <point x="457" y="708" type="curve"/>
      <point x="359" y="708" type="line"/>
      <point x="436" y="888" type="line"/>
      <point x="517" y="836"/>
      <point x="638" y="806"/>
      <point x="780" y="806" type="curve" smooth="yes"/>
      <point x="941" y="806"/>
      <point x="1020" y="850"/>
      <point x="1020" y="931" type="curve" smooth="yes"/>
      <point x="1020" y="936" type="line" smooth="yes"/>
      <point x="1020" y="1018"/>
      <point x="943" y="1062"/>
      <point x="768" y="1062" type="curve" smooth="yes"/>
      <point x="558" y="1062"/>
      <point x="445" y="949"/>
      <point x="445" y="826" type="curve" smooth="yes"/>
      <point x="445" y="785" type="line"/>
      <point x="442" y="758" type="line"/>
      <point x="443" y="744" type="line" smooth="yes"/>
      <point x="463" y="457"/>
      <point x="682" y="324"/>
      <point x="1094" y="324" type="curve" smooth="yes"/>
      <point x="1301" y="324" type="line"/>
      <point x="1257" y="0" type="line"/>
      <point x="1047" y="0" type="line" smooth="yes"/>
      <point x="407" y="0"/>
      <point x="74" y="260"/>
      <point x="74" y="715" type="curve" smooth="yes"/>
      <point x="74" y="733" type="line" smooth="yes"/>
      <point x="74" y="1136"/>
      <point x="325" y="1376"/>
    </contour>
  </outline>
</glyph>
<glyph name="two.or" format="2">
  <advance width="1458"/>
  <unicode hex="0B68"/>
  <outline>
    <contour>
      <point x="696" y="1376" type="curve" smooth="yes"/>
      <point x="1133" y="1376"/>
      <point x="1384" y="1136"/>
      <point x="1384" y="733" type="curve" smooth="yes"/>
      <point x="1384" y="715" type="line" smooth="yes"/>
      <point x="1384" y="260"/>
      <point x="1051" y="0"/>
      <point x="411" y="0" type="curve" smooth="yes"/>
      <point x="201" y="0" type="line"/>
      <point x="157" y="324" type="line"/>
      <point x="364" y="324" type="line" smooth="yes"/>
      <point x="776" y="324"/>
      <point x="995" y="457"/>
      <point x="1015" y="744" type="curve" smooth="yes"/>
      <point x="1016" y="758" type="line"/>
      <point x="1013" y="785" type="line"/>
      <point x="1013" y="826" type="line" smooth="yes"/>
      <point x="1013" y="949"/>
      <point x="900" y="1062"/>
      <point x="690" y="1062" type="curve" smooth="yes"/>
      <point x="515" y="1062"/>
      <point x="438" y="1018"/>
      <point x="438" y="936" type="curve" smooth="yes"/>
      <point x="438" y="931" type="line" smooth="yes"/>
      <point x="438" y="850"/>
      <point x="517" y="806"/>
      <point x="678" y="806" type="curve" smooth="yes"/>
      <point x="820" y="806"/>
      <point x="941" y="836"/>
      <point x="1022" y="888" type="curve"/>
      <point x="1099" y="708" type="line"/>
      <point x="1001" y="708" type="line"/>
      <point x="943" y="595"/>
      <point x="795" y="522"/>
      <point x="548" y="522" type="curve" smooth="yes"/>
      <point x="234" y="522"/>
      <point x="64" y="663"/>
      <point x="64" y="921" type="curve" smooth="yes"/>
      <point x="64" y="936" type="line" smooth="yes"/>
      <point x="64" y="1224"/>
      <point x="286" y="1376"/>
    </contour>
  </outline>
</glyph>
<glyph name="three.or" format="2">
  <advance width="1953"/>
  <unicode hex="0B69"/>
  <outline>
    <contour>
      <point x="563" y="1371" type="curve" smooth="yes"/>
      <point x="244" y="1371"/>
      <point x="64" y="1188"/>
      <point x="64" y="893" type="curve" smooth="yes"/>
      <point x="64" y="878" type="line" smooth="yes"/>
      <point x="64" y="593"/>
      <point x="207" y="417"/>
      <point x="483" y="417" type="curve" smooth="yes"/>
      <point x="698" y="417"/>
      <point x="768" y="508"/>
      <point x="796" y="645" type="curve"/>
      <point x="882" y="645" type="line"/>
      <point x="798" y="891" type="line"/>
      <point x="798" y="781"/>
      <point x="734" y="729"/>
      <point x="624" y="729" type="curve" smooth="yes"/>
      <point x="515" y="729"/>
      <point x="452" y="781"/>
      <point x="452" y="891" type="curve" smooth="yes"/>
      <point x="452" y="896" type="line" smooth="yes"/>
      <point x="452" y="1006"/>
      <point x="515" y="1057"/>
      <point x="624" y="1057" type="curve" smooth="yes"/>
      <point x="734" y="1057"/>
      <point x="798" y="1006"/>
      <point x="798" y="896" type="curve" smooth="yes"/>
      <point x="798" y="721" type="line"/>
      <point x="810" y="676" type="line"/>
      <point x="801" y="365" type="line"/>
      <point x="801" y="0" type="line"/>
      <point x="1174" y="0" type="line"/>
      <point x="1174" y="873" type="line" smooth="yes"/>
      <point x="1174" y="996"/>
      <point x="1221" y="1057"/>
      <point x="1320" y="1057" type="curve" smooth="yes"/>
      <point x="1419" y="1057"/>
      <point x="1465" y="996"/>
      <point x="1465" y="873" type="curve" smooth="yes"/>
      <point x="1465" y="0" type="line"/>
      <point x="1838" y="0" type="line"/>
      <point x="1838" y="909" type="line" smooth="yes"/>
      <point x="1838" y="1204"/>
      <point x="1679" y="1371"/>
      <point x="1397" y="1371" type="curve" smooth="yes"/>
      <point x="1168" y="1371"/>
      <point x="1045" y="1278"/>
      <point x="990" y="1121" type="curve"/>
      <point x="982" y="1121" type="line"/>
      <point x="917" y="1292"/>
      <point x="776" y="1371"/>
    </contour>
  </outline>
</glyph>
<glyph name="four.or" format="2">
  <advance width="1464"/>
  <unicode hex="0B6A"/>
  <outline>
    <contour>
      <point x="753" y="694" type="line"/>
      <point x="1599" y="1321" type="line"/>
      <point x="1599" y="1328" type="line"/>
      <point x="1095" y="1328" type="line"/>
      <point x="509" y="884" type="line"/>
    </contour>
    <contour>
      <point x="685" y="712" type="line"/>
      <point x="934" y="898" type="line"/>
      <point x="369" y="1328" type="line"/>
      <point x="-135" y="1328" type="line"/>
      <point x="-135" y="1321" type="line"/>
    </contour>
    <contour>
      <point x="730" y="-36" type="curve" smooth="yes"/>
      <point x="1148" y="-36"/>
      <point x="1359" y="124"/>
      <point x="1359" y="393" type="curve" smooth="yes"/>
      <point x="1359" y="397" type="line" smooth="yes"/>
      <point x="1359" y="545"/>
      <point x="1302" y="667"/>
      <point x="1121" y="789" type="curve" smooth="yes"/>
      <point x="965" y="894" type="line"/>
      <point x="704" y="711" type="line"/>
      <point x="848" y="614" type="line" smooth="yes"/>
      <point x="941" y="551"/>
      <point x="989" y="507"/>
      <point x="989" y="426" type="curve" smooth="yes"/>
      <point x="989" y="423" type="line" smooth="yes"/>
      <point x="989" y="325"/>
      <point x="897" y="264"/>
      <point x="730" y="264" type="curve" smooth="yes"/>
      <point x="566" y="264"/>
      <point x="475" y="326"/>
      <point x="475" y="422" type="curve" smooth="yes"/>
      <point x="475" y="426" type="line" smooth="yes"/>
      <point x="475" y="507"/>
      <point x="529" y="558"/>
      <point x="616" y="614" type="curve" smooth="yes"/>
      <point x="760" y="707" type="line"/>
      <point x="499" y="890" type="line"/>
      <point x="333" y="782" type="line" smooth="yes"/>
      <point x="154" y="666"/>
      <point x="105" y="543"/>
      <point x="105" y="395" type="curve" smooth="yes"/>
      <point x="105" y="392" type="line" smooth="yes"/>
      <point x="105" y="122"/>
      <point x="316" y="-36"/>
    </contour>
  </outline>
</glyph>
<glyph name="five.or" format="2">
  <advance width="1900"/>
  <unicode hex="0B6B"/>
  <outline>
    <contour>
      <point x="862" y="542" type="curve"/>
      <point x="1121" y="533"/>
      <point x="1203" y="479"/>
      <point x="1203" y="386" type="curve"/>
      <point x="1203" y="384" type="line"/>
      <point x="1203" y="298"/>
      <point x="1111" y="252"/>
      <point x="932" y="252" type="curve" smooth="yes"/>
      <point x="740" y="252"/>
      <point x="655" y="300"/>
      <point x="655" y="383" type="curve"/>
      <point x="655" y="386" type="line"/>
      <point x="655" y="472"/>
      <point x="726" y="522"/>
    </contour>
    <contour>
      <point x="1028" y="799" type="curve"/>
      <point x="772" y="801"/>
      <point x="691" y="859"/>
      <point x="691" y="946" type="curve"/>
      <point x="691" y="950" type="line"/>
      <point x="691" y="1036"/>
      <point x="782" y="1082"/>
      <point x="958" y="1082" type="curve" smooth="yes"/>
      <point x="1131" y="1082"/>
      <point x="1220" y="1035"/>
      <point x="1219" y="948" type="curve"/>
      <point x="1219" y="942" type="line"/>
      <point x="1219" y="858"/>
      <point x="1153" y="818"/>
    </contour>
    <contour>
      <point x="958" y="1374" type="curve" smooth="yes"/>
      <point x="546" y="1374"/>
      <point x="339" y="1233"/>
      <point x="339" y="1015" type="curve" smooth="yes"/>
      <point x="339" y="1006" type="line" smooth="yes"/>
      <point x="339" y="827"/>
      <point x="451" y="746"/>
      <point x="633" y="702" type="curve"/>
      <point x="607" y="606" type="line"/>
      <point x="397" y="579"/>
      <point x="295" y="484"/>
      <point x="295" y="342" type="curve" smooth="yes"/>
      <point x="295" y="333" type="line" smooth="yes"/>
      <point x="295" y="91"/>
      <point x="496" y="-46"/>
      <point x="932" y="-46" type="curve" smooth="yes"/>
      <point x="1361" y="-46"/>
      <point x="1561" y="98"/>
      <point x="1561" y="326" type="curve" smooth="yes"/>
      <point x="1561" y="334" type="line" smooth="yes"/>
      <point x="1561" y="466"/>
      <point x="1464" y="552"/>
      <point x="1250" y="606" type="curve"/>
      <point x="1293" y="716" type="line"/>
      <point x="1514" y="763"/>
      <point x="1575" y="867"/>
      <point x="1575" y="995" type="curve" smooth="yes"/>
      <point x="1575" y="1004" type="line" smooth="yes"/>
      <point x="1575" y="1242"/>
      <point x="1369" y="1374"/>
    </contour>
    <contour>
      <point x="1895" y="387" type="line"/>
      <point x="1895" y="700" type="line"/>
      <point x="1210" y="804" type="line"/>
      <point x="1181" y="511" type="line"/>
    </contour>
    <contour>
      <point x="5" y="903" type="line"/>
      <point x="5" y="590" type="line"/>
      <point x="650" y="490" type="line"/>
      <point x="728" y="783" type="line"/>
    </contour>
  </outline>
</glyph>
<glyph name="six.or" format="2">
  <advance width="1498"/>
  <unicode hex="0B6C"/>
  <outline>
    <contour>
      <point x="677" y="1064" type="curve" smooth="yes"/>
      <point x="910" y="1064"/>
      <point x="1054" y="958"/>
      <point x="1054" y="742" type="curve" smooth="yes"/>
      <point x="1054" y="732" type="line" smooth="yes"/>
      <point x="1054" y="459"/>
      <point x="818" y="322"/>
      <point x="344" y="322" type="curve" smooth="yes"/>
      <point x="156" y="322" type="line"/>
      <point x="200" y="0" type="line"/>
      <point x="370" y="0" type="line" smooth="yes"/>
      <point x="1072" y="0"/>
      <point x="1424" y="265"/>
      <point x="1424" y="732" type="curve" smooth="yes"/>
      <point x="1424" y="745" type="line" smooth="yes"/>
      <point x="1424" y="1162"/>
      <point x="1150" y="1372"/>
      <point x="718" y="1372" type="curve" smooth="yes"/>
      <point x="437" y="1372"/>
      <point x="224" y="1269"/>
      <point x="97" y="1192" type="curve"/>
      <point x="97" y="946" type="line"/>
      <point x="402" y="924"/>
      <point x="478" y="899"/>
      <point x="478" y="820" type="curve" smooth="yes"/>
      <point x="478" y="816" type="line" smooth="yes"/>
      <point x="478" y="755"/>
      <point x="435" y="724"/>
      <point x="300" y="724" type="curve" smooth="yes"/>
      <point x="226" y="724"/>
      <point x="140" y="740"/>
      <point x="60" y="764" type="curve"/>
      <point x="83" y="525" type="line"/>
      <point x="164" y="493"/>
      <point x="253" y="476"/>
      <point x="372" y="476" type="curve" smooth="yes"/>
      <point x="660" y="476"/>
      <point x="828" y="585"/>
      <point x="828" y="786" type="curve" smooth="yes"/>
      <point x="828" y="796" type="line" smooth="yes"/>
      <point x="828" y="1006"/>
      <point x="711" y="1110"/>
      <point x="240" y="1127" type="curve"/>
      <point x="374" y="1018" type="line"/>
      <point x="441" y="1049"/>
      <point x="519" y="1064"/>
    </contour>
  </outline>
</glyph>
<glyph name="seven.or" format="2">
  <advance width="1692"/>
  <unicode hex="0B6D"/>
  <outline>
    <contour>
      <point x="820" y="1372" type="curve" smooth="yes"/>
      <point x="1345" y="1372"/>
      <point x="1618" y="1162"/>
      <point x="1618" y="744" type="curve" smooth="yes"/>
      <point x="1618" y="731" type="line" smooth="yes"/>
      <point x="1618" y="265"/>
      <point x="1266" y="0"/>
      <point x="564" y="0" type="curve" smooth="yes"/>
      <point x="344" y="0" type="line"/>
      <point x="300" y="322" type="line"/>
      <point x="538" y="322" type="line" smooth="yes"/>
      <point x="1012" y="322"/>
      <point x="1248" y="459"/>
      <point x="1248" y="732" type="curve" smooth="yes"/>
      <point x="1248" y="742" type="line" smooth="yes"/>
      <point x="1248" y="963"/>
      <point x="1108" y="1071"/>
      <point x="822" y="1071" type="curve" smooth="yes"/>
      <point x="554" y="1071"/>
      <point x="417" y="981"/>
      <point x="417" y="854" type="curve" smooth="yes"/>
      <point x="417" y="822" type="line"/>
      <point x="422" y="813" type="line"/>
      <point x="410" y="786" type="line"/>
      <point x="430" y="722"/>
      <point x="491" y="689"/>
      <point x="583" y="689" type="curve" smooth="yes"/>
      <point x="654" y="689"/>
      <point x="688" y="708"/>
      <point x="688" y="741" type="curve"/>
      <point x="688" y="743" type="line"/>
      <point x="688" y="778"/>
      <point x="664" y="793"/>
      <point x="592" y="793" type="curve" smooth="yes"/>
      <point x="523" y="793"/>
      <point x="448" y="774"/>
      <point x="402" y="737" type="curve"/>
      <point x="402" y="854" type="line"/>
      <point x="425" y="854" type="line"/>
      <point x="467" y="934"/>
      <point x="560" y="995"/>
      <point x="724" y="995" type="curve" smooth="yes"/>
      <point x="920" y="995"/>
      <point x="1022" y="909"/>
      <point x="1022" y="749" type="curve" smooth="yes"/>
      <point x="1022" y="734" type="line" smooth="yes"/>
      <point x="1022" y="543"/>
      <point x="860" y="438"/>
      <point x="561" y="438" type="curve" smooth="yes"/>
      <point x="239" y="438"/>
      <point x="64" y="578"/>
      <point x="64" y="845" type="curve" smooth="yes"/>
      <point x="64" y="855" type="line" smooth="yes"/>
      <point x="64" y="1171"/>
      <point x="339" y="1372"/>
    </contour>
  </outline>
</glyph>
<glyph name="eight.or" format="2">
  <advance width="1318"/>
  <unicode hex="0B6E"/>
  <outline>
    <contour>
      <point x="483" y="2" type="line"/>
      <point x="120" y="2" type="line"/>
      <point x="120" y="1330" type="line"/>
      <point x="1283" y="1328" type="line"/>
      <point x="1283" y="1015" type="line"/>
      <point x="483" y="1017" type="line"/>
    </contour>
  </outline>
</glyph>
<glyph name="nine.or" format="2">
  <advance width="1494"/>
  <unicode hex="0B6F"/>
  <outline>
    <contour>
      <point x="1404" y="600" type="line"/>
      <point x="1404" y="1328" type="line"/>
      <point x="1066" y="1328" type="line"/>
      <point x="1066" y="1175" type="line" smooth="yes"/>
      <point x="1066" y="1073"/>
      <point x="1070" y="988"/>
      <point x="1078" y="895" type="curve"/>
      <point x="1130" y="895" type="line"/>
      <point x="634" y="1328" type="line"/>
      <point x="276" y="1328" type="line"/>
      <point x="132" y="1134"/>
      <point x="74" y="979"/>
      <point x="74" y="787" type="curve" smooth="yes"/>
      <point x="74" y="771" type="line" smooth="yes"/>
      <point x="74" y="281"/>
      <point x="423" y="0"/>
      <point x="1117" y="0" type="curve" smooth="yes"/>
      <point x="1276" y="0" type="line"/>
      <point x="1320" y="322" type="line"/>
      <point x="1143" y="322" type="line" smooth="yes"/>
      <point x="679" y="322"/>
      <point x="444" y="471"/>
      <point x="444" y="770" type="curve" smooth="yes"/>
      <point x="444" y="782" type="line" smooth="yes"/>
      <point x="444" y="907"/>
      <point x="499" y="1044"/>
      <point x="587" y="1137" type="curve"/>
      <point x="426" y="1090" type="line"/>
      <point x="1044" y="603" type="line"/>
    </contour>
  </outline>
</glyph>
<glyph name="Isshar.or" format="2">
  <advance width="1782"/>
  <unicode hex="0B70"/>
  <outline>
    <contour>
      <point x="392" y="927" type="line"/>
      <point x="822" y="324" type="line"/>
      <point x="851" y="324" type="line"/>
      <point x="1413" y="1340" type="line"/>
      <point x="1802" y="1340" type="line"/>
      <point x="1061" y="0" type="line"/>
      <point x="638" y="0" type="line"/>
      <point x="-20" y="927" type="line"/>
    </contour>
    <contour>
      <point x="808" y="780" type="curve" smooth="yes"/>
      <point x="937" y="780"/>
      <point x="1004" y="847"/>
      <point x="1004" y="951" type="curve" smooth="yes"/>
      <point x="1004" y="958" type="line" smooth="yes"/>
      <point x="1004" y="1061"/>
      <point x="933" y="1130"/>
      <point x="808" y="1130" type="curve" smooth="yes"/>
      <point x="682" y="1130"/>
      <point x="611" y="1063"/>
      <point x="611" y="958" type="curve" smooth="yes"/>
      <point x="611" y="951" type="line" smooth="yes"/>
      <point x="611" y="847"/>
      <point x="682" y="780"/>
    </contour>
  </outline>
</glyph>
<glyph name="Wa.or" format="2">
  <advance width="1750"/>
  <unicode hex="0B71"/>
  <anchor x="1526" y="8" name="bottom"/>
  <anchor x="2037" y="-82" name="rasmall"/>
  <anchor x="870" y="1876" name="top1"/>
  <outline>
    <contour>
      <point x="645" y="1028" type="curve"/>
      <point x="955" y="1018" type="line"/>
      <point x="947" y="1032"/>
      <point x="942" y="1045"/>
      <point x="942" y="1062" type="curve" smooth="yes"/>
      <point x="942" y="1066" type="line" smooth="yes"/>
      <point x="942" y="1111"/>
      <point x="994" y="1145"/>
      <point x="1121" y="1145" type="curve" smooth="yes"/>
      <point x="1243" y="1145"/>
      <point x="1304" y="1121"/>
      <point x="1304" y="1075" type="curve" smooth="yes"/>
      <point x="1304" y="1068" type="line" smooth="yes"/>
      <point x="1304" y="1008"/>
      <point x="1211" y="975"/>
      <point x="1032" y="973" type="curve" smooth="yes"/>
      <point x="952" y="972" type="line"/>
      <point x="952" y="748" type="line"/>
      <point x="1035" y="748" type="line" smooth="yes"/>
      <point x="1148" y="748"/>
      <point x="1245" y="763"/>
      <point x="1311" y="779" type="curve"/>
      <point x="1475" y="858" type="line"/>
      <point x="1591" y="910"/>
      <point x="1647" y="977"/>
      <point x="1647" y="1077" type="curve" smooth="yes"/>
      <point x="1647" y="1090" type="line" smooth="yes"/>
      <point x="1647" y="1284"/>
      <point x="1467" y="1386"/>
      <point x="1121" y="1386" type="curve" smooth="yes"/>
      <point x="801" y="1386"/>
      <point x="624" y="1292"/>
      <point x="624" y="1116" type="curve" smooth="yes"/>
      <point x="624" y="1110" type="line" smooth="yes"/>
      <point x="624" y="1077"/>
      <point x="633" y="1049"/>
    </contour>
    <contour>
      <point x="953" y="332" type="curve" smooth="yes"/>
      <point x="1414" y="332"/>
      <point x="1690" y="459"/>
      <point x="1690" y="668" type="curve" smooth="yes"/>
      <point x="1690" y="679" type="line" smooth="yes"/>
      <point x="1690" y="794"/>
      <point x="1605" y="875"/>
      <point x="1447" y="908" type="curve"/>
      <point x="1233" y="778" type="line"/>
      <point x="1287" y="774"/>
      <point x="1312" y="753"/>
      <point x="1312" y="722" type="curve"/>
      <point x="1312" y="720" type="line"/>
      <point x="1312" y="674"/>
      <point x="1242" y="628"/>
      <point x="967" y="628" type="curve" smooth="yes"/>
      <point x="592" y="628"/>
      <point x="413" y="743"/>
      <point x="413" y="974" type="curve" smooth="yes"/>
      <point x="413" y="988" type="line" smooth="yes"/>
      <point x="413" y="1119"/>
      <point x="470" y="1226"/>
      <point x="542" y="1347" type="curve"/>
      <point x="204" y="1347" type="line"/>
      <point x="109" y="1230"/>
      <point x="57" y="1098"/>
      <point x="57" y="955" type="curve" smooth="yes"/>
      <point x="57" y="937" type="line" smooth="yes"/>
      <point x="57" y="540"/>
      <point x="382" y="332"/>
    </contour>
    <contour>
      <point x="594" y="309" type="curve" smooth="yes"/>
      <point x="594" y="313" type="line" smooth="yes"/>
      <point x="594" y="350"/>
      <point x="611" y="376"/>
      <point x="645" y="400" type="curve"/>
      <point x="333" y="535" type="line"/>
      <point x="266" y="464"/>
      <point x="233" y="374"/>
      <point x="233" y="288" type="curve" smooth="yes"/>
      <point x="233" y="277" type="line" smooth="yes"/>
      <point x="233" y="36"/>
      <point x="410" y="-88"/>
      <point x="726" y="-88" type="curve" smooth="yes"/>
      <point x="989" y="-88"/>
      <point x="1127" y="-21"/>
      <point x="1177" y="109" type="curve"/>
      <point x="1188" y="109" type="line"/>
      <point x="1182" y="-10" type="line"/>
      <point x="1182" y="-118" type="line"/>
      <point x="1526" y="-118" type="line"/>
      <point x="1526" y="503" type="line"/>
      <point x="1182" y="503" type="line"/>
      <point x="1182" y="204" type="line"/>
      <point x="1196" y="311" type="line"/>
      <point x="1167" y="245"/>
      <point x="1061" y="183"/>
      <point x="853" y="183" type="curve" smooth="yes"/>
      <point x="670" y="183"/>
      <point x="594" y="224"/>
    </contour>
  </outline>
</glyph>
<glyph name="onequarter.or" format="2">
  <advance width="603"/>
  <unicode hex="0B72"/>
  <outline>
    <contour>
      <point x="120" y="1191" type="line"/>
      <point x="483" y="1191" type="line"/>
      <point x="483" y="0" type="line"/>
      <point x="120" y="0" type="line"/>
    </contour>
  </outline>
</glyph>
<glyph name="onehalf.or" format="2">
  <advance width="1221"/>
  <unicode hex="0B73"/>
  <outline>
    <contour>
      <point x="429" y="1191" type="curve"/>
      <point x="70" y="1191" type="line"/>
      <point x="70" y="1160"/>
      <point x="70" y="974"/>
      <point x="70" y="896" type="curve" smooth="yes"/>
      <point x="70" y="883" type="line" smooth="yes"/>
      <point x="70" y="665"/>
      <point x="204" y="539"/>
      <point x="441" y="539" type="curve" smooth="yes"/>
      <point x="615" y="539"/>
      <point x="694" y="595"/>
      <point x="731" y="681" type="curve"/>
      <point x="788" y="681" type="line"/>
      <point x="745" y="905" type="line"/>
      <point x="726" y="849"/>
      <point x="669" y="813"/>
      <point x="587" y="813" type="curve" smooth="yes"/>
      <point x="483" y="813"/>
      <point x="429" y="859"/>
      <point x="429" y="948" type="curve" smooth="yes"/>
      <point x="429" y="953" type="line" smooth="yes"/>
      <point x="429" y="987"/>
      <point x="429" y="1149"/>
    </contour>
    <contour>
      <point x="738" y="0" type="line"/>
      <point x="1101" y="0" type="line"/>
      <point x="1101" y="1191" type="line"/>
      <point x="742" y="1191" type="line"/>
      <point x="742" y="823" type="line"/>
      <point x="742" y="761" type="line"/>
      <point x="738" y="542" type="line"/>
    </contour>
  </outline>
</glyph>
<glyph name="threequarter.or" format="2">
  <advance width="1858"/>
  <unicode hex="0B74"/>
  <outline>
    <contour>
      <point x="1076" y="1191" type="curve"/>
      <point x="732" y="1191" type="line"/>
      <point x="732" y="1161"/>
      <point x="732" y="972"/>
      <point x="732" y="893" type="curve" smooth="yes"/>
      <point x="732" y="881" type="line" smooth="yes"/>
      <point x="732" y="665"/>
      <point x="866" y="539"/>
      <point x="1089" y="539" type="curve" smooth="yes"/>
      <point x="1256" y="539"/>
      <point x="1333" y="596"/>
      <point x="1368" y="681" type="curve"/>
      <point x="1425" y="681" type="line"/>
      <point x="1382" y="906" type="line"/>
      <point x="1364" y="849"/>
      <point x="1308" y="813"/>
      <point x="1229" y="813" type="curve" smooth="yes"/>
      <point x="1128" y="813"/>
      <point x="1076" y="859"/>
      <point x="1076" y="948" type="curve" smooth="yes"/>
      <point x="1076" y="954" type="line" smooth="yes"/>
      <point x="1076" y="988"/>
      <point x="1076" y="1149"/>
    </contour>
    <contour>
      <point x="1375" y="0" type="line"/>
      <point x="1738" y="0" type="line"/>
      <point x="1738" y="1191" type="line"/>
      <point x="1379" y="1191" type="line"/>
      <point x="1379" y="829" type="line"/>
      <point x="1379" y="767" type="line"/>
      <point x="1375" y="548" type="line"/>
    </contour>
    <contour>
      <point x="429" y="1191" type="curve"/>
      <point x="70" y="1191" type="line"/>
      <point x="70" y="1161"/>
      <point x="70" y="972"/>
      <point x="70" y="893" type="curve" smooth="yes"/>
      <point x="70" y="881" type="line" smooth="yes"/>
      <point x="70" y="665"/>
      <point x="215" y="539"/>
      <point x="456" y="539" type="curve" smooth="yes"/>
      <point x="637" y="539"/>
      <point x="738" y="596"/>
      <point x="776" y="681" type="curve"/>
      <point x="833" y="681" type="line"/>
      <point x="735" y="906" type="line"/>
      <point x="717" y="850"/>
      <point x="661" y="813"/>
      <point x="582" y="813" type="curve" smooth="yes"/>
      <point x="481" y="813"/>
      <point x="429" y="860"/>
      <point x="429" y="948" type="curve" smooth="yes"/>
      <point x="429" y="954" type="line" smooth="yes"/>
      <point x="429" y="988"/>
      <point x="429" y="1149"/>
    </contour>
  </outline>
</glyph>
<glyph name="onesixteenth.or" format="2">
  <advance width="1127"/>
  <unicode hex="0B75"/>
  <outline>
    <contour>
      <point x="-10" y="0" type="line"/>
      <point x="719" y="1191" type="line"/>
      <point x="1141" y="1191" type="line"/>
      <point x="412" y="0" type="line"/>
    </contour>
  </outline>
</glyph>
<glyph name="oneeigth.or" format="2">
  <advance width="2494"/>
  <unicode hex="0B76"/>
  <outline>
    <contour>
      <point x="642" y="-43" type="curve" smooth="yes"/>
      <point x="268" y="-43"/>
      <point x="40" y="107"/>
      <point x="40" y="378" type="curve" smooth="yes"/>
      <point x="40" y="394" type="line" smooth="yes"/>
      <point x="40" y="704"/>
      <point x="288" y="885"/>
      <point x="745" y="885" type="curve" smooth="yes"/>
      <point x="1253" y="885"/>
      <point x="1543" y="700"/>
      <point x="1543" y="358" type="curve" smooth="yes"/>
      <point x="1543" y="328"/>
      <point x="1541" y="303"/>
      <point x="1535" y="281" type="curve"/>
      <point x="1550" y="281" type="line"/>
      <point x="1606" y="407"/>
      <point x="1661" y="521"/>
      <point x="1747" y="662" type="curve" smooth="yes"/>
      <point x="2071" y="1191" type="line"/>
      <point x="2492" y="1191" type="line"/>
      <point x="1763" y="0" type="line"/>
      <point x="1210" y="0" type="line"/>
      <point x="1250" y="89"/>
      <point x="1264" y="164"/>
      <point x="1264" y="228" type="curve" smooth="yes"/>
      <point x="1264" y="247" type="line" smooth="yes"/>
      <point x="1264" y="490"/>
      <point x="1091" y="607"/>
      <point x="749" y="607" type="curve" smooth="yes"/>
      <point x="485" y="607"/>
      <point x="359" y="522"/>
      <point x="359" y="377" type="curve" smooth="yes"/>
      <point x="359" y="370" type="line"/>
      <point x="359" y="370" type="line"/>
      <point x="359" y="367" type="line" smooth="yes"/>
      <point x="359" y="269"/>
      <point x="467" y="205"/>
      <point x="615" y="205" type="curve" smooth="yes"/>
      <point x="726" y="205"/>
      <point x="758" y="226"/>
      <point x="758" y="260" type="curve" smooth="yes"/>
      <point x="758" y="263" type="line" smooth="yes"/>
      <point x="758" y="294"/>
      <point x="726" y="313"/>
      <point x="625" y="313" type="curve" smooth="yes"/>
      <point x="513" y="313"/>
      <point x="445" y="278"/>
      <point x="399" y="235" type="curve"/>
      <point x="345" y="338" type="line"/>
      <point x="377" y="338" type="line"/>
      <point x="412" y="465"/>
      <point x="549" y="536"/>
      <point x="733" y="536" type="curve" smooth="yes"/>
      <point x="1001" y="536"/>
      <point x="1128" y="445"/>
      <point x="1128" y="267" type="curve" smooth="yes"/>
      <point x="1128" y="256" type="line" smooth="yes"/>
      <point x="1128" y="61"/>
      <point x="969" y="-43"/>
    </contour>
  </outline>
</glyph>
<glyph name="threesixteenth.or" format="2">
  <advance width="2524"/>
  <unicode hex="0B77"/>
  <outline>
    <contour>
      <point x="462" y="711" type="curve" smooth="yes"/>
      <point x="673" y="711"/>
      <point x="781" y="635"/>
      <point x="829" y="505" type="curve"/>
      <point x="836" y="505" type="line"/>
      <point x="888" y="635"/>
      <point x="1010" y="711"/>
      <point x="1208" y="711" type="curve" smooth="yes"/>
      <point x="1441" y="711"/>
      <point x="1559" y="579"/>
      <point x="1559" y="403" type="curve" smooth="yes"/>
      <point x="1559" y="354"/>
      <point x="1557" y="312"/>
      <point x="1552" y="276" type="curve"/>
      <point x="1566" y="276" type="line"/>
      <point x="1605" y="368"/>
      <point x="1721" y="560"/>
      <point x="1763" y="628" type="curve" smooth="yes"/>
      <point x="2109" y="1185" type="line"/>
      <point x="2534" y="1185" type="line"/>
      <point x="1793" y="0" type="line"/>
      <point x="1283" y="0" type="line"/>
      <point x="1283" y="263" type="line" smooth="yes"/>
      <point x="1283" y="384"/>
      <point x="1240" y="433"/>
      <point x="1140" y="433" type="curve" smooth="yes"/>
      <point x="1044" y="433"/>
      <point x="998" y="384"/>
      <point x="998" y="263" type="curve" smooth="yes"/>
      <point x="998" y="0" type="line"/>
      <point x="667" y="0" type="line"/>
      <point x="667" y="263" type="line" smooth="yes"/>
      <point x="667" y="384"/>
      <point x="621" y="433"/>
      <point x="524" y="433" type="curve" smooth="yes"/>
      <point x="426" y="433"/>
      <point x="382" y="384"/>
      <point x="382" y="263" type="curve" smooth="yes"/>
      <point x="382" y="254" type="line" smooth="yes"/>
      <point x="382" y="165"/>
      <point x="387" y="98"/>
      <point x="407" y="0" type="curve"/>
      <point x="67" y="0" type="line"/>
      <point x="49" y="82"/>
      <point x="40" y="162"/>
      <point x="40" y="274" type="curve" smooth="yes"/>
      <point x="40" y="283" type="line" smooth="yes"/>
      <point x="40" y="554"/>
      <point x="186" y="711"/>
    </contour>
  </outline>
</glyph>
<glyph name="BaBa.or" format="2">
  <advance width="2214"/>
  <anchor x="1701" y="106" name="bottom"/>
  <anchor x="2212" y="36" name="rasmall"/>
  <anchor x="1071" y="1876" name="top1"/>
  <anchor x="1728" y="1400" name="top2"/>
  <outline>
    <contour>
      <point x="359" y="294" type="curve"/>
      <point x="534" y="586" type="line"/>
      <point x="477" y="613"/>
      <point x="448" y="651"/>
      <point x="448" y="724" type="curve" smooth="yes"/>
      <point x="448" y="740" type="line" smooth="yes"/>
      <point x="448" y="938"/>
      <point x="646" y="1052"/>
      <point x="1070" y="1052" type="curve" smooth="yes"/>
      <point x="1540" y="1052"/>
      <point x="1778" y="898"/>
      <point x="1778" y="579" type="curve" smooth="yes"/>
      <point x="1778" y="554" type="line" smooth="yes"/>
      <point x="1778" y="515"/>
      <point x="1771" y="451"/>
      <point x="1760" y="399" type="curve"/>
      <point x="2134" y="434" type="line"/>
      <point x="2150" y="489"/>
      <point x="2157" y="547"/>
      <point x="2157" y="598" type="curve" smooth="yes"/>
      <point x="2157" y="623" type="line" smooth="yes"/>
      <point x="2157" y="1110"/>
      <point x="1776" y="1376"/>
      <point x="1071" y="1376" type="curve" smooth="yes"/>
      <point x="414" y="1376"/>
      <point x="60" y="1158"/>
      <point x="60" y="749" type="curve" smooth="yes"/>
      <point x="60" y="723" type="line" smooth="yes"/>
      <point x="60" y="493"/>
      <point x="183" y="355"/>
    </contour>
    <contour>
      <point x="760" y="301" type="curve" smooth="yes"/>
      <point x="692" y="301"/>
      <point x="654" y="329"/>
      <point x="654" y="386" type="curve" smooth="yes"/>
      <point x="654" y="390" type="line" smooth="yes"/>
      <point x="654" y="448"/>
      <point x="692" y="475"/>
      <point x="760" y="475" type="curve" smooth="yes"/>
      <point x="827" y="475"/>
      <point x="866" y="448"/>
      <point x="866" y="390" type="curve" smooth="yes"/>
      <point x="866" y="386" type="line" smooth="yes"/>
      <point x="866" y="329"/>
      <point x="827" y="301"/>
    </contour>
    <contour>
      <point x="1357" y="0" type="line"/>
      <point x="1701" y="0" type="line"/>
      <point x="1701" y="376" type="line" smooth="yes"/>
      <point x="1701" y="634"/>
      <point x="1541" y="753"/>
      <point x="1314" y="753" type="curve" smooth="yes"/>
      <point x="1134" y="753"/>
      <point x="1013" y="685"/>
      <point x="972" y="568" type="curve"/>
      <point x="965" y="568" type="line"/>
      <point x="931" y="688"/>
      <point x="852" y="753"/>
      <point x="704" y="753" type="curve" smooth="yes"/>
      <point x="571" y="753"/>
      <point x="479" y="698"/>
      <point x="425" y="586" type="curve"/>
      <point x="381" y="575" type="line"/>
      <point x="344" y="522"/>
      <point x="326" y="445"/>
      <point x="326" y="381" type="curve" smooth="yes"/>
      <point x="326" y="363" type="line" smooth="yes"/>
      <point x="326" y="151"/>
      <point x="438" y="34"/>
      <point x="649" y="34" type="curve" smooth="yes"/>
      <point x="817" y="34"/>
      <point x="900" y="100"/>
      <point x="927" y="219" type="curve"/>
      <point x="934" y="219" type="line"/>
      <point x="957" y="100"/>
      <point x="1027" y="34"/>
      <point x="1155" y="34" type="curve" smooth="yes"/>
      <point x="1276" y="34"/>
      <point x="1336" y="95"/>
      <point x="1360" y="219" type="curve"/>
      <point x="1447" y="219" type="line"/>
      <point x="1367" y="386" type="line"/>
      <point x="1367" y="328"/>
      <point x="1328" y="301"/>
      <point x="1264" y="301" type="curve" smooth="yes"/>
      <point x="1199" y="301"/>
      <point x="1160" y="328"/>
      <point x="1160" y="386" type="curve" smooth="yes"/>
      <point x="1160" y="390" type="line" smooth="yes"/>
      <point x="1160" y="448"/>
      <point x="1199" y="475"/>
      <point x="1264" y="475" type="curve" smooth="yes"/>
      <point x="1329" y="475"/>
      <point x="1367" y="449"/>
      <point x="1367" y="390" type="curve" smooth="yes"/>
      <point x="1367" y="255" type="line"/>
      <point x="1372" y="230" type="line"/>
      <point x="1357" y="93" type="line"/>
    </contour>
  </outline>
</glyph>
<glyph name="BaDa.or" format="2">
  <advance width="2214"/>
  <anchor x="1685" y="106" name="bottom"/>
  <anchor x="2196" y="36" name="rasmall"/>
  <anchor x="1071" y="1876" name="top1"/>
  <anchor x="1728" y="1400" name="top2"/>
  <outline>
    <contour>
      <point x="359" y="294" type="curve"/>
      <point x="534" y="586" type="line"/>
      <point x="477" y="613"/>
      <point x="448" y="651"/>
      <point x="448" y="724" type="curve" smooth="yes"/>
      <point x="448" y="740" type="line" smooth="yes"/>
      <point x="448" y="938"/>
      <point x="646" y="1052"/>
      <point x="1070" y="1052" type="curve" smooth="yes"/>
      <point x="1540" y="1052"/>
      <point x="1778" y="898"/>
      <point x="1778" y="579" type="curve" smooth="yes"/>
      <point x="1778" y="554" type="line" smooth="yes"/>
      <point x="1778" y="515"/>
      <point x="1771" y="451"/>
      <point x="1760" y="399" type="curve"/>
      <point x="2134" y="434" type="line"/>
      <point x="2150" y="489"/>
      <point x="2157" y="547"/>
      <point x="2157" y="598" type="curve" smooth="yes"/>
      <point x="2157" y="623" type="line" smooth="yes"/>
      <point x="2157" y="1110"/>
      <point x="1776" y="1376"/>
      <point x="1071" y="1376" type="curve" smooth="yes"/>
      <point x="414" y="1376"/>
      <point x="60" y="1158"/>
      <point x="60" y="749" type="curve" smooth="yes"/>
      <point x="60" y="723" type="line" smooth="yes"/>
      <point x="60" y="493"/>
      <point x="183" y="355"/>
    </contour>
    <contour>
      <point x="777" y="304" type="curve" smooth="yes"/>
      <point x="710" y="304"/>
      <point x="672" y="332"/>
      <point x="672" y="389" type="curve" smooth="yes"/>
      <point x="672" y="393" type="line" smooth="yes"/>
      <point x="672" y="451"/>
      <point x="710" y="478"/>
      <point x="777" y="478" type="curve" smooth="yes"/>
      <point x="845" y="478"/>
      <point x="882" y="451"/>
      <point x="882" y="393" type="curve" smooth="yes"/>
      <point x="882" y="389" type="line" smooth="yes"/>
      <point x="882" y="332"/>
      <point x="843" y="304"/>
    </contour>
    <contour>
      <point x="656" y="34" type="curve" smooth="yes"/>
      <point x="823" y="34"/>
      <point x="906" y="100"/>
      <point x="933" y="219" type="curve"/>
      <point x="940" y="219" type="line"/>
      <point x="962" y="100"/>
      <point x="1029" y="34"/>
      <point x="1151" y="34" type="curve" smooth="yes"/>
      <point x="1265" y="34"/>
      <point x="1321" y="95"/>
      <point x="1344" y="219" type="curve"/>
      <point x="1431" y="219" type="line"/>
      <point x="1351" y="390" type="line"/>
      <point x="1351" y="329"/>
      <point x="1315" y="301"/>
      <point x="1264" y="301" type="curve" smooth="yes"/>
      <point x="1203" y="301"/>
      <point x="1175" y="334"/>
      <point x="1175" y="403" type="curve" smooth="yes"/>
      <point x="1175" y="411" type="line"/>
      <point x="1175" y="620"/>
      <point x="1038" y="753"/>
      <point x="796" y="753" type="curve" smooth="yes"/>
      <point x="615" y="753"/>
      <point x="507" y="695"/>
      <point x="438" y="586" type="curve"/>
      <point x="388" y="575" type="line"/>
      <point x="351" y="522"/>
      <point x="333" y="445"/>
      <point x="333" y="381" type="curve" smooth="yes"/>
      <point x="333" y="363" type="line" smooth="yes"/>
      <point x="333" y="151"/>
      <point x="445" y="34"/>
    </contour>
    <contour>
      <point x="1341" y="0" type="line"/>
      <point x="1685" y="0" type="line"/>
      <point x="1685" y="699" type="line"/>
      <point x="1351" y="699" type="line"/>
      <point x="1351" y="255" type="line"/>
      <point x="1356" y="230" type="line"/>
      <point x="1341" y="93" type="line"/>
    </contour>
  </outline>
</glyph>
